<svg
  xmlns="http://www.w3.org/2000/svg"
  viewBox="0 0 64 64"
  width="120"
  height="120"
>
  <rect width="64" height="64" rx="10" fill="#e8f5e9" />
  <g fill="#4caf50">
    <path d="M45 18H15a2 2 0 0 0-2 2v26a2 2 0 0 0 2 2h30a2 2 0 0 0 2-2V20a2 2 0 0 0-2-2zm-1 2v24H16V20z" />
    <path d="M24 22h16v2H24zm0 4h10v2H24zm0 4h16v2H24zm0 4h10v2H24z" />
  </g>
  <circle cx="50" cy="22" r="8" fill="#4caf50" />
  <path d="M50 18v8M46 22h8" stroke="#fff" stroke-width="2" stroke-linecap="round" />
</svg>
