<svg width="107" height="88" viewBox="0 0 107 88" fill="none" xmlns="http://www.w3.org/2000/svg">
<path d="M42.7774 74.7474C42.5602 70.3457 42.3513 65.9202 42.3745 61.4947C27.0712 61.3385 8.42666 56.4492 5.62187 56.0043C4.24995 55.7865 2.90019 55.9333 1.62246 55.3183C1.59863 58.8207 1.68175 72.9937 1.62246 76.5698C1.6241 76.6066 1.61588 76.6432 1.59864 76.6757C1.5814 76.7083 1.55578 76.7356 1.52441 76.755C1.49305 76.7743 1.4571 76.7849 1.42027 76.7856C1.38344 76.7864 1.34708 76.7773 1.31494 76.7593C1.55154 79.4333 2.24138 82.8687 4.10755 80.9953C7.00044 78.0902 10.3615 77.5345 14.5205 82.1312C18.6684 86.7168 23.4968 89.6114 24.6016 85.4679C26.388 78.774 39.9133 87.4682 42.1618 87.4798H43.6767C43.0849 83.2909 42.9863 78.984 42.7774 74.7474Z" fill="#69B93F"/>
<path d="M10.4733 41.5919C10.8756 39.3439 12.6055 36.7098 10.9942 34.8708C10.926 34.8044 10.8821 34.7171 10.8692 34.6228C10.8564 34.5286 10.8754 34.4327 10.9233 34.3505C12.263 32.4433 13.9336 28.2223 11.5383 26.3988C11.4825 26.3662 11.4348 26.3215 11.3987 26.2679C11.3627 26.2143 11.3392 26.1532 11.3301 26.0892C11.321 26.0253 11.3265 25.9601 11.3461 25.8985C11.3658 25.837 11.3991 25.7807 11.4436 25.7339C12.1386 25.1027 12.5885 24.2464 12.7139 23.3159C12.8393 22.3854 12.6322 21.4405 12.129 20.6479C11.827 20.1941 10.8485 19.6068 10.8036 18.9912C10.7537 18.3052 11.5793 17.5705 11.75 16.9089C11.9146 16.2567 11.9256 15.5752 11.7819 14.9181C11.6383 14.261 11.344 13.6462 10.9222 13.1223C10.454 12.5737 9.94364 12.4363 9.9043 11.6783C9.85775 10.7812 10.4584 10.3984 9.97522 8.55491C8.81551 7.98697 8.0819 8.12882 7.77438 9.0281C7.06459 10.1169 6.94325 11.8196 6.6856 13.0729C6.3197 14.546 6.28733 16.0822 6.59085 17.5694C7.08565 20.0312 4.37449 22.3229 5.97581 24.7171C6.49831 25.4973 7.51396 25.5931 7.51396 26.6104C7.51396 27.6277 6.65845 28.834 6.42517 29.8291C6.06502 31.3662 6.07056 33.1891 7.20644 34.4436C7.65636 34.9423 8.26863 35.083 8.31849 35.7928C8.40881 37.0711 7.06016 37.9643 7.96388 39.3428C8.66493 40.2311 9.51384 40.9919 10.4733 41.5919Z" fill="#69B93F"/>
<path d="M19.2297 25.0025C19.1788 24.624 19.0663 23.7453 18.7565 23.4643C18.0988 22.867 17.435 23.5624 17.0051 23.9846C16.3098 24.6647 15.8182 25.5254 15.5855 26.4697C15.314 27.6028 15.6215 28.7664 15.514 29.9012C15.4292 30.8016 14.9765 31.441 14.7333 32.2915C14.2723 33.9039 15.4115 35.7435 14.8042 37.2611C14.3089 38.499 12.8511 38.8225 12.9347 41.7576C13.4128 40.858 14.0733 40.068 14.874 39.4381C16.1113 38.3333 16.6726 37.214 17.4062 35.7468C18.0218 34.5162 17.921 33.0966 17.8085 31.7707C17.7586 31.1795 17.4993 30.3738 17.7143 29.7826C17.9725 29.0723 18.6252 28.557 18.9211 27.8433C19.2744 26.9405 19.3809 25.96 19.2297 25.0025Z" fill="#69B93F"/>
<path d="M26.3771 25.4757L25.5487 17.9955L49.2382 8.31779C49.2382 8.31779 49.5247 12.6729 49.2382 13.9739C48.9567 15.2528 49.6405 18.8964 50.4688 19.6777C50.4688 19.6777 44.6243 20.1282 42.1619 23.133C39.6785 26.1628 35.5827 31.6998 31.3705 29.7355C31.3705 29.7355 30.5892 25.4757 32.5302 22.636C32.5302 22.6122 29.4534 22.1861 26.3771 25.4757Z" fill="#69B93F"/>
<path d="M54.6338 25.3809L55.2488 24.9548L54.6338 15.5353C54.6338 15.5353 52.7305 17.6148 53.1898 19.6533C53.6536 21.7095 54.3733 22.754 54.6338 25.3809Z" fill="#69B93F"/>
<path d="M36.7189 51.9578C36.7189 51.9578 44.3863 54.2534 45.4513 54.0877C46.5163 53.922 47.5336 52.5257 47.5336 52.5257C47.5336 52.5257 46.5872 50.8452 44.7886 51.2713C42.99 51.6974 41.2386 51.7445 41.5228 48.9995L36.7189 51.9578Z" fill="#EC9A29"/>
<path d="M52.007 42.515L59.9587 37.8767L67.1768 39.959L57.6631 46.3016C57.6631 46.3016 55.7238 47.0585 55.2728 46.9167C54.8217 46.7748 53.5928 46.3016 53.5928 46.3016C53.5928 46.3016 54.9414 43.4852 52.007 42.515Z" fill="#EC9A29"/>
<path d="M72.8329 25.4037C72.8329 26.1611 73.4241 26.421 74.0635 26.5396C74.9988 31.1008 79.6044 32.6345 82.0385 30.2553C82.254 30.0447 81.9698 29.643 81.7061 29.8292C78.8713 31.8361 75.6011 29.786 74.8193 26.6581H74.9855C75.0613 26.6569 75.1341 26.6282 75.1903 26.5773C75.2465 26.5263 75.2822 26.4568 75.2909 26.3814C75.2996 26.3061 75.2806 26.2302 75.2374 26.1679C75.1943 26.1055 75.13 26.061 75.0564 26.0425C74.704 26.0141 74.3552 25.9506 74.0153 25.853C73.3055 25.5455 73.6319 24.9754 73.8973 24.4335C74.2691 23.6727 74.719 22.9624 75.1512 22.2559C75.2681 22.0658 74.985 21.8298 74.8437 22.0193C74.7957 22.0959 74.74 22.1674 74.6774 22.2326C74.8907 21.0101 75.1753 19.801 75.5296 18.6117C75.5399 18.5601 75.5305 18.5066 75.5033 18.4617C75.4761 18.4167 75.433 18.3835 75.3826 18.3687C75.3322 18.3538 75.2781 18.3584 75.2309 18.3814C75.1836 18.4044 75.1467 18.4442 75.1274 18.4931C74.6561 19.978 74.3 21.497 74.0624 23.0366C73.8729 23.297 73.7128 23.5846 73.5416 23.8411C73.1606 24.2834 72.9146 24.8257 72.8329 25.4037Z" fill="#191919"/>
<path d="M76.453 21.642C76.1383 22.6598 77.3052 22.6726 77.3052 21.9966V21.7367C77.2978 21.6352 77.2551 21.5394 77.1844 21.4661C77.1138 21.3927 77.0197 21.3464 76.9185 21.3352C76.8173 21.3239 76.7154 21.3485 76.6304 21.4045C76.5453 21.4605 76.4826 21.5445 76.453 21.642Z" fill="#191919"/>
<path d="M76.4061 19.0388C76.356 19.0702 76.3203 19.1202 76.307 19.1779C76.2937 19.2356 76.3038 19.2962 76.3352 19.3463C76.3666 19.3965 76.4166 19.4322 76.4743 19.4455C76.532 19.4588 76.5925 19.4486 76.6427 19.4173C76.9248 19.2943 77.3525 19.512 77.5891 19.6777C77.8257 19.8434 77.9681 20.1038 78.254 20.1764C78.2948 20.1858 78.3371 20.1864 78.378 20.178C78.419 20.1696 78.4577 20.1524 78.4914 20.1277C78.5251 20.103 78.5531 20.0712 78.5734 20.0347C78.5938 19.9981 78.606 19.9576 78.6092 19.9159C78.607 19.1624 77.0866 18.5739 76.4061 19.0388Z" fill="#191919"/>
<path d="M78.465 28.931C78.7108 28.7388 78.8985 28.4822 79.0071 28.1897C79.1157 27.8972 79.1409 27.5802 79.08 27.2742C79.0315 27.1568 78.9519 27.0548 78.8498 26.9791C78.7476 26.9035 78.6269 26.8571 78.5004 26.8449C78.3739 26.8327 78.2464 26.8552 78.1318 26.9099C78.0171 26.9647 77.9195 27.0496 77.8494 27.1557C77.4471 27.2504 77.2582 27.9131 77.2815 28.2921C77.2816 28.4299 77.319 28.5651 77.3896 28.6834C77.4603 28.8017 77.5616 28.8987 77.6829 28.9641C77.8041 29.0296 77.9408 29.0611 78.0785 29.0552C78.2162 29.0494 78.3497 29.0064 78.465 28.931ZM78.5359 27.6056C78.5769 27.938 77.9818 28.865 77.897 28.2705C77.8704 28.0815 77.9203 27.7025 78.1336 27.6316C78.1947 27.6124 78.2457 27.5697 78.2755 27.513C78.3941 27.4399 78.5359 27.4161 78.5359 27.6056Z" fill="#191919"/>
<path d="M82.5116 34.232C82.7959 33.1908 82.4906 31.8882 82.1792 30.8714C82.1604 30.8121 82.1197 30.7621 82.0654 30.7317C82.011 30.7013 81.9471 30.6928 81.8867 30.7079C81.8263 30.7231 81.774 30.7607 81.7404 30.8131C81.7068 30.8655 81.6945 30.9288 81.706 30.99C82.1154 33.1221 81.7941 33.3089 81.8955 34.161C81.9359 34.4935 82.4429 34.5871 82.5116 34.232Z" fill="#191919"/>
<path d="M66.1587 50.3958C71.1133 45.6185 75.6956 40.1297 82.1569 37.3559C82.3907 37.2551 82.2278 36.8572 81.9906 36.9536C78.9283 38.2533 76.0986 40.0438 73.6128 42.2546C71.7259 43.8126 69.9247 45.4716 68.2171 47.2242C63.9602 46.5337 59.6127 46.63 55.3905 47.5085C55.2928 47.519 55.1996 47.5553 55.1205 47.6137C55.0414 47.6722 54.9793 47.7506 54.9406 47.8409C54.236 49.3563 53.9334 51.0276 54.0619 52.6938C54.1904 54.36 54.7456 55.9652 55.6742 57.3546C55.7232 57.4244 55.7938 57.4762 55.8751 57.5018C55.9565 57.5274 56.044 57.5256 56.1241 57.4965C56.1518 57.5151 56.1851 57.5235 56.2183 57.5203C59.8563 57.5807 63.4744 56.971 66.8917 55.7217C67.3411 55.5555 67.1555 54.8313 66.7022 55.0114C63.4051 56.2963 59.8993 56.9622 56.3607 56.9756V56.9524C55.4725 55.6904 54.9104 54.2282 54.7246 52.6962C54.5388 51.1642 54.735 49.61 55.2958 48.1723C55.3153 48.1138 55.3495 48.0614 55.3951 48.0199C55.4407 47.9785 55.4961 47.9495 55.5562 47.9357C59.5849 47.2528 63.692 47.165 67.7461 47.6752C67.0311 48.4438 66.367 49.2582 65.7581 50.1132C65.6145 50.3482 65.9658 50.5814 66.1587 50.3958Z" fill="#191919"/>
<path d="M104.876 39.6515C104.745 39.1263 104.465 38.6498 104.071 38.279C102.686 37.1941 98.7836 38.2701 97.2083 42.3022C96.7724 43.4787 96.5249 44.7166 96.4747 45.9703C96.2807 45.4461 96.0993 44.9173 95.9306 44.3845C95.3975 42.6768 95.2656 40.9059 94.5575 39.2492C94.9575 39.2806 95.359 39.2123 95.7261 39.0503C96.0931 38.8883 96.4142 38.6378 96.6605 38.3211C96.9069 38.0044 97.0707 37.6315 97.1374 37.2359C97.2041 36.8402 97.1715 36.4342 97.0426 36.0543C97.7291 36.5984 98.7741 36.0571 99.3144 35.344C100.718 33.4939 100.037 31.1069 98.2732 30.5639C98.7263 30.2345 99.0685 29.7752 99.2545 29.2468C99.4404 28.7185 99.4613 28.1461 99.3144 27.6056C99.1465 27.0702 98.8225 26.5972 98.384 26.2473C97.9454 25.8973 97.4124 25.6863 96.8531 25.6413C95.9776 25.5898 95.1493 25.9738 94.2738 26.0436C95.479 25.2291 95.7145 22.5351 92.2858 21.3106C93.7364 18.8327 90.7687 15.0699 85.8489 17.3583C85.5807 16.7092 85.1543 16.1375 84.6087 15.6952C84.0631 15.2529 83.4155 14.9542 82.725 14.8261C82.0318 14.7126 81.3212 14.772 80.6565 14.9991C79.9918 15.2261 79.3934 15.6138 78.9145 16.1276C77.4523 15.2339 74.9888 17.5467 76.051 18.0448C76.9237 18.4537 77.6129 17.8082 78.4651 17.8082C79.5179 17.8082 78.5161 19.1862 79.2226 20.2462C79.7351 21.0152 80.9452 21.3544 82.4645 20.388C82.0517 21.3676 83.0923 22.7845 83.5295 22.7307C83.7423 22.7052 83.8104 22.2076 83.9794 22.0447C84.1647 21.8741 84.3979 21.7644 84.6475 21.7306C84.8971 21.6967 85.1511 21.7402 85.3752 21.8552C85.6755 22.0494 85.8943 22.3467 85.9903 22.6912C86.0862 23.0356 86.0527 23.4033 85.896 23.7247C85.7313 24.0402 85.483 24.3042 85.1783 24.4879C84.8736 24.6716 84.5242 24.768 84.1684 24.7664C83.9514 25.423 83.967 26.1343 84.2127 26.7807C84.4584 27.4271 84.9192 27.9693 85.5176 28.3159C85.0683 28.5697 84.6979 28.9428 84.4473 29.3938C84.1967 29.8449 84.0756 30.3564 84.0974 30.8719C84.216 31.8898 85.3281 32.7652 86.2983 32.4101C85.7201 32.6555 85.2085 33.0345 84.8053 33.5162C84.4022 33.9978 84.1192 34.5682 83.9794 35.1805C83.6697 36.5292 84.4526 37.7293 85.9437 37.6894C86.5891 37.6387 87.2213 37.4787 87.8132 37.2162C86.5421 39.7578 89.8079 40.8511 91.5256 40.1978C91.8948 40.076 92.2166 39.8416 92.4458 39.5276C92.6751 39.2136 92.8003 38.8356 92.8038 38.4469C93.1185 38.8225 93.539 39.0945 94.0106 39.2276V39.3462C94.5315 41.168 94.7509 43.0669 95.3122 44.8837C95.6568 45.9991 96.0696 47.1084 96.4248 48.2204C96.4481 48.6465 96.4486 49.0726 96.4719 49.4749C96.7866 54.9415 97.7114 60.4325 97.303 65.8986C97.2332 66.8217 97.1612 67.721 97.0897 68.6203C97.1374 68.218 96.1234 67.1503 95.8591 66.8217C93.5873 63.992 91.6242 63.6363 89.4693 62.4444C88.3573 61.8288 87.3394 61.19 86.0379 61.0952C85.9893 61.0915 85.9406 61.0997 85.896 61.1191C85.1063 58.6295 84.0007 56.2513 82.6064 54.0428C82.6837 54.0364 82.7557 54.0013 82.8084 53.9443C82.861 53.8874 82.8903 53.8128 82.8906 53.7353C83.2663 48.0974 83.2912 48.4066 83.1982 48.221C84.2393 47.0613 85.2577 45.8789 86.2745 44.7186C86.3077 44.6801 86.3251 44.6305 86.3233 44.5798C86.3214 44.529 86.3004 44.4808 86.2645 44.4449C86.2286 44.4089 86.1804 44.3879 86.1296 44.3861C86.0788 44.3842 86.0292 44.4017 85.9908 44.4349C83.9556 46.4933 81.7548 48.4797 79.8404 50.659C78.7992 49.594 77.4733 48.2714 76.0537 48.0548C74.515 47.8209 73.1426 49.1668 72.2438 50.2794C69.6629 53.4737 68.6101 58.1347 68.0328 62.1125C67.43 66.5809 67.5987 71.1196 68.5314 75.5309C68.5414 75.578 68.5621 75.6223 68.592 75.6601C68.6218 75.6979 68.66 75.7283 68.7036 75.7489C68.7472 75.7695 68.7949 75.7797 68.8431 75.7788C68.8913 75.7779 68.9386 75.7659 68.9814 75.7437C69.9073 76.5757 71.0976 77.0536 72.3419 77.0929C73.3813 77.1065 74.4173 76.971 75.4182 76.6906C75.9634 76.5754 76.1053 77.1721 75.7257 77.2109C75.1798 77.3259 74.6482 77.5005 74.1405 77.7317C72.4289 78.2775 70.5284 78.7169 69.1232 77.5899C68.1846 76.8369 68.2367 75.7442 66.7329 74.5369C65.7373 73.7764 64.5057 73.3909 63.2543 73.4481C63.0621 72.4152 63.2737 71.3479 63.8455 70.4665C64.0477 70.0585 64.359 69.7144 64.7448 69.4725C65.6906 68.9738 66.5179 69.6631 66.8038 70.5375C66.8313 70.6258 66.892 70.7 66.9732 70.7443C67.0544 70.7887 67.1496 70.7997 67.2388 70.7751C67.328 70.7505 67.4041 70.6921 67.451 70.6124C67.4979 70.5327 67.512 70.4379 67.4903 70.3479C67.4223 69.9942 67.2655 69.6635 67.0346 69.3869C66.8037 69.1103 66.5063 68.897 66.1704 68.7668C65.8344 68.6367 65.4709 68.5941 65.1139 68.643C64.757 68.6919 64.4183 68.8307 64.1298 69.0464C63.497 69.5733 63.026 70.2684 62.7711 71.0514C62.5162 71.8344 62.4878 72.6734 62.6891 73.4719C61.0583 73.6814 59.4832 74.2037 58.0503 75.01C58.0265 75.01 58.0265 75.0339 58.0032 75.0577C57.6584 74.7874 57.2345 74.6377 56.7964 74.6316C54.6488 74.6072 54.0016 77.7317 55.6367 79.0804C55.8122 79.2258 56.0125 79.3385 56.2279 79.4128C56.0499 80.9441 56.4838 82.4836 57.4353 83.6965C59.3463 86.0364 63.4637 85.7583 64.3691 85.8973C71.2675 86.959 86.6113 87.5402 94.7332 85.4951C97.5718 84.7803 101.53 81.6164 103.135 79.153C106.803 73.4985 106.539 44.5801 104.876 39.6515ZM82.7011 48.7629C82.5349 50.3249 82.4174 51.8863 82.2989 53.4483C81.7239 52.6245 81.0827 51.849 80.3817 51.1294C80.3036 51.0496 80.328 51.2845 82.7011 48.7629ZM69.259 75.3154C69.259 75.0472 66.1007 63.8335 71.3645 52.7856C72.2438 50.9416 73.5892 48.6476 75.908 48.9518C77.1857 49.1181 80.3512 52.2464 80.5939 52.5257C83.2303 55.5616 84.6066 59.1942 85.942 62.891C86.0617 63.2235 86.598 63.0827 86.4867 62.7492C86.3609 62.373 86.2501 61.9917 86.1315 61.6133C86.1869 61.62 94.0638 63.7742 96.9916 69.8725C96.447 73.7772 95.1692 77.3272 90.8617 79.8594C89.5766 80.4284 88.2252 80.8338 86.8391 81.0662C85.3821 81.2244 83.9087 81.1284 82.4845 80.7825C79.9994 80.0312 78.7095 76.6657 77.5381 74.1562C78.8306 70.6891 79.3554 66.9829 79.0763 63.2933C79.0734 63.2356 79.0485 63.1813 79.0067 63.1415C78.9649 63.1017 78.9093 63.0795 78.8516 63.0795C78.7939 63.0795 78.7384 63.1017 78.6965 63.1415C78.6547 63.1813 78.6298 63.2356 78.6269 63.2933C78.3266 67.6706 77.6567 71.6949 75.9762 75.7414C75.3235 75.7414 73.2129 77.0275 69.259 75.3154ZM56.7637 79.4827C56.9932 79.5078 57.2249 79.4623 57.4278 79.3523C57.6308 79.2423 57.7953 79.073 57.8996 78.8671C58.0658 78.5346 57.6353 78.1296 57.3555 78.441C56.6762 79.1967 55.2378 78.2376 55.5093 76.6424C55.8367 74.7208 57.8575 75.2422 57.9705 76.2163C57.9739 76.2957 58.0078 76.3707 58.0651 76.4256C58.1225 76.4806 58.1989 76.5113 58.2783 76.5113C58.3578 76.5113 58.4341 76.4806 58.4915 76.4256C58.5488 76.3707 58.5827 76.2957 58.5861 76.2163C58.6013 75.9473 58.5262 75.6809 58.3728 75.4594C59.8877 74.82 61.4729 74.1113 63.1535 74.1579C64.286 74.2343 65.3787 74.6067 66.3223 75.2378C66.993 75.6255 67.5282 76.2103 67.8549 76.9128C68.0899 77.4297 68.4347 77.8893 68.8653 78.2595C69.2959 78.6297 69.802 78.9017 70.3483 79.0566C72.2649 79.6023 73.9637 78.4515 75.6731 77.7783C75.9795 77.6575 76.1718 79.6245 76.1939 79.7663C76.355 80.992 76.2002 82.2384 75.744 83.3873C75.7409 83.3872 75.7377 83.3878 75.7348 83.389C75.7319 83.3901 75.7292 83.3919 75.727 83.3941C75.7248 83.3963 75.723 83.399 75.7218 83.4019C75.7207 83.4049 75.7201 83.408 75.7202 83.4111C74.182 84.665 71.9817 84.8351 70.064 84.9964C68.337 85.1421 66.6093 85.1382 64.8817 85.115C63.1772 85.168 61.4772 84.9114 59.8644 84.3575C58.8979 83.9781 58.0768 83.3015 57.5196 82.4254C56.9623 81.5493 56.6976 80.5189 56.7637 79.4827Z" fill="#191919"/>
<path d="M53.474 55.2468C53.5565 55.2434 53.6344 55.2082 53.6915 55.1487C53.7486 55.0892 53.7804 55.0099 53.7804 54.9274C53.7804 54.8449 53.7486 54.7656 53.6915 54.7061C53.6344 54.6466 53.5565 54.6114 53.474 54.608C50.4465 54.4838 49.4059 51.243 46.8948 50.0877C46.2395 49.7533 45.4951 49.6351 44.7684 49.7499C44.0418 49.8648 43.3702 50.2069 42.85 50.7271C42.6366 50.9399 42.9608 51.2663 43.1824 51.0596C45.4736 48.8743 48.1027 51.7949 49.6652 53.4261C50.8455 54.6595 51.7464 55.269 53.474 55.2468Z" fill="#191919"/>
<path d="M42.4221 48.4537C42.2808 48.6676 42.5911 48.9075 42.7773 48.738C43.4278 48.1374 44.2843 47.8098 45.1696 47.823C46.0549 47.8362 46.9013 48.1892 47.5336 48.8089C47.5815 48.8517 47.644 48.8744 47.7082 48.8726C47.7724 48.8708 47.8335 48.8444 47.8789 48.799C47.9243 48.7536 47.9506 48.6925 47.9525 48.6284C47.9543 48.5642 47.9315 48.5017 47.8888 48.4537C46.4731 46.8896 43.7054 46.5183 42.4221 48.4537Z" fill="#191919"/>
<path d="M43.4632 46.3725C44.167 45.9694 44.973 45.7802 45.7826 45.8279C46.6814 45.9498 47.1939 46.5792 47.9596 46.9405C48.1707 47.0397 48.5015 46.8241 48.3148 46.5853C48.0302 46.201 47.6695 45.8795 47.2551 45.6409C46.8407 45.4023 46.3815 45.2516 45.9063 45.1983C45.4311 45.145 44.95 45.1902 44.4931 45.3312C44.0361 45.4721 43.6131 45.7057 43.2504 46.0174C43.2258 46.0307 43.2041 46.0488 43.1866 46.0707C43.1692 46.0926 43.1563 46.1178 43.1489 46.1448C43.1415 46.1719 43.1396 46.2001 43.1434 46.2278C43.1472 46.2556 43.1565 46.2823 43.1709 46.3063C43.1853 46.3303 43.2045 46.3512 43.2271 46.3676C43.2498 46.3841 43.2756 46.3957 43.3029 46.4019C43.3302 46.4081 43.3585 46.4087 43.3861 46.4037C43.4136 46.3986 43.4399 46.388 43.4632 46.3725Z" fill="#191919"/>
<path d="M45.6169 44.4321C46.5444 44.1385 47.4615 44.0315 48.2909 44.5984C48.9187 45.0229 49.4843 45.5327 49.9715 46.1132C50.1128 46.2795 50.3472 46.0905 50.3039 45.9238C50.0513 44.9818 49.121 44.2897 48.3159 43.8415C47.4642 43.3672 46.2569 43.6049 45.4523 44.0543C45.2385 44.1479 45.3814 44.5064 45.6169 44.4321Z" fill="#191919"/>
<path d="M53.6397 47.0585C53.3003 46.9251 52.9525 46.814 52.5986 46.7261C52.8935 46.5136 53.1169 46.2166 53.2394 45.8744C53.3619 45.5322 53.3776 45.1608 53.2846 44.8095C53.0402 44 52.2168 43.0918 51.3203 43.2713C51.1064 43.3146 51.1541 43.6736 51.368 43.6498C52.1725 43.626 52.813 44.7862 52.6457 45.496C52.5288 45.9947 52.0068 46.2767 51.6755 46.6081C51.6398 46.6481 51.6146 46.6964 51.6024 46.7486C51.5901 46.8008 51.591 46.8552 51.6051 46.907C51.6192 46.9587 51.646 47.0061 51.683 47.0449C51.7201 47.0836 51.7663 47.1125 51.8173 47.1289C52.3856 47.3529 52.9824 47.4961 53.5904 47.5545C53.6473 47.5464 53.6998 47.5195 53.7395 47.478C53.7793 47.4366 53.8039 47.383 53.8096 47.3258C53.8153 47.2687 53.8017 47.2113 53.7709 47.1628C53.74 47.1144 53.6939 47.0777 53.6397 47.0585Z" fill="#191919"/>
<path d="M62.0645 77.7766C62.321 77.4457 62.4547 77.036 62.443 76.6175C62.443 76.1914 61.9498 76.1188 61.6622 76.3571C61.4444 76.5137 61.283 76.7365 61.2019 76.9923C61.1208 77.248 61.1245 77.5231 61.2123 77.7766C61.2568 77.8498 61.3194 77.9103 61.394 77.9522C61.4686 77.9942 61.5528 78.0162 61.6384 78.0162C61.724 78.0162 61.8082 77.9942 61.8828 77.9522C61.9575 77.9103 62.02 77.8498 62.0645 77.7766Z" fill="#191919"/>
<path d="M66.49 84.0484C67.2275 83.9587 67.9105 83.6138 68.4205 83.0735C68.9306 82.5333 69.2355 81.8316 69.2826 81.0901C69.358 79.3863 67.6757 78.5324 66.2057 78.1789C65.3903 77.9839 64.5368 78.0177 63.7393 78.2767C62.9419 78.5357 62.2313 79.0098 61.686 79.6467C61.4988 79.8611 61.8035 80.1897 62.0185 79.9791C63.6453 78.364 67.1117 77.8947 68.2658 80.3343C69.0266 81.9412 67.3427 83.4117 65.7575 83.2455C64.4083 83.1036 63.652 82.0376 62.9411 80.997C62.6341 80.5471 61.9204 80.9754 62.2313 81.4231C63.2375 82.872 64.5014 84.3032 66.49 84.0484Z" fill="#191919"/>
<path d="M19.9417 32.7886C20.0229 32.834 20.1108 32.866 20.2022 32.8833C20.6028 36.0854 24.836 38.11 27.1366 36.6461C27.1366 36.7015 27.0357 36.5054 28.4852 38.1843C28.4852 38.2081 28.4614 38.2081 28.4614 38.2314C28.4614 39.8172 29.0498 41.6152 28.8404 43.1777C28.7196 44.0764 27.6973 43.8144 27.4203 44.6688C27.3725 44.7638 27.3464 44.8682 27.3437 44.9745C27.3411 45.0808 27.3621 45.1864 27.4051 45.2836C27.4481 45.3809 27.5121 45.4674 27.5925 45.537C27.6729 45.6066 27.7678 45.6575 27.8702 45.6861C28.7451 45.9022 29.4887 44.8887 29.9524 44.2898C30.6888 43.3395 31.6147 41.5969 31.4906 41.4739C31.9174 41.8862 32.3671 42.2741 32.8376 42.6358C32.7976 42.6415 32.758 42.6494 32.719 42.6596C32.515 42.7202 32.3287 42.8294 32.1762 42.9778C32.0237 43.1263 31.9096 43.3095 31.8435 43.5118C31.8271 43.5878 31.8341 43.667 31.8638 43.7389C31.8935 43.8108 31.9444 43.8719 32.0098 43.9141C32.263 44.0772 32.5604 44.1579 32.8613 44.1452C33.1622 44.1325 33.4518 44.027 33.6903 43.8432C35.3188 42.8896 34.5453 41.3575 34.3763 39.867C34.3091 39.245 34.2537 38.6217 34.2101 37.9975C36.0563 37.69 37.9225 38.4325 39.7714 38.4962C44.0496 38.6403 48.0589 36.7869 50.0664 33.0534C50.0664 33.787 50.0897 34.494 50.1373 35.2066C49.0956 35.4199 47.5331 36.2743 48.3388 37.4551C49.069 38.5223 50.6355 37.1487 51.2256 36.5791C52.0323 35.8006 52.3094 34.7556 52.5986 33.6923C53.4785 30.452 54.5778 26.9523 53.9234 23.4921C53.4973 21.2375 49.8281 18.3856 56.5276 13.2447C58.0644 12.0896 59.3388 10.6216 60.2666 8.93782C61.6668 6.3131 60.4561 0.983327 56.9061 0.820425C53.238 0.654199 49.8786 3.80253 49.6641 7.39967C49.5234 9.76618 50.1318 12.1321 50.0193 14.523C49.9052 15.6105 49.9935 16.7097 50.2797 17.765C50.6122 18.7579 51.3685 19.5381 51.6522 20.5354C50.9351 20.3342 50.1799 20.3098 49.4514 20.4645C46.1451 21.0491 43.4672 22.8105 41.216 25.2452C38.5214 28.1591 35.3941 32.1552 30.921 30.7595C30.1165 28.3215 30.2007 25.5294 31.6075 23.328C31.802 23.0239 31.4202 22.7407 31.1576 22.8787C28.9587 23.9657 27.0272 25.5254 25.5015 27.446C24.3757 27.3448 23.2497 27.6385 22.3169 28.2769C21.3841 28.9153 20.7026 29.8585 20.3894 30.9445C19.4663 31.0609 19.3245 32.2677 19.9417 32.7886ZM29.7158 43.4825C29.7047 43.5013 29.6877 43.516 29.6675 43.5245C29.6473 43.5329 29.6249 43.5346 29.6036 43.5294C29.5823 43.5241 29.5633 43.5121 29.5494 43.4951C29.5355 43.4782 29.5274 43.4572 29.5264 43.4354C29.4793 42.725 29.2892 41.9681 29.2188 41.3298C29.123 40.4544 29.077 39.6022 28.9351 38.7256C29.6 39.483 30.2367 40.2638 30.9465 40.9741C30.5976 41.8402 30.1856 42.6795 29.7136 43.4852L29.7158 43.4825ZM51.983 3.75044C53.4009 2.25773 56.8102 0.509027 58.5622 2.35414C59.4128 3.29355 59.9276 4.4886 60.0261 5.75201C60.1246 7.01543 59.8011 8.27581 59.1064 9.33566C58.6665 10.0016 58.159 10.6202 57.592 11.1819C58.5063 7.45397 56.3813 6.2178 53.3555 8.93339C53.3322 7.93935 53.2834 6.4954 52.5748 6.06986C51.9099 5.66925 51.0599 6.2117 50.5158 6.73476C50.6927 5.61479 51.2042 4.57449 51.983 3.75044ZM50.5867 10.0671C50.4752 9.19614 50.4357 8.31752 50.4687 7.44012C50.5377 7.43782 50.6041 7.4129 50.6576 7.3692C51.5569 6.35134 52.2711 6.30313 52.6928 7.60579C52.8394 8.25768 52.8953 8.92668 52.859 9.59386C52.8601 9.64827 52.8772 9.70116 52.9081 9.74592C52.9391 9.79068 52.9826 9.82533 53.0331 9.84555C53.0836 9.86576 53.139 9.87064 53.1923 9.85958C53.2456 9.84852 53.2944 9.82201 53.3328 9.78336C53.8769 9.23869 55.0604 8.12386 55.912 8.19756C57.7588 8.35713 57.1227 10.707 56.7432 11.8656C56.608 12.2751 57.3227 11.4977 54.8737 13.6387C53.1815 15.1198 51.937 17.1649 52.0101 19.2948C51.5115 18.2775 50.8499 17.3073 50.7795 16.1C50.6565 14.0449 50.8122 12.1055 50.5867 10.0693V10.0671ZM25.5015 27.8893C25.9602 27.8854 27.2895 25.8347 30.6606 23.8899C29.7607 26.2331 29.4593 28.5343 30.2816 31.0609C30.2982 31.1174 30.3288 31.1688 30.3705 31.2104C30.4122 31.252 30.4637 31.2824 30.5202 31.299C30.5767 31.3155 30.6365 31.3176 30.694 31.3051C30.7516 31.2925 30.805 31.2657 30.8495 31.2271C36.719 33.5698 40.2601 26.4115 44.1969 23.512C45.5221 22.5306 47.025 21.8155 48.6224 21.4065C49.4536 21.1959 50.8709 20.7909 51.6755 21.1931C51.7226 21.217 51.7464 21.2408 51.7935 21.2641C51.816 21.3316 51.8567 21.3916 51.911 21.4375C51.9653 21.4834 52.0313 21.5135 52.1016 21.5245C52.5474 21.976 52.8798 22.5266 53.0718 23.1313C53.1774 23.6451 53.225 24.169 53.2136 24.6933C53.3854 28.4318 52.2434 32.0766 51.1546 35.6028C51.0837 35.7213 50.8942 35.7213 50.8942 35.5318C50.8942 33.1182 50.8322 30.7977 51.0366 28.3841C51.0344 28.3274 51.0124 28.2732 50.9746 28.2309C50.9367 28.1887 50.8852 28.1609 50.8291 28.1525C50.773 28.1441 50.7157 28.1556 50.667 28.1849C50.6184 28.2142 50.5816 28.2596 50.5629 28.3132C50.294 29.4624 50.1434 30.6362 50.1135 31.8161C50.0415 31.8002 49.9662 31.8105 49.9011 31.8451C49.836 31.8797 49.7853 31.9365 49.7583 32.0051C49.115 33.4144 48.1469 34.6513 46.9334 35.6144C45.7199 36.5775 44.2955 37.2395 42.7768 37.546C39.0002 38.397 36.5544 37.0473 34.2095 37.5692C34.1819 37.3019 34.1662 37.0334 34.1624 36.7647C34.1596 36.7101 34.136 36.6586 34.0963 36.6209C34.0567 36.5832 34.0041 36.5622 33.9494 36.5622C33.8947 36.5622 33.8421 36.5832 33.8024 36.6209C33.7628 36.6586 33.7391 36.7101 33.7363 36.7647C33.7247 37.8064 33.7191 38.847 33.8072 39.9125C33.8327 40.22 34.2095 42.4208 34.0915 42.5167C33.7125 42.7295 31.6064 40.6234 31.5355 40.5995C30.1863 39.2032 29.0266 37.6629 27.4906 36.4583C27.5616 36.4106 27.6092 36.3635 27.6801 36.3164C27.9167 36.1031 27.6131 35.7313 27.3477 35.8903C25.0859 37.2501 21.5602 35.7884 20.9818 33.1448C20.3108 30.0813 22.7083 27.9131 25.5015 27.8893Z" fill="#191919"/>
<path d="M23.3716 31.984C23.5843 32.102 23.8448 31.984 24.0575 31.9125C24.4127 31.8183 24.7911 31.7236 25.1463 31.605C25.2216 31.5829 25.2851 31.5319 25.3228 31.463C25.3604 31.3942 25.3692 31.3132 25.3472 31.2379C25.3251 31.1626 25.2741 31.0991 25.2052 31.0614C25.1364 31.0238 25.0554 31.015 24.9801 31.037C23.8132 31.3418 23.8719 31.3883 23.6547 31.4155C23.5556 31.1861 23.4765 30.9486 23.4181 30.7057C23.3411 30.4769 23.246 30.2546 23.1339 30.0408C22.9959 29.802 22.6801 29.9704 22.7083 30.2303C22.7713 30.6108 22.8744 30.9835 23.0158 31.3423C23.1111 31.5579 23.1582 31.8654 23.3716 31.984Z" fill="#191919"/>
<path d="M26.5908 28.7892C26.9237 28.3444 27.3229 27.9533 27.7743 27.6294C27.6801 28.1526 27.6326 28.6831 27.6325 29.2147C27.6325 29.3029 27.6675 29.3874 27.7298 29.4498C27.7922 29.5121 27.8767 29.5471 27.9649 29.5471C28.0531 29.5471 28.1376 29.5121 28.2 29.4498C28.2623 29.3874 28.2974 29.3029 28.2974 29.2147C28.2926 28.4731 28.3801 27.7338 28.5578 27.0139C28.5748 26.9523 28.5729 26.8871 28.5523 26.8266C28.5317 26.7662 28.4933 26.7134 28.4422 26.6751C28.3911 26.6368 28.3296 26.6148 28.2658 26.6119C28.202 26.6091 28.1389 26.6256 28.0846 26.6592C27.3295 27.1588 26.6722 27.7924 26.1453 28.5287C25.9497 28.788 26.3996 29.0485 26.5908 28.7892Z" fill="#191919"/>
<path d="M24.3649 26.1855C24.3877 26.4697 24.842 26.4936 24.8387 26.1855C24.8054 23.4389 24.4176 18.1307 24.34 17.3112C32.1039 13.5007 40.3814 10.794 48.0783 6.87441C48.5027 6.65831 48.1265 6.04826 47.6993 6.23554C39.8838 9.66036 31.8906 12.8846 24.2707 16.7665C24.0447 15.1104 23.9344 15.2284 24.0103 15.2284C32.3044 11.1527 40.868 7.64988 49.6408 4.74449C50.1605 4.57826 49.9273 3.75766 49.4275 3.93995C40.715 7.11876 32.1039 10.5663 23.8679 14.85C23.8246 14.81 23.7707 14.7831 23.7126 14.7727C23.6546 14.7622 23.5947 14.7685 23.5401 14.7908C23.4855 14.8132 23.4384 14.8506 23.4043 14.8988C23.3702 14.9469 23.3505 15.0038 23.3476 15.0627C23.3238 16.9089 23.7505 18.7995 23.9156 20.6241C24.0824 22.467 24.2164 24.3166 24.3649 26.1855Z" fill="#191919"/>
<path d="M54.3969 27.369C54.3716 27.4196 54.3611 27.4763 54.3667 27.5326C54.3723 27.5889 54.3937 27.6425 54.4285 27.6871C54.4633 27.7317 54.5101 27.7655 54.5633 27.7846C54.6166 27.8037 54.6742 27.8074 54.7294 27.7951C55.1202 27.6299 55.4742 27.3884 55.7705 27.0847C56.1279 26.8044 56.4847 26.5467 56.8593 26.2564C56.9123 26.2162 56.9503 26.1595 56.9674 26.0953C56.9845 26.031 56.9796 25.9629 56.9535 25.9018C56.9535 23.9846 56.7163 22.0442 56.5989 20.1271C56.4797 18.1877 56.5108 16.2185 56.2437 14.282C56.2437 14.2158 56.2174 14.1524 56.1707 14.1057C56.1239 14.0589 56.0605 14.0326 55.9944 14.0326C55.9282 14.0326 55.8648 14.0589 55.8181 14.1057C55.7713 14.1524 55.745 14.2158 55.745 14.282C55.4893 18.1919 55.64 22.1178 56.1949 25.9965C55.9107 26.1627 55.6276 26.329 55.3638 26.5168C55.0369 26.7551 54.5593 27.0105 54.3969 27.369Z" fill="#191919"/>
<path d="M42.4929 46.7272C41.0384 47.7174 39.5563 48.6427 38.0436 49.5436C36.6938 50.3471 35.2272 51.6492 33.7367 52.1235C33.2158 52.2897 33.5239 52.9513 33.9262 52.8571C35.9375 53.6882 38.1638 54.1315 40.2428 54.7028C41.5172 55.0541 43.2465 55.6713 44.6683 55.9805C45.1289 56.1527 45.6246 56.2098 46.1122 56.1467C46.3495 56.0349 46.5657 55.8829 46.7511 55.6973C47.0836 55.4608 47.3955 55.2086 47.7451 54.9876C48.2608 54.6678 48.7585 54.32 49.2362 53.9459C49.4728 53.7569 49.1653 53.4018 48.9037 53.5203C48.3358 53.8279 47.7956 54.1642 47.247 54.5138C46.809 54.7338 46.403 55.0125 46.0402 55.3422C44.1707 54.7271 42.1566 54.3803 40.2655 53.9015C38.3467 53.4128 36.4318 52.8366 34.5146 52.4343C35.651 51.535 37.1604 50.8408 38.3489 50.044C39.8095 49.0644 41.3271 48.1545 42.7262 47.1073C42.9456 46.9444 42.7317 46.5649 42.4929 46.7272Z" fill="#191919"/>
<path d="M60.1005 36.8589C62.0176 37.4268 67.9807 39.0852 68.7149 39.2969C68.7514 39.3074 68.7841 39.3284 68.8089 39.3572C68.8337 39.386 68.8495 39.4214 68.8545 39.4591C68.8595 39.4967 68.8534 39.5351 68.837 39.5693C68.8206 39.6036 68.7945 39.6323 68.762 39.652C65.5483 41.7315 62.3684 43.8349 59.3198 46.1127C59.1297 46.2546 59.3198 46.6114 59.5087 46.4452C62.964 44.031 70.135 39.5822 70.2292 39.0376C70.2292 38.8248 69.259 38.6829 68.9044 38.5882C67.9336 38.3283 61.9323 36.7486 59.8639 36.2926C59.7459 36.2666 52.2845 40.476 48.6464 42.5876C48.4076 42.7261 48.6226 43.0613 48.8592 42.9428C52.6247 41.0522 60.0534 36.906 60.1005 36.8589Z" fill="#191919"/>
<path d="M58.0414 26.1384C63.0055 23.1602 68.2865 20.7327 73.306 17.8553C73.5914 17.6891 73.3315 17.2913 73.0456 17.4292C67.8493 19.9387 62.7844 22.8338 57.8525 25.8309C57.6613 25.9467 57.8503 26.2531 58.0414 26.1384Z" fill="#191919"/>
<path d="M43.2743 70.18C47.0421 68.7948 48.4317 67.7781 62.3011 60.4281C64.144 59.4518 66.147 58.5996 67.8625 57.3989C67.9295 57.3555 67.9774 57.2883 67.9965 57.2108C68.0155 57.1333 68.0043 57.0515 67.965 56.982C67.9257 56.9125 67.8614 56.8607 67.7852 56.837C67.709 56.8134 67.6267 56.8197 67.555 56.8548C65.2716 57.8006 59.3794 61.6809 43.2266 69.6104C43.0848 66.84 42.9662 64.0961 42.8482 61.3274C46.232 59.9078 49.2075 57.4792 52.5746 55.9317C52.8345 55.8125 52.6467 55.3909 52.3851 55.4823C48.8739 56.7096 46.0192 59.3609 42.5878 60.7833H42.5639C27.6966 60.6591 12.0935 56.6725 6.56869 55.5748C5.12529 55.2889 3.53949 55.433 2.14318 55.0069C3.58658 54.0367 5.03608 53.0521 6.52048 52.1201C6.57383 52.0887 6.61252 52.0374 6.62806 51.9775C6.64359 51.9176 6.63469 51.854 6.60332 51.8007C6.57194 51.7473 6.52066 51.7086 6.46076 51.6931C6.40085 51.6775 6.33723 51.6864 6.28389 51.7178C4.71692 52.672 1.1486 54.7941 1.1486 54.9836C0.577885 62.8157 0.690365 71.8611 1.1486 76.5194C1.15146 76.577 1.17638 76.6314 1.2182 76.6712C1.26003 76.711 1.31555 76.7332 1.37328 76.7332C1.43101 76.7332 1.48653 76.711 1.52835 76.6712C1.57018 76.6314 1.5951 76.577 1.59796 76.5194C1.65725 72.9444 1.52704 69.3484 1.52704 65.7512C1.52704 62.2488 1.57469 58.7697 1.59796 55.2673C2.85242 55.8829 4.22434 55.7449 5.59793 55.9538C7.82813 56.2924 27.0594 61.288 42.3506 61.4443C42.3229 64.7339 42.5213 70.1213 42.5396 70.1767C43.015 80.3115 43.0842 83.9137 43.6993 87.8316C43.7441 88.1159 44.1719 88.0206 44.173 87.7602C44.1857 83.1596 43.7885 80.6429 43.2743 70.18Z" fill="#191919"/>
<path d="M77.6129 54.9155C79.4336 56.3855 80.7329 58.8423 82.1802 60.6664C82.3897 60.9301 82.8451 60.6897 82.654 60.406C81.6674 58.9418 80.6734 57.4827 79.6719 56.0287C79.1691 55.1512 78.483 54.3924 77.6605 53.804C75.6924 52.6266 73.7863 54.1149 72.9746 55.9095C70.4878 61.41 70.1155 68.3621 70.7261 74.2499C70.7926 74.8898 71.8127 74.9148 71.744 74.2499C71.2646 69.5128 71.5845 64.7289 72.6903 60.0979C73.1707 58.065 74.51 52.411 77.6129 54.9155Z" fill="#191919"/>
<path d="M81.2793 64.7605C83.3704 69.9906 83.6126 71.8861 84.7822 73.1854C86.06 74.6056 87.4618 73.5678 88.3085 72.2629C89.3526 70.5974 90.2398 68.8385 90.9587 67.009C91.1038 66.6555 90.4921 66.3962 90.3436 66.7486C89.8731 67.8107 89.3437 68.8457 88.7578 69.8487C88.3334 70.6067 87.4807 72.5244 86.6279 72.8308C85.3037 73.3062 84.493 70.6078 84.1667 69.7307C82.623 65.575 81.4317 61.4814 79.5993 59.6491C79.2243 59.2176 78.7206 58.918 78.1625 58.7944C77.6044 58.6708 77.0213 58.7298 76.4992 58.9626C75.201 59.6319 74.9416 61.1878 74.8425 62.4888C74.6618 64.8558 74.5754 67.2451 74.464 69.6121C74.4136 70.6771 73.4994 73.2237 74.653 73.9667C75.3428 74.41 75.4043 72.2629 75.4104 71.9786C75.4697 69.35 75.7534 66.7015 75.7656 64.0746C75.77 63.0329 75.6719 61.8743 76.144 60.903C78.0202 57.0482 80.6582 63.2019 81.2793 64.7605Z" fill="#191919"/>
<path d="M88.2155 76.7593C86.1376 78.0215 84.3113 77.35 82.725 75.6705C81.4949 74.3684 81.122 72.7555 80.2161 71.2688C80.0282 70.9602 79.626 71.1741 79.672 71.5054C80.1601 75.0294 83.6492 79.8168 87.6708 78.1789C91.3876 76.6673 93.891 72.3803 94.0134 68.4762C94.0328 67.8606 93.1341 67.8839 93.0665 68.4762C92.6936 71.7869 91.1566 74.9718 88.2155 76.7593Z" fill="#191919"/>
<path d="M72.4539 30.6819C72.6445 30.6137 72.5503 30.2508 72.2173 30.1616C70.6148 29.7322 68.5603 29.7876 67.84 31.6288C67.1884 33.2911 68.5969 34.5871 70.0641 35.0132C71.697 35.4864 74.1643 35.7257 75.3418 34.2319C75.5779 33.9371 75.7318 33.585 75.7877 33.2115C75.8437 32.8379 75.7997 32.4562 75.6603 32.1052C75.5208 31.7541 75.2909 31.4463 74.9939 31.2129C74.6969 30.9796 74.3434 30.829 73.9693 30.7766C73.6618 30.7284 73.398 31.185 73.7327 31.3446C74.2486 31.5911 75.1091 32.7176 75.0813 33.2617C75.0259 34.3067 72.9631 35.0991 70.514 34.4685C70.3251 34.4198 70.1588 34.3505 69.9699 34.3023C69.9699 34.2552 69.9932 34.2314 69.9699 34.1843C69.8037 33.2612 69.7327 32.5746 70.4192 31.8178C70.9395 31.1556 71.7003 30.9528 72.4539 30.6819ZM71.6493 30.4458C71.0011 30.6149 70.4117 30.9587 69.9455 31.4399C69.6205 31.2311 69.2707 31.0636 68.9044 30.9412C69.5881 30.3273 70.7262 30.3273 71.6493 30.4458ZM68.5254 31.4637C68.8953 31.5855 69.252 31.744 69.5903 31.9369C69.2229 32.5037 69.0874 33.1901 69.2119 33.854C68.8151 33.6174 68.5232 33.2385 68.3957 32.7944C68.2682 32.3503 68.3146 31.8743 68.5254 31.4631V31.4637Z" fill="#191919"/>
<path d="M27.1815 39.7462C23.7461 41.7543 20.3895 43.9351 17.0289 46.0412C16.8937 44.7458 16.5418 43.4822 15.9878 42.3034C15.9878 42.2795 15.964 42.2795 15.964 42.2557C16.0094 41.5708 15.017 41.2993 14.3571 41.1669C15.2326 40.1258 16.5114 39.3938 17.2206 38.2303C18.3294 36.4991 18.8597 34.4605 18.735 32.4084C18.6895 31.6277 18.4191 30.5833 18.7111 29.8292C18.9089 29.3194 19.7423 29.039 20.0842 26.729C20.2504 25.6164 20.1324 22.9169 18.9006 22.3268C17.8601 21.8281 16.3707 23.4904 15.8476 24.1969C15.3064 24.9385 14.9496 25.7983 14.8065 26.7052C14.5954 28.0306 15.0453 29.3798 14.6403 30.6808C14.2873 31.8178 13.7753 32.5736 13.8595 33.8286C13.8861 34.2308 13.9604 34.632 14.0258 35.0354C14.2363 36.3574 14.2142 36.6677 13.5049 37.7809C12.8518 38.7204 12.4523 39.8127 12.3452 40.9519C12.0615 40.9281 11.7773 40.9281 11.4936 40.9281C12.0139 38.7511 13.3393 36.5264 11.8482 34.586C13.3631 32.2428 14.6186 28.1963 12.369 26.0187C12.9592 25.3712 13.3597 24.5736 13.5267 23.7136C13.6936 22.8535 13.6205 21.964 13.3154 21.1427C13.0539 20.4568 11.7756 19.3203 11.8249 18.7047C11.8476 18.4205 12.3236 17.8736 12.44 17.545C12.7054 16.7695 12.7816 15.9417 12.6622 15.1307C12.5428 14.3197 12.2312 13.549 11.7535 12.8829C11.1368 12.0319 10.8309 12.1017 10.878 10.8478C10.9251 9.59386 11.0204 6.9891 9.198 6.82453C7.35177 6.6583 6.59822 9.73627 6.31064 11.0356C5.94384 12.6934 5.3892 15.045 5.55321 16.479C5.64518 17.2835 6.0951 18.1822 5.93165 18.9873C5.69173 20.1697 4.86835 21.1172 4.72484 22.3955C4.57341 23.4294 4.82797 24.4818 5.43518 25.3322C5.61859 25.5732 5.83634 25.7588 6.0264 25.971C6.73231 26.7562 6.55001 27.108 6.19262 28.0766C5.34653 30.3694 4.95645 32.6506 6.35885 34.6558C6.57328 34.9622 7.4432 35.6266 7.51856 36.0045C7.60832 36.4555 6.97887 37.2833 6.90352 37.8031C6.70294 39.1777 7.49473 40.2172 8.53642 41.0722C8.16871 41.1575 7.81704 41.3012 7.49473 41.4977C7.2752 41.6037 7.0976 41.7803 6.9904 41.9992C6.8832 42.2181 6.8526 42.4667 6.90352 42.7051C5.53049 44.5036 6.09566 48.149 6.73729 50.065C7.51302 52.3855 8.9143 53.8051 11.4703 53.8749C15.8958 53.9957 17.2921 50.2307 17.0079 46.515C20.6257 44.6848 24.098 42.5801 27.3943 40.2194C27.7051 39.9862 27.4652 39.58 27.1815 39.7462ZM14.7804 37.2612C15.3899 35.7435 14.2263 33.8984 14.7095 32.2915C14.9655 31.4382 15.4093 30.7994 15.4908 29.9012C15.5955 28.7404 15.3002 27.6056 15.5617 26.4697C15.7962 25.526 16.2878 24.6658 16.9818 23.9846C17.4074 23.5586 18.0933 22.8731 18.7327 23.4644C19.0403 23.748 19.1428 24.6224 19.2059 25.0025C19.3643 25.9615 19.2491 26.9457 18.8735 27.8422C18.5865 28.5509 17.9249 29.0723 17.6667 29.7815C17.4523 30.3727 17.7116 31.1784 17.7614 31.7696C17.8722 33.0955 17.9786 34.5168 17.3592 35.7457C16.63 37.1913 16.0665 38.335 14.827 39.4371C14.2665 39.9022 13.7657 40.4348 13.3359 41.0229C13.1941 40.999 13.0522 40.999 12.9337 40.9758C13.1359 38.6608 14.3117 38.4336 14.7804 37.2612ZM8.36742 35.7939C8.31755 35.0841 7.70251 34.9417 7.25481 34.4447C6.11948 33.1903 6.11117 31.39 6.4741 29.8303C6.70571 28.8329 7.56288 27.6294 7.56288 26.6116C7.56288 25.5704 6.54779 25.4979 6.02418 24.7183C4.39959 22.2991 7.13236 20.0329 6.63977 17.5705C6.32811 16.0841 6.36052 14.5461 6.73452 13.0741C6.99605 11.844 7.13679 10.1374 7.82275 9.02925C8.107 8.15323 8.84061 7.98812 10.0236 8.55606C10.5151 10.1119 9.92164 10.8367 9.95267 11.6795C9.97982 12.4131 10.4929 12.5593 10.9705 13.1234C11.3964 13.6452 11.6935 14.2598 11.8379 14.9176C11.9822 15.5754 11.9698 16.2579 11.8017 16.91C11.6271 17.5705 10.8043 18.3063 10.8547 18.9923C10.8996 19.6079 11.8704 20.177 12.1801 20.649C12.6823 21.4424 12.8886 22.3876 12.7626 23.3181C12.6367 24.2486 12.1865 25.1048 11.4914 25.7361C11.4468 25.7829 11.4133 25.8391 11.3936 25.9007C11.3738 25.9622 11.3683 26.0274 11.3773 26.0914C11.3864 26.1554 11.4098 26.2165 11.4459 26.2701C11.482 26.3237 11.5297 26.3685 11.5856 26.401C13.9809 28.2245 12.3103 32.4456 10.9705 34.3527C10.9229 34.435 10.9041 34.5308 10.9169 34.625C10.9297 34.7192 10.9736 34.8065 11.0414 34.873C12.4727 36.5148 11.2542 38.7782 10.6863 40.8605C10.308 40.8367 9.92865 40.8367 9.5504 40.8605C6.20038 38.412 8.48599 37.4828 8.36742 35.7939ZM11.7512 53.1169C9.19578 53.1169 7.91584 51.6032 7.23154 49.307C6.70959 47.5561 6.37935 44.8344 7.27864 43.0591C9.33763 44.1717 12.2272 44.0886 14.0939 43.7456C14.6158 43.6421 15.099 43.3965 15.4902 43.0359C17.076 46.6807 17.0289 53.1169 11.7512 53.1169Z" fill="#69B93F"/>
</svg>
