<?xml version="1.0" ?>
<!-- Uploaded to: SVG Repo, www.svgrepo.com, Generator: SVG Repo Mixer Tools -->
<svg width="800px" height="800px" viewBox="0 0 512 512" id="Layer_1" version="1.1" xml:space="preserve" xmlns="http://www.w3.org/2000/svg" xmlns:xlink="http://www.w3.org/1999/xlink">
<style type="text/css">
	.st0{fill:#6040EC;}
	.st1{fill:#0BDC49;}
</style>
<g>
<path class="st1" d="M458.2,355h-60.4v-57c0-6.5-5.3-11.7-11.8-11.7c-6.5,0-11.8,5.3-11.8,11.7v57H314c-6.5,0-11.8,5.3-11.8,11.7   s5.3,11.7,11.8,11.7h60.4v57c0,6.5,5.3,11.7,11.8,11.7c6.5,0,11.8-5.3,11.8-11.7v-57h60.4c6.5,0,11.8-5.3,11.8-11.7   S464.7,355,458.2,355z"/>
<path class="st0" d="M372.1,58.9H70c-15.4,0-28,12.8-28,28.4v50.4c0,6.5,5.3,11.7,11.8,11.7c6.5,0,11.8-5.3,11.8-11.7V87.3   c0-2.7,2-4.9,4.5-4.9h139.5c-0.1,0.7-0.2,1.4-0.2,2.1v357c0,6.5,5.3,11.7,11.8,11.7s11.8-5.3,11.8-11.7v-357c0-0.7-0.1-1.4-0.2-2.1   h139.5c2.5,0,4.5,2.2,4.5,4.9v50.1c0,6.5,5.3,11.7,11.8,11.7c6.5,0,11.8-5.3,11.8-11.7V87.3C400.1,71.6,387.5,58.9,372.1,58.9z"/>
</g>
</svg>