<svg width="154" height="154" viewBox="0 0 154 154" fill="none" xmlns="http://www.w3.org/2000/svg">
<path d="M94.2742 60.5604C94.8716 60.1038 95.573 59.8026 96.3156 59.6838C97.0581 59.5649 97.8184 59.6323 98.5285 59.8797C97.2842 55.2854 96.0185 50.0786 92.8699 46.6053C92.4449 46.1581 89.8706 43.5424 86.6798 43.0524C84.8834 42.8019 83.0555 42.9031 81.2976 43.3502C79.149 43.8609 78.6598 44.3288 78.064 45.2224C77.393 46.3232 76.796 47.4674 76.2769 48.6474C76.8037 48.6474 80.5817 46.691 84.8077 47.7324C89.807 48.9453 90.8277 51.8167 91.5299 53.0717C92.58 55.5162 93.4962 58.0162 94.2742 60.5604Z" fill="#EF8828"/>
<path d="M53.4301 60.8369C53.0473 60.8545 52.6851 60.8583 52.3022 60.8583C52.1108 60.3476 51.9194 59.8369 51.7065 59.3476C51.5365 58.9433 50.8979 58.8369 50.7923 59.3476C50.6866 59.8583 50.5794 60.3476 50.4515 60.8369C49.9155 60.8155 49.3665 60.794 48.8351 60.7519C48.722 60.7567 48.6135 60.7977 48.5254 60.8688C48.4374 60.9398 48.3744 61.0373 48.3458 61.1467C48.3172 61.2562 48.3244 61.372 48.3665 61.4771C48.4085 61.5821 48.4831 61.671 48.5793 61.7305C49.0265 61.964 49.4729 62.1983 49.8987 62.4533C49.6567 62.9305 49.512 63.4511 49.4729 63.9848C49.3665 64.389 49.9622 64.6861 50.303 64.4097C50.7065 64.1119 51.0894 63.7972 51.4937 63.4955C51.8558 63.7504 52.1958 64.0269 52.5572 64.3033C52.9194 64.6012 53.6422 64.3247 53.4301 63.7933C53.2594 63.3247 53.068 62.8569 52.8941 62.4104C53.1491 62.219 53.4301 62.0061 53.6813 61.8147C54.0465 61.4962 53.983 60.8109 53.4301 60.8369Z" fill="#EF8828"/>
<path d="M46.9198 61.3476C46.4932 61.3546 46.0672 61.3829 45.6434 61.4326C45.5163 61.0918 45.4137 60.7518 45.3034 60.4111C45.2719 60.3028 45.2062 60.2077 45.116 60.14C45.0258 60.0723 44.9161 60.0357 44.8034 60.0357C44.6906 60.0357 44.5809 60.0723 44.4907 60.14C44.4006 60.2077 44.3348 60.3028 44.3034 60.4111C44.2184 60.8154 44.1119 61.2197 44.0055 61.6025C43.4693 61.6703 42.9295 61.7058 42.3891 61.709C41.8784 61.709 41.6019 62.4961 42.1119 62.7297C42.5162 62.9219 42.9419 63.1125 43.3462 63.3047C43.1321 63.7446 43.0022 64.2206 42.9634 64.7083C42.9652 64.7839 42.9893 64.8573 43.0328 64.9193C43.0763 64.9812 43.1371 65.0288 43.2077 65.0562C43.2782 65.0836 43.3553 65.0894 43.4291 65.073C43.503 65.0566 43.5703 65.0187 43.6226 64.964C44.0484 64.6447 44.4734 64.3683 44.8991 64.0276C45.282 64.1975 45.6648 64.389 46.0477 64.5636C46.1518 64.6189 46.271 64.6394 46.3876 64.6219C46.5043 64.6044 46.6122 64.55 46.6956 64.4665C46.7789 64.3831 46.8333 64.2751 46.8506 64.1584C46.868 64.0418 46.8474 63.9226 46.7919 63.8185C46.6208 63.5181 46.4577 63.2133 46.3026 62.9043C46.6005 62.67 46.8777 62.4571 47.1962 62.245C47.285 62.187 47.3525 62.1017 47.3885 62.002C47.4245 61.9023 47.4271 61.7935 47.3959 61.6922C47.3647 61.5909 47.3014 61.5024 47.2155 61.4403C47.1296 61.3781 47.0258 61.3456 46.9198 61.3476Z" fill="#EF8828"/>
<path d="M39.9428 61.5176C39.4964 61.5467 39.0706 61.5811 38.6234 61.6026C38.4106 61.1768 38.1977 60.7304 37.9856 60.3047C37.7942 59.9004 37.2406 60.0711 37.1135 60.4111C36.9603 60.8369 36.8156 61.2833 36.6663 61.7128C36.092 61.755 35.5177 61.7764 34.9434 61.7978C34.5177 61.8193 34.2413 62.4786 34.7091 62.67C35.1134 62.8614 35.5391 63.0314 35.9641 63.2228C35.7642 63.6457 35.6074 64.0878 35.4963 64.5422C35.4657 64.6326 35.4636 64.7302 35.4901 64.8218C35.5166 64.9135 35.5705 64.9949 35.6446 65.0551C35.7186 65.1152 35.8094 65.1513 35.9045 65.1584C35.9997 65.1656 36.0948 65.1434 36.177 65.095C36.1984 65.0736 37.3684 64.2872 37.7727 64.01C38.2406 64.2228 38.687 64.4357 39.1342 64.67C39.2233 64.7208 39.3267 64.7409 39.4283 64.7272C39.53 64.7135 39.6243 64.6667 39.6968 64.5942C39.7693 64.5216 39.816 64.4272 39.8295 64.3255C39.8431 64.2238 39.8229 64.1205 39.772 64.0314C39.6235 63.6914 39.4535 63.3507 39.3042 62.9893C39.602 62.7979 39.8999 62.6064 40.1978 62.3936C40.2853 62.3389 40.3527 62.257 40.3895 62.1606C40.4263 62.0641 40.4306 61.9582 40.4018 61.8591C40.3729 61.7599 40.3125 61.6729 40.2296 61.6113C40.1468 61.5496 40.046 61.5167 39.9428 61.5176Z" fill="#EF8828"/>
<path d="M124.376 22.7579C124.014 22.7395 123.652 22.715 123.312 22.715C123.142 22.1836 122.993 21.6515 122.823 21.1201C122.794 21.0209 122.734 20.9337 122.652 20.8717C122.569 20.8097 122.469 20.7761 122.365 20.7761C122.262 20.7761 122.162 20.8097 122.079 20.8717C121.997 20.9337 121.937 21.0209 121.908 21.1201C121.759 21.6093 121.61 22.0772 121.482 22.5665C120.972 22.5029 120.487 22.4601 119.972 22.3751C119.851 22.3474 119.725 22.3633 119.614 22.4198C119.504 22.4763 119.417 22.5699 119.369 22.6841C119.32 22.7983 119.314 22.9259 119.35 23.0444C119.387 23.1629 119.464 23.2648 119.568 23.3322C119.993 23.588 120.397 23.8682 120.801 24.1408C120.521 24.6247 120.34 25.1601 120.27 25.7151C120.27 25.8001 120.568 26.5229 120.993 26.1615C121.411 25.8392 121.852 25.5477 122.312 25.2894C122.652 25.5872 122.993 25.8851 123.333 26.2082C123.415 26.288 123.521 26.3386 123.635 26.3524C123.749 26.3661 123.864 26.3422 123.963 26.2842C124.062 26.2263 124.139 26.1376 124.183 26.0316C124.227 25.9257 124.234 25.8083 124.205 25.6975C124.078 25.2296 123.929 24.7786 123.802 24.3146C124.078 24.1232 124.376 23.9318 124.652 23.7403C124.747 23.6776 124.819 23.5865 124.859 23.4802C124.898 23.3738 124.903 23.2576 124.872 23.1484C124.841 23.0391 124.777 22.9425 124.688 22.8723C124.598 22.8021 124.489 22.7621 124.376 22.7579Z" fill="#EF8828"/>
<path d="M117.866 22.7793C117.441 22.7495 117.036 22.7579 116.611 22.7579C116.504 22.3965 116.419 22.0343 116.334 21.6729C116.303 21.5646 116.237 21.4695 116.147 21.4018C116.057 21.3341 115.947 21.2975 115.834 21.2975C115.721 21.2975 115.612 21.3341 115.522 21.4018C115.431 21.4695 115.366 21.5646 115.334 21.6729C115.228 22.0557 115.105 22.4386 114.973 22.8008C114.42 22.825 113.866 22.8179 113.313 22.7793C113.195 22.7831 113.081 22.8248 112.988 22.8983C112.895 22.9717 112.829 23.0731 112.798 23.1874C112.767 23.3017 112.773 23.4229 112.816 23.5332C112.859 23.6435 112.937 23.737 113.037 23.8C113.441 24.0344 113.866 24.2687 114.271 24.5022C114.095 24.9156 113.932 25.3341 113.781 25.7572C113.653 26.1401 114.164 26.3744 114.441 26.1401C114.505 26.0765 115.359 25.4808 115.654 25.2894C116.036 25.5022 116.441 25.7365 116.824 25.9486C116.928 26.0024 117.046 26.0216 117.162 26.0036C117.278 25.9856 117.385 25.9313 117.468 25.8484C117.551 25.7656 117.605 25.6586 117.623 25.5428C117.641 25.4271 117.622 25.3086 117.569 25.2044C117.419 24.9065 117.291 24.5872 117.164 24.2893C117.483 24.0772 117.802 23.8858 118.121 23.6936C118.568 23.4601 118.334 22.8123 117.866 22.7793Z" fill="#EF8828"/>
<path d="M111.105 23.0343H109.803C109.633 22.6093 109.463 22.205 109.293 21.7793C109.165 21.4385 108.612 21.2433 108.421 21.6729L107.846 23.0129C107.272 23.0129 106.676 22.9922 106.102 22.9707C106 22.9728 105.902 23.0078 105.821 23.0706C105.741 23.1333 105.684 23.2205 105.657 23.3188C105.631 23.4172 105.637 23.5215 105.675 23.616C105.713 23.7105 105.781 23.7901 105.868 23.8429C106.25 24.0558 106.655 24.2686 107.038 24.4601C106.831 24.8611 106.647 25.2729 106.485 25.6936C106.44 25.7851 106.426 25.8884 106.443 25.9887C106.461 26.0889 106.51 26.181 106.583 26.2518C106.656 26.3226 106.75 26.3684 106.851 26.3827C106.951 26.397 107.054 26.3791 107.144 26.3315C107.166 26.3108 108.357 25.6301 108.783 25.3958L110.123 26.1615C110.204 26.2079 110.297 26.2294 110.391 26.2233C110.484 26.2172 110.574 26.1838 110.649 26.1272C110.723 26.0706 110.78 25.9933 110.811 25.9049C110.842 25.8166 110.847 25.721 110.824 25.6301C110.697 25.2472 110.548 24.8644 110.399 24.4815C110.718 24.3115 111.037 24.1201 111.356 23.9501C111.444 23.8919 111.511 23.8075 111.548 23.709C111.585 23.6105 111.59 23.5029 111.562 23.4014C111.534 23.3 111.475 23.2099 111.393 23.144C111.311 23.0781 111.21 23.0397 111.105 23.0343Z" fill="#EF8828"/>
<path d="M98.4012 23.8429C98.784 24.0512 99.1883 24.2687 99.5712 24.4601C99.3652 24.8613 99.1804 25.2731 99.0176 25.6936C98.9727 25.7852 98.9581 25.8886 98.9757 25.9891C98.9933 26.0895 99.0423 26.1817 99.1156 26.2526C99.1889 26.3234 99.2828 26.3692 99.3838 26.3834C99.4847 26.3976 99.5876 26.3794 99.6776 26.3315C100.22 26.0128 100.766 25.7009 101.315 25.3958L102.655 26.1615C102.737 26.2081 102.83 26.2298 102.924 26.2238C103.018 26.2179 103.107 26.1845 103.182 26.1279C103.257 26.0712 103.314 25.9938 103.345 25.9053C103.376 25.8168 103.38 25.7211 103.358 25.6301C103.23 25.2472 103.081 24.8644 102.932 24.4815C103.251 24.3115 103.57 24.1201 103.89 23.9501C103.981 23.8934 104.051 23.8086 104.09 23.7085C104.129 23.6084 104.135 23.4984 104.106 23.3949C104.077 23.2914 104.016 23.2001 103.931 23.1345C103.845 23.0689 103.741 23.0327 103.634 23.0313H102.336C102.166 22.6063 101.996 22.202 101.826 21.7763C101.698 21.4363 101.145 21.2448 100.953 21.6698L100.38 23.0098C99.8055 23.0098 99.2097 22.9891 98.6347 22.9677C98.5337 22.9721 98.4368 23.0086 98.3581 23.0719C98.2793 23.1352 98.2228 23.222 98.1967 23.3196C98.1707 23.4172 98.1764 23.5206 98.2132 23.6147C98.25 23.7089 98.3158 23.7888 98.4012 23.8429Z" fill="#EF8828"/>
<path d="M101.55 63.3683C101.093 62.6549 100.491 62.0459 99.7834 61.5811C96.9442 59.555 93.3461 61.9709 92.9127 65.1976C92.7427 66.559 92.6148 69.1334 93.7848 71.0936C94.3462 72.0833 95.2701 72.8161 96.3616 73.1376C97.453 73.459 98.6267 73.3439 99.6349 72.8164C102.574 71.3156 103.166 66.0881 101.55 63.3683ZM100.55 70.03C100.485 70.088 100.406 70.1265 100.32 70.141C100.234 70.1556 100.146 70.1455 100.066 70.1121C99.9861 70.0787 99.9171 70.0233 99.8671 69.9522C99.8172 69.8812 99.7885 69.7974 99.7842 69.7107C99.8271 68.5836 100.253 67.5407 100.189 66.3921C100.189 65.7782 100.067 65.1704 99.8298 64.6043C99.5924 64.0382 99.2444 63.525 98.8064 63.0949C98.4442 62.7756 98.935 62.1562 99.3171 62.4357C99.8701 62.8506 100.333 63.3741 100.676 63.9739C101.02 64.5737 101.238 65.2374 101.316 65.9243C101.507 67.2191 101.486 69.0055 100.55 70.027V70.03Z" fill="#EF8828"/>
<path d="M63.5546 30.7994C62.746 28.1194 45.8995 29.3591 43.8757 29.7994C43.3688 29.852 42.9032 30.1029 42.5805 30.4974C42.2578 30.8918 42.104 31.3978 42.1528 31.9051C42.1191 33.7987 41.6 41.5424 41.8971 43.4996C42.3657 46.6474 45.195 46.456 47.7265 46.541C49.1729 46.5839 55.3208 46.4774 55.3208 46.4774C60.1448 49.9377 59.4358 49.5525 59.5323 49.4561C59.6173 48.8175 59.128 46.4139 60.1701 46.2646C60.5958 46.201 62.6809 46.201 63.0852 45.5203C64.0454 43.9245 63.7475 31.3944 63.5546 30.7994ZM47.9623 39.0515C47.6781 39.0792 47.3944 38.9945 47.1719 38.8156C46.9494 38.6367 46.8057 38.3779 46.7716 38.0944C46.7722 37.9014 46.8249 37.7121 46.9241 37.5465C47.0233 37.381 47.1654 37.2453 47.3353 37.1538C47.5053 37.0623 47.6968 37.0183 47.8896 37.0266C48.0824 37.0349 48.2695 37.0951 48.4309 37.2008C48.6088 37.3147 48.7463 37.4817 48.824 37.6781C48.9016 37.8745 48.9155 38.0903 48.8637 38.2951C48.8119 38.4998 48.6969 38.6831 48.5351 38.8188C48.3733 38.9546 48.1729 39.036 47.9623 39.0515ZM52.8981 39.0515C51.9195 39.0515 51.7281 38.4987 51.7067 38.0944C51.7072 37.9014 51.7599 37.7121 51.8591 37.5465C51.9583 37.381 52.1004 37.2453 52.2704 37.1538C52.4403 37.0623 52.6318 37.0183 52.8246 37.0266C53.0175 37.0349 53.2045 37.0951 53.366 37.2008C53.5433 37.3149 53.6804 37.4819 53.7578 37.6781C53.8352 37.8743 53.849 38.0899 53.7973 38.2944C53.7456 38.4988 53.631 38.6819 53.4697 38.8178C53.3083 38.9536 53.1084 39.0354 52.8981 39.0515ZM57.7275 39.0515C56.6846 39.0515 56.5567 38.4987 56.536 38.0944C56.537 37.9016 56.5899 37.7127 56.6892 37.5475C56.7884 37.3822 56.9304 37.2468 57.1002 37.1555C57.27 37.0642 57.4612 37.0204 57.6538 37.0286C57.8464 37.0369 58.0332 37.0969 58.1946 37.2023C58.37 37.3175 58.5051 37.4844 58.5812 37.6799C58.6574 37.8754 58.6707 38.0898 58.6193 38.2932C58.5679 38.4966 58.4544 38.679 58.2946 38.8149C58.1347 38.9508 57.9365 39.0335 57.7275 39.0515Z" fill="#EF8828"/>
<path d="M148.967 64.6264C148.993 64.3747 148.97 64.1203 148.897 63.8778C148.825 63.6354 148.705 63.4097 148.545 63.2139C148.384 63.0181 148.187 62.856 147.963 62.737C147.74 62.618 147.495 62.5445 147.243 62.5206C145.244 62.0949 128.375 60.8613 127.565 63.5413C127.395 64.1371 127.097 76.6672 128.032 78.2622C128.437 78.9429 130.521 78.9429 130.947 79.0072C132.095 79.1711 131.424 82.1007 131.607 82.283C131.607 82.2408 136.053 79.688 136.053 79.688C136.053 79.688 141.945 79.3258 143.392 79.2837C145.923 79.1987 148.752 79.3686 149.221 76.2415C149.52 74.2812 149.001 66.5406 148.967 64.6264ZM134.586 70.8172C134.543 71.2207 134.416 71.8593 133.395 71.7743C133.187 71.7594 132.988 71.6794 132.828 71.5457C132.668 71.412 132.554 71.2313 132.502 71.0293C132.459 70.8374 132.47 70.6374 132.534 70.4515C132.598 70.2657 132.713 70.1014 132.865 69.9772C133.018 69.853 133.202 69.7737 133.397 69.7482C133.592 69.7228 133.79 69.7522 133.969 69.8332C134.16 69.9143 134.321 70.0517 134.431 70.227C134.541 70.4023 134.596 70.6072 134.586 70.8141V70.8172ZM139.394 70.8172C139.351 71.2207 139.266 71.7743 138.203 71.7743C137.992 71.7669 137.79 71.6897 137.628 71.5548C137.466 71.4199 137.354 71.235 137.309 71.0293C137.267 70.8377 137.279 70.6383 137.344 70.4532C137.409 70.2681 137.523 70.1047 137.676 69.9811C137.828 69.8576 138.012 69.7789 138.206 69.7537C138.401 69.7285 138.598 69.7579 138.777 69.8386C138.967 69.9195 139.127 70.0562 139.237 70.2304C139.347 70.4046 139.402 70.6081 139.394 70.8141V70.8172ZM144.351 70.8386C144.308 71.2421 144.074 71.7743 143.138 71.7957C142.928 71.7796 142.727 71.6971 142.566 71.56C142.405 71.423 142.292 71.2385 142.242 71.0329C142.192 70.8274 142.209 70.6114 142.29 70.416C142.371 70.2205 142.511 70.0556 142.691 69.945C142.852 69.8378 143.039 69.7763 143.232 69.7671C143.426 69.7579 143.618 69.8013 143.788 69.8927C143.958 69.9842 144.101 70.1202 144.2 70.2863C144.299 70.4523 144.351 70.6422 144.351 70.8355V70.8386Z" fill="#EF8828"/>
<path d="M77.0004 73.0692C76.6604 73.0454 76.5325 73.4941 76.724 73.707C78.3404 75.4727 81.8933 73.6649 81.8543 71.4305C81.851 71.3394 81.8187 71.2517 81.7619 71.1803C81.7052 71.1089 81.627 71.0576 81.539 71.0339C81.4509 71.0101 81.3576 71.0152 81.2727 71.0485C81.1877 71.0817 81.1157 71.1413 81.0671 71.2184C80.7238 71.9588 80.159 72.5742 79.4507 72.9796C78.6168 73.4091 77.8733 73.1258 77.0004 73.0692Z" fill="#69B93F"/>
<path d="M75.0399 53.7318C74.7014 54.0105 75.0613 54.561 75.4656 54.4546C76.6777 54.0718 77.4863 54.9439 77.4649 56.1392C77.4304 57.5849 76.0866 59.5221 75.0399 63.8829C74.6141 65.6057 73.572 70.4136 76.8692 70.0308C77.2099 69.9879 77.3584 69.4565 76.9541 69.3715C74.3591 68.8393 75.912 64.755 76.3584 63.1171C77.4924 59.1025 79.6196 56.2632 77.9542 54.1399C77.7927 53.9178 77.5881 53.7305 77.3526 53.5891C77.1171 53.4478 76.8556 53.3553 76.5837 53.3172C76.3117 53.2791 76.0348 53.2962 75.7696 53.3674C75.5043 53.4387 75.2562 53.5626 75.0399 53.7318Z" fill="#69B93F"/>
<path d="M83.1482 61.4961C84.1903 61.6056 85.6796 60.7304 85.5518 59.539C85.5482 59.4433 85.5144 59.3512 85.4552 59.2759C85.396 59.2006 85.3144 59.1461 85.2222 59.1201C85.13 59.0941 85.032 59.0981 84.9422 59.1314C84.8524 59.1647 84.7755 59.2256 84.7225 59.3054C84.3603 59.8368 84.0839 60.4326 83.3396 60.454C82.9857 60.4411 82.6484 60.3003 82.3903 60.0577C82.1322 59.8151 81.9708 59.4872 81.9361 59.1347C81.9318 59.0444 81.893 58.9592 81.8276 58.8968C81.7623 58.8344 81.6754 58.7996 81.585 58.7996C81.4946 58.7996 81.4077 58.8344 81.3423 58.8968C81.2769 58.9592 81.2381 59.0444 81.2339 59.1347C81.1929 59.6979 81.368 60.2556 81.7236 60.6943C82.0792 61.133 82.5886 61.4197 83.1482 61.4961Z" fill="#69B93F"/>
<path d="M75.8061 58.9647C75.8043 58.8909 75.7834 58.8188 75.7455 58.7554C75.7076 58.6921 75.6538 58.6396 75.5896 58.6032C75.5253 58.5668 75.4528 58.5477 75.3789 58.5477C75.3051 58.5477 75.2325 58.5668 75.1683 58.6033C74.934 58.7304 74.7425 59.0076 74.4232 58.9432C74.1254 58.8797 74.0189 58.5604 73.9339 58.3054C73.918 58.2506 73.8864 58.2017 73.8429 58.1648C73.7994 58.1279 73.7461 58.1046 73.6895 58.0977C73.6329 58.0909 73.5755 58.1008 73.5245 58.1263C73.4734 58.1518 73.431 58.1917 73.4025 58.2411C73.3313 58.3963 73.2937 58.5649 73.292 58.7357C73.2904 58.9065 73.3248 59.0757 73.393 59.2323C73.4613 59.3889 73.5618 59.5293 73.6879 59.6445C73.8141 59.7596 73.9632 59.8468 74.1254 59.9004C74.767 60.1347 75.8559 59.7725 75.8061 58.9647Z" fill="#69B93F"/>
<path d="M82.1913 54.8375C84.2519 54.3359 85.7649 55.6461 86.8071 57.2204C86.8618 57.309 86.9465 57.3749 87.0459 57.4061C87.1452 57.4374 87.2524 57.4318 87.348 57.3904C87.4436 57.3491 87.521 57.2747 87.5662 57.1809C87.6114 57.0871 87.6214 56.9801 87.5942 56.8796C87.2114 54.4125 84.0635 53.4339 81.9999 54.1782C81.9171 54.2074 81.8486 54.2672 81.8085 54.3453C81.7684 54.4234 81.7597 54.5139 81.7841 54.5983C81.8086 54.6826 81.8645 54.7544 81.9402 54.7989C82.0159 54.8433 82.1058 54.8571 82.1913 54.8375Z" fill="#69B93F"/>
<path d="M69.7244 80.0464C70.873 80.6589 72.8516 80.5356 73.2138 79.5571C74.0216 77.3656 71.6609 75.5363 69.4059 76.4299C68.5736 75.338 68.0187 74.0605 67.7887 72.707C67.3828 70.3693 68.1486 68.3891 68.7673 66.1762C68.8737 65.7934 68.363 65.6234 68.1509 65.9212C65.7251 69.2613 66.0658 74.3242 68.5973 77.5149C68.484 78.002 68.5327 78.5128 68.7362 78.9697C68.9396 79.4266 69.2866 79.8046 69.7244 80.0464Z" fill="#69B93F"/>
<path d="M145.543 138.335C143.898 138.283 142.253 138.247 140.607 138.228C140.99 132.4 141.501 126.57 141.607 120.72C141.606 120.638 141.586 120.557 141.549 120.484C141.512 120.411 141.458 120.347 141.392 120.297C141.327 120.248 141.25 120.215 141.169 120.2C141.089 120.184 141.005 120.188 140.926 120.21C138.985 120.829 136.964 121.164 134.927 121.206C132.872 121.204 130.827 120.933 128.843 120.398C128.767 120.377 128.687 120.374 128.609 120.389C128.532 120.403 128.458 120.435 128.395 120.482C128.331 120.53 128.279 120.591 128.243 120.661C128.206 120.731 128.186 120.808 128.184 120.887C128.196 126.704 128.745 132.508 129.822 138.225C128.159 138.241 110.732 138.197 90.4412 138.138C99.0447 137.673 109.231 134.189 115.547 128.332C115.287 131.344 114.732 134.322 113.888 137.225C113.76 137.692 114.505 138.055 114.717 137.565C115.386 135.866 115.858 134.096 116.122 132.29C116.525 130.67 116.675 128.998 116.569 127.333C119.087 124.768 120.996 121.67 122.156 118.267C123.316 114.865 123.697 111.246 123.27 107.676C122.391 98.8914 118.828 92.4088 110.952 87.8926C112.25 87.5343 113.416 86.8106 114.314 85.8076C114.788 85.2773 115.132 84.6431 115.316 83.956C115.501 83.2688 115.522 82.5479 115.377 81.8512C115.037 80.5104 113.888 79.7837 112.697 79.2339C111.391 78.615 110.291 77.6327 109.528 76.4046C106.762 72.3846 107.911 67.0874 107.889 64.556C107.804 55.98 107.656 43.5379 98.8701 38.9428C93.8072 36.2835 86.1486 36.6878 82.9793 41.9421C84.2708 41.7982 85.5769 41.8558 86.8507 42.1129C89.4814 42.5465 91.8678 43.9133 93.5729 45.9629C95.2885 47.975 96.5963 50.3016 97.4237 52.813C98.1259 54.7273 99.6994 60.5988 99.6994 60.5988C100.659 61.1561 101.469 61.9371 102.061 62.8752C103.895 66.0568 103.199 71.8976 99.8702 73.6182C98.883 74.1437 97.7459 74.3163 96.6472 74.1074C95.5486 73.8985 94.5542 73.3207 93.8287 72.4696C93.3814 75.1507 93.6155 77.9013 94.5094 80.4683C95.1472 82.2976 95.828 84.2547 97.3173 85.4247C96.1993 86.0633 90.641 90.7763 88.6379 91.9134C86.2979 93.232 81.9364 95.1891 81.1071 91.2534C81.0221 90.8284 80.3835 91.0198 80.4478 91.4234C81.5114 97.1662 88.641 93.1255 91.4243 91.2962C92.4879 90.5941 96.4451 87.2119 97.5087 86.5098C101.061 84.1483 106.167 86.5733 109.464 88.3605C113.319 90.3208 116.574 93.2832 118.888 96.9365C121.127 101.001 122.291 105.57 122.27 110.211C122.334 119.316 117.165 126.953 109.443 131.463C105.36 133.759 100.925 135.363 96.3172 136.21C91.5522 137.167 86.4679 137.529 81.7687 136.146C81.2972 133.908 81.3045 131.595 81.7901 129.36C84.896 130.033 88.1215 129.912 91.1681 129.008C94.2147 128.103 96.9839 126.445 99.2194 124.186C101.455 121.927 103.084 119.141 103.957 116.085C104.83 113.029 104.917 109.803 104.212 106.704C104.042 105.853 102.723 106.215 102.914 107.065C103.565 109.994 103.459 113.04 102.604 115.916C101.75 118.792 100.176 121.403 98.0311 123.501C95.8864 125.598 93.2419 127.115 90.3478 127.905C87.4538 128.696 84.4058 128.736 81.4923 128.02C81.3345 127.979 81.1669 128 81.0244 128.079C80.8818 128.158 80.7752 128.289 80.7265 128.445C80.5605 129.128 80.4256 129.817 80.3222 130.512C79.1507 129.745 77.8322 129.231 76.4508 129.002C72.9959 128.262 70.8236 129.678 67.835 131.576C66.3404 132.375 64.9169 133.3 63.5799 134.342C63.3035 134.597 63.6013 135.15 63.9628 135.001C68.3365 133.182 71.3297 128.804 76.4071 129.981C77.7141 130.36 78.9934 130.829 80.2357 131.384C80.0893 132.898 80.1667 134.425 80.4654 135.916C80.6997 137.107 80.9547 137.171 82.1041 137.469C83.5283 137.827 84.9833 138.051 86.4495 138.136L79.4761 138.115C79.5947 137.981 79.6851 137.825 79.7418 137.655C79.7985 137.486 79.8204 137.306 79.8061 137.128C79.8143 136.575 79.6509 136.032 79.3383 135.575C78.8276 135.064 67.5746 135.66 62.8303 135.469C61.1074 131.959 59.4267 128.424 57.7245 124.897C61.6713 123.526 65.2013 121.168 67.9782 118.046C68.0195 121.286 68.8312 126.537 70.6375 129.066C70.9782 129.534 71.7861 129.279 71.5946 128.662C71.0418 126.811 70.1061 125.109 69.6803 123.194C68.4445 117.216 69.2069 110.997 71.8504 105.495C71.8983 105.41 71.9106 105.31 71.8846 105.216C71.8586 105.122 71.7965 105.043 71.7118 104.995C71.6271 104.947 71.5268 104.935 71.4331 104.961C71.3393 104.987 71.2597 105.049 71.2118 105.133C69.2955 108.529 68.1957 112.323 67.9996 116.217C65.1385 119.676 61.4712 122.379 57.3202 124.088C55.7252 120.769 54.1295 117.426 52.513 114.111C55.9871 110.45 60.3233 102.862 64.4896 98.4541C70.3611 92.1998 75.169 90.5826 76.764 90.1147C81.3169 88.8383 82.2955 90.1997 82.3805 89.6255C82.6318 88.0563 82.7244 86.4658 82.6569 84.878C82.6655 83.704 82.537 82.5329 82.274 81.3887C84.7205 80.8573 86.6991 78.8365 86.3163 76.0493C86.2519 75.56 85.4862 75.7094 85.4648 76.1558C85.4054 77.0763 85.0566 77.9545 84.4683 78.6651C83.8801 79.3756 83.0823 79.8821 82.1891 80.1122C81.1999 80.2903 80.1825 80.2309 79.2208 79.9388C78.2591 79.6468 77.3806 79.1304 76.6575 78.4322C74.0196 76.0922 72.5518 72.3264 71.8711 68.9443C71.1888 65.5373 71.3373 62.0162 72.3042 58.6788C73.2711 55.3415 75.0277 52.2862 77.4255 49.7716C77.4847 49.7124 77.518 49.6321 77.518 49.5484C77.518 49.4646 77.4847 49.3843 77.4255 49.3251C77.3663 49.2659 77.2861 49.2327 77.2023 49.2327C77.1186 49.2327 77.0383 49.2659 76.9791 49.3251C74.6934 51.5209 72.9208 54.1944 71.7882 57.1547C70.6555 60.1149 70.1907 63.2888 70.4269 66.4496C70.8098 72.0661 73.6429 80.554 80.1706 81.4262C80.5588 81.4719 80.9501 81.486 81.3406 81.4683C81.3812 83.7769 81.9348 83.6782 81.4892 88.4891C81.4677 88.4891 81.4677 88.4677 81.4471 88.4677C78.362 87.787 74.8949 89.127 72.1927 90.552C65.6726 93.9739 61.5906 99.6938 57.4909 105.571C55.7252 108.103 53.853 110.549 52.0023 113.016C51.2151 111.379 46.408 102.143 45.6844 101.914C44.934 101.672 10.4615 102.242 6.58396 102.977C4.66967 103.339 6.37185 106.019 6.83971 107.062C10.9876 116.571 22.6663 137.908 22.69 137.929C18.6049 137.865 14.65 137.823 10.5427 137.78C10.4497 137.78 10.3605 137.817 10.2947 137.883C10.229 137.949 10.192 138.038 10.192 138.131C10.192 138.224 10.229 138.313 10.2947 138.379C10.3605 138.445 10.4497 138.482 10.5427 138.482C44.9631 140.129 136.829 139.49 145.499 139.12C145.553 139.127 145.607 139.123 145.659 139.107C145.711 139.092 145.759 139.067 145.801 139.032C145.842 138.997 145.876 138.954 145.9 138.906C145.925 138.858 145.939 138.805 145.942 138.751C145.945 138.697 145.936 138.643 145.918 138.592C145.899 138.542 145.87 138.495 145.833 138.456C145.795 138.417 145.75 138.386 145.7 138.365C145.65 138.345 145.597 138.334 145.543 138.335ZM139.543 138.228C136.565 138.207 133.587 138.228 130.63 138.25C129.809 132.733 129.347 127.169 129.248 121.592C131.112 122.059 133.026 122.295 134.948 122.295C136.836 122.261 138.71 121.975 140.522 121.444C140.394 127.06 139.906 132.633 139.543 138.228Z" fill="#69B93F"/>
<path d="M31.6669 118.762C31.3691 118.465 30.3484 117.72 29.5183 118.465C28.2633 119.57 30.1355 122.4 31.5858 122.315C33.8798 122.188 32.2205 119.189 31.6669 118.762Z" fill="#EF8828"/>
<path d="M131.098 120.125C130.893 117.935 130.927 115.53 130.375 113.402C130.346 113.306 130.284 113.223 130.2 113.168C130.115 113.113 130.014 113.09 129.915 113.103C129.815 113.115 129.723 113.163 129.655 113.238C129.587 113.312 129.548 113.408 129.545 113.509C129.502 115.7 130.077 118.062 130.375 120.231C130.438 120.635 131.138 120.55 131.098 120.125Z" fill="#69B93F"/>
<path d="M134.034 120.04C133.723 116.556 133.566 113.126 133.587 109.616C133.57 109.486 133.507 109.367 133.409 109.281C133.312 109.195 133.185 109.147 133.055 109.147C132.924 109.147 132.798 109.195 132.7 109.281C132.603 109.367 132.539 109.486 132.523 109.616C132.323 113.146 132.595 116.688 133.332 120.146C133.359 120.226 133.413 120.294 133.486 120.338C133.558 120.383 133.644 120.4 133.727 120.387C133.811 120.374 133.888 120.333 133.944 120.269C134 120.206 134.032 120.124 134.034 120.04Z" fill="#69B93F"/>
<path d="M137.841 119.721C138.229 117.591 138.416 115.381 138.629 113.232C138.971 110.965 139.156 108.676 139.181 106.382C139.179 106.263 139.133 106.149 139.054 106.06C138.974 105.971 138.865 105.914 138.747 105.899C138.629 105.883 138.509 105.91 138.409 105.976C138.309 106.041 138.236 106.14 138.203 106.254C137.816 108.406 137.567 110.58 137.459 112.763C137.246 115.039 136.969 117.337 136.969 119.613C136.969 120.082 137.752 120.21 137.841 119.721Z" fill="#69B93F"/>
<path d="M148.265 19.9715C148.18 18.3972 148.435 16.4614 146.989 15.4614C145.032 14.1207 142.16 13.9721 139.884 13.8021C132.592 13.1895 120.195 14.0158 117.678 14.5464C116.53 14.7807 116.062 15.8864 115.913 16.9714C115.817 18.0615 115.817 19.1578 115.913 20.2479C115.918 20.3798 115.974 20.5047 116.07 20.5962C116.165 20.6877 116.292 20.7389 116.424 20.7389C116.556 20.7389 116.683 20.6877 116.778 20.5962C116.873 20.5047 116.929 20.3798 116.934 20.2479C116.934 19.1629 116.573 15.8014 117.763 15.5885C124.499 14.7314 131.295 14.4468 138.079 14.7378C140.59 14.8657 143.439 14.9721 145.759 16.0143C146.034 16.0964 146.287 16.2381 146.5 16.4294C146.713 16.6207 146.882 16.8568 146.993 17.1207C146.993 17.6919 148.106 34.6717 147.333 36.9895C146.908 38.3295 144.781 38.9895 143.483 39.011C140.903 39.0952 133.31 38.6572 129.7 38.5638C128.806 38.5423 123.935 43.9238 123.935 43.9238C123.935 43.9238 123.871 40.988 123.828 39.5202C123.826 39.4359 123.804 39.3533 123.765 39.2784C123.726 39.2036 123.671 39.1383 123.604 39.0874C123.537 39.0365 123.459 39.0012 123.376 38.9842C123.294 38.9671 123.208 38.9687 123.126 38.9888C121.276 39.2652 119.042 39.3073 117.511 38.0523C116.596 37.308 116.638 35.968 116.617 34.883C116.553 32.5001 117.043 29.9059 116.553 27.5436C116.489 27.1822 115.873 27.2672 115.916 27.6286C116.191 30.5644 115.319 33.543 115.703 36.4994C116.149 39.903 119.829 40.4137 122.743 40.1159C122.786 41.9031 122.85 43.6902 122.893 45.4759C122.897 45.5916 122.937 45.703 123.009 45.7939C123.081 45.8848 123.18 45.9505 123.291 45.9814C123.403 46.0122 123.521 46.0066 123.63 45.9654C123.738 45.9242 123.83 45.8496 123.893 45.7523C125.561 43.5256 127.449 41.4733 129.53 39.6266C129.657 39.648 136.274 39.9459 139.443 40.0309C142.23 40.1159 146.527 40.6902 148.187 37.7123C149.143 35.9887 148.382 21.9149 148.265 19.9715Z" fill="#69B93F"/>
<path d="M123.993 36.8195C123.999 36.9057 124.037 36.9865 124.1 37.0455C124.164 37.1045 124.247 37.1374 124.333 37.1374C124.42 37.1374 124.503 37.1045 124.566 37.0455C124.629 36.9865 124.667 36.9057 124.673 36.8195C124.988 30.9043 127.153 28.7029 130.268 27.5015C130.63 27.3744 130.63 26.7358 130.162 26.7787C128.205 26.9272 126.588 28.3951 125.567 29.9947C124.248 32.0544 124.004 34.4159 123.993 36.8195Z" fill="#69B93F"/>
<path d="M127.375 31.7566C126.992 33.4783 126.75 35.2284 126.652 36.9895C126.655 37.0849 126.691 37.1762 126.755 37.2472C126.819 37.3183 126.906 37.3643 127 37.3771C127.095 37.3899 127.191 37.3686 127.271 37.3171C127.352 37.2656 127.411 37.1872 127.439 37.0959C127.769 35.3625 127.961 33.6055 128.013 31.8416C128.034 31.5008 127.436 31.4158 127.375 31.7566Z" fill="#69B93F"/>
<path d="M141.266 31.3944C142.553 29.0597 141.585 26.2641 139.948 24.3743C139.671 24.055 139.224 24.4593 139.395 24.7993C140.182 26.3522 141.139 27.99 140.777 29.7987C140.48 31.288 138.543 33.4787 137.055 31.7979C137.003 31.7481 136.936 31.7164 136.865 31.7077C136.793 31.699 136.721 31.7138 136.658 31.7498C136.596 31.7859 136.547 31.8412 136.519 31.9074C136.491 31.9737 136.485 32.0473 136.502 32.1172C136.583 32.3783 136.72 32.6182 136.905 32.8194C136.762 33.6517 136.527 35.9971 136.82 36.8011C136.842 36.8748 136.887 36.9395 136.948 36.9855C137.009 37.0315 137.084 37.0564 137.161 37.0564C137.237 37.0564 137.312 37.0315 137.374 36.9855C137.435 36.9395 137.48 36.8748 137.501 36.8011C137.602 35.6269 137.638 34.4479 137.608 33.2696C138.842 33.6709 140.655 32.5039 141.266 31.3944Z" fill="#69B93F"/>
<path d="M137.416 30.1608C138.637 29.4089 139.565 27.9058 139.054 26.4379C139.033 26.3714 138.989 26.3145 138.929 26.2774C138.87 26.2404 138.8 26.2257 138.731 26.236C138.661 26.2462 138.598 26.2807 138.552 26.3333C138.506 26.3858 138.481 26.4531 138.48 26.5229C138.499 27.0125 138.408 27.5001 138.212 27.9495C138.017 28.3989 137.723 28.7985 137.352 29.1187C136.925 28.4388 136.356 27.859 135.684 27.4185C135.012 26.978 134.254 26.6872 133.46 26.5658C133.423 26.5558 133.385 26.5529 133.348 26.5575C133.311 26.5622 133.274 26.5741 133.242 26.5926C133.209 26.6112 133.18 26.636 133.157 26.6657C133.134 26.6954 133.117 26.7294 133.107 26.7657C133.097 26.802 133.094 26.8399 133.098 26.8773C133.103 26.9147 133.115 26.9508 133.133 26.9835C133.152 27.0163 133.177 27.0451 133.207 27.0683C133.236 27.0915 133.27 27.1086 133.306 27.1187C134.052 27.3357 134.746 27.7022 135.346 28.196C135.946 28.6898 136.439 29.3005 136.795 29.9909C136.823 30.0441 136.862 30.0909 136.909 30.1286C136.956 30.1662 137.011 30.1939 137.069 30.2098C137.127 30.2257 137.188 30.2296 137.248 30.2211C137.307 30.2127 137.365 30.1922 137.416 30.1608Z" fill="#69B93F"/>
<path d="M137.012 25.7572C135.896 24.493 134.577 27.3315 136.289 27.3315C139.267 27.3315 140.096 21.9922 139.543 20.6943C139.16 19.78 137.65 19.4822 137.373 20.6729C137.338 20.8409 137.353 21.0153 137.416 21.175C137.479 21.3346 137.587 21.4724 137.727 21.5717C137.867 21.671 138.033 21.7275 138.204 21.7341C138.376 21.7408 138.545 21.6975 138.692 21.6093C138.692 21.7579 138.543 24.3108 137.012 25.7572Z" fill="#69B93F"/>
<path d="M126.63 25.2465C126.821 25.4838 127.067 25.6704 127.347 25.7895C127.627 25.9087 127.932 25.9567 128.236 25.9294C128.539 25.902 128.83 25.8001 129.085 25.6327C129.339 25.4653 129.548 25.2377 129.693 24.97C129.895 25.3219 130.186 25.6143 130.537 25.8176C130.888 26.0209 131.287 26.128 131.693 26.128C132.098 26.128 132.497 26.0209 132.848 25.8176C133.199 25.6143 133.49 25.3219 133.692 24.97C133.737 25.1646 133.847 25.3381 134.004 25.4623C134.16 25.5866 134.354 25.6542 134.554 25.6542C134.753 25.6542 134.947 25.5866 135.104 25.4623C135.26 25.3381 135.37 25.1646 135.415 24.97C135.571 24.8926 135.702 24.7747 135.797 24.6288C135.891 24.4829 135.944 24.3144 135.951 24.1408C136.123 24.0575 136.257 23.9133 136.328 23.7363C136.399 23.5593 136.401 23.3622 136.334 23.1836C136.355 23.0711 136.355 22.9555 136.334 22.8429C136.451 22.7139 136.538 22.56 136.587 22.3927C136.637 22.2254 136.647 22.0491 136.619 21.877C136.59 21.705 136.523 21.5417 136.422 21.3994C136.321 21.2572 136.189 21.1396 136.036 21.0557C135.955 21.0115 135.87 20.9759 135.781 20.9493C135.823 20.7157 135.632 20.3329 135.079 20.375C135.018 20.2695 134.939 20.1758 134.845 20.0986C134.843 19.9614 134.81 19.8265 134.747 19.7046C134.685 19.5826 134.594 19.4771 134.483 19.3964C134.516 19.2011 134.491 19.0005 134.411 18.8194C134.331 18.6383 134.199 18.4846 134.033 18.3772C133.927 18.2238 133.789 18.0949 133.628 17.9995C133.468 17.904 133.289 17.8441 133.103 17.8239C132.918 17.8037 132.73 17.8237 132.553 17.8824C132.376 17.9412 132.213 18.0373 132.077 18.1644C131.911 17.9604 131.69 17.8086 131.44 17.7272C131.19 17.6458 130.922 17.6384 130.668 17.7058C130.414 17.7732 130.185 17.9125 130.008 18.107C129.832 18.3015 129.715 18.5429 129.672 18.8022C129.518 18.708 129.343 18.6532 129.163 18.6427C128.982 18.6323 128.802 18.6664 128.638 18.7421C128.474 18.8178 128.331 18.9327 128.222 19.0768C128.113 19.2208 128.041 19.3895 128.013 19.5679C127.94 19.5044 126.89 19.6606 127.673 20.5672C127.503 20.6686 127.358 20.8064 127.249 20.9708C127.139 21.1352 127.067 21.3219 127.039 21.5175C127.01 21.713 127.026 21.9125 127.084 22.1013C127.142 22.2902 127.241 22.4637 127.375 22.6093C127.116 22.6913 126.881 22.8364 126.692 23.0315C126.503 23.2266 126.366 23.4656 126.292 23.7271C126.218 23.9885 126.21 24.2643 126.269 24.5295C126.328 24.7947 126.452 25.041 126.63 25.2465ZM131.438 25.4593C129.42 25.0612 129.609 22.2257 129.652 22.1201C130.105 22.0354 130.532 21.8448 130.898 21.5638C131.264 21.2827 131.558 20.9192 131.757 20.5029C131.95 20.9168 132.261 21.2647 132.651 21.503C133.041 21.7413 133.492 21.8595 133.949 21.8429C133.911 22.2316 133.897 22.6224 133.906 23.0129C133.906 23.0558 133.1 25.7871 131.438 25.4593Z" fill="#69B93F"/>
<path d="M25.9018 82.5349C28.7525 84.3864 31.6033 86.2578 34.3691 88.215C34.4521 88.2641 34.5467 88.2904 34.6432 88.2913C34.7396 88.2923 34.8347 88.2678 34.9187 88.2204C35.0028 88.173 35.0728 88.1043 35.1219 88.0212C35.171 87.9382 35.1973 87.8436 35.1983 87.7472C35.0283 86.1093 34.8369 84.4921 34.6669 82.8542C37.7512 83.6628 41.6656 83.8543 42.7506 80.1107C43.282 78.2385 43.1549 76.0685 43.1549 74.1542C43.1755 71.7284 43.197 69.2613 42.9841 66.8355C42.9841 66.6889 42.9259 66.5483 42.8222 66.4446C42.7185 66.3409 42.5779 66.2827 42.4313 66.2827C42.2846 66.2827 42.144 66.3409 42.0403 66.4446C41.9367 66.5483 41.8784 66.6889 41.8784 66.8355C41.7934 70.4949 42.1081 74.1328 41.8784 77.7913C41.772 79.5785 41.4106 81.3228 39.517 82.0028C37.7727 82.6199 35.8576 82.0449 34.157 81.5349C34.072 81.5128 33.9832 81.5104 33.8972 81.5277C33.8111 81.5451 33.7302 81.5818 33.6605 81.635C33.5907 81.6883 33.534 81.7568 33.4947 81.8352C33.4553 81.9136 33.4344 82 33.4334 82.0878L33.9441 86.6193C31.6041 85.0235 26.754 81.5349 26.3712 81.577C23.3504 81.9178 11.4397 82.6835 8.56525 82.4706C7.43812 82.3856 6.07668 82.1513 5.39596 81.1306C4.5866 79.9185 4.77803 61.5636 4.88447 58.5183C4.92658 57.2419 4.92658 55.6676 5.96948 54.7311C6.99018 53.8168 8.50093 53.8383 9.77738 53.8168C15.2446 53.7318 38.4748 52.7747 39.8148 53.1997C41.5162 53.7318 41.6656 55.859 41.7077 57.3269C41.7291 57.8797 42.6441 58.0711 42.7506 57.4754C43.0905 55.2418 42.5806 52.6889 40.0484 52.1575C38.3041 51.7793 38.2306 52.1874 11.0324 52.7104C8.77736 52.7532 5.82017 52.6254 4.54372 54.9225C4.07124 55.9783 3.84576 57.128 3.88444 58.284C3.79945 60.1562 3.79945 77.5999 3.96944 79.2807C4.19915 81.8228 5.32552 83.2049 8.58593 83.3864C10.4581 83.5143 22.0303 82.9821 25.9018 82.5349Z" fill="#69B93F"/>
<path d="M29.6464 73.4941C29.4198 75.3221 29.5792 77.1773 30.1143 78.9398C30.1436 79.0385 30.2069 79.1236 30.2931 79.18C30.3792 79.2363 30.4826 79.2603 30.5848 79.2476C30.6869 79.235 30.7813 79.1864 30.851 79.1107C30.9208 79.035 30.9614 78.937 30.9657 78.8342C30.94 77.941 30.8403 77.0516 30.6679 76.1748C30.5614 75.2813 30.5147 74.3877 30.4121 73.4948C30.4122 73.3933 30.372 73.2959 30.3003 73.224C30.2285 73.1521 30.1312 73.1117 30.0297 73.1116C29.9281 73.1115 29.8307 73.1517 29.7588 73.2235C29.6869 73.2952 29.6465 73.3925 29.6464 73.4941Z" fill="#69B93F"/>
<path d="M32.3478 71.7928C33.8157 74.1986 33.3433 75.9368 33.5186 77.3871C33.5607 77.7278 34.0929 78.0042 34.2843 77.5999C35.5753 74.6542 33.2123 69.4834 29.3271 68.0698C29.3271 67.9634 28.5407 67.0698 28.285 66.6441C28.2519 66.5895 28.2069 66.543 28.1534 66.5081C28.0998 66.4733 28.0391 66.4509 27.9758 66.4428C27.9124 66.4346 27.8481 66.4408 27.7874 66.461C27.7268 66.4811 27.6715 66.5146 27.6257 66.5591C27.2214 66.9634 25.6471 67.7077 25.7749 68.0055C26.0154 68.6861 26.3216 69.3415 26.6892 69.9627C26.7311 70.0259 26.788 70.0777 26.8548 70.1136C26.9216 70.1494 26.9962 70.1682 27.0721 70.1682C27.1479 70.1682 27.2225 70.1494 27.2893 70.1136C27.3561 70.0777 27.413 70.0259 27.4549 69.9627C27.8308 69.4627 28.283 69.025 28.7949 68.6656C30.2328 69.3786 31.458 70.457 32.3478 71.7928ZM27.1578 68.9841L26.7106 68.2184C27.1134 68.0304 27.492 67.7946 27.8385 67.5162C27.9657 67.687 28.0935 67.857 28.2428 68.027C27.8514 68.3105 27.488 68.6311 27.1578 68.9841Z" fill="#69B93F"/>
<path d="M23.9026 70.1334C24.3314 69.6257 24.6684 69.0691 25.0512 68.5162C25.1097 68.4173 25.1269 68.2994 25.0991 68.1879C25.0713 68.0764 25.0007 67.9803 24.9027 67.9205C24.4984 67.6441 24.0726 67.4097 23.6683 67.1548C23.4099 66.9421 23.1034 66.796 22.7755 66.729C22.0274 66.729 22.0358 67.4549 21.6905 67.5805C21.655 67.5922 21.6222 67.611 21.5942 67.6358C21.5662 67.6605 21.5435 67.6907 21.5275 67.7246C21.5116 67.7584 21.5026 67.7951 21.5013 67.8324C21.4999 67.8698 21.5062 67.9071 21.5197 67.9419C20.8605 67.9205 18.8818 69.3462 18.2226 70.7498C17.59 69.9788 17.2634 69.0019 17.3052 68.0055C17.4109 68.0912 17.5173 68.1969 17.6452 68.2827C19.3045 69.3034 20.6238 67.9848 20.4784 67.1976C20.2655 66.1341 18.8191 65.4955 18.4791 66.9212C17.8416 66.3332 17.353 65.6023 17.0533 64.7885C16.7537 63.9747 16.6516 63.1014 16.7555 62.2404C16.7555 62.2618 17.4791 62.6026 17.7984 61.6661C17.9149 61.4463 17.9506 61.1925 17.8994 60.9491C17.8482 60.7056 17.7132 60.4878 17.518 60.3335C17.3228 60.1793 17.0796 60.0983 16.8309 60.1048C16.5822 60.1113 16.3436 60.2048 16.1567 60.369C15.476 60.8154 15.5188 63.9855 15.6467 64.7512C15.5824 64.7726 12.3281 69.9841 14.7952 73.3456C15.2098 73.9339 15.7789 74.3962 16.4396 74.6814C17.1004 74.9666 17.8271 75.0638 18.5396 74.962C18.493 76.5537 18.5641 78.1466 18.7524 79.7278C18.816 80.3013 19.6667 80.3442 19.6667 79.7278C19.6912 78.0335 19.5775 76.34 19.3267 74.6641C19.7249 74.4502 20.0784 74.1619 20.3681 73.8149C20.6238 73.4742 20.1767 73.0064 19.9002 73.3471C19.5449 73.7193 19.118 74.016 18.6452 74.2192C17.1138 74.6657 15.4116 73.3257 14.9438 71.6664C14.3481 69.5392 15.3266 67.6456 15.9009 65.7704C16.1084 66.3486 16.387 66.8987 16.7302 67.4082C16.4465 68.3253 16.4615 69.3088 16.7731 70.2169C16.9859 70.7911 17.4109 71.8547 18.156 71.8762C18.8788 71.8976 19.241 71.1954 19.496 70.6633C19.9852 69.6211 21.8789 68.5361 21.9003 68.4511C22.3919 68.8141 23.6492 70.4328 23.9026 70.1334ZM22.4776 67.899C22.5626 67.7719 22.6476 67.5805 22.7074 67.5591C22.8452 67.5078 23.0228 67.6984 24.0688 68.4312L23.7503 69.0055C23.3661 68.593 22.9395 68.2222 22.4776 67.899Z" fill="#69B93F"/>
<path d="M25.0094 69.6862C24.9244 69.4098 24.4137 69.2612 24.3922 69.6012C24.39 69.7266 24.4144 69.851 24.464 69.9661C24.5135 70.0813 24.5871 70.1846 24.6796 70.2691C24.7722 70.3537 24.8817 70.4175 25.0009 70.4564C25.1201 70.4953 25.2462 70.5084 25.3708 70.4948C25.5093 70.4883 25.6442 70.4487 25.7642 70.3794C25.8843 70.3102 25.986 70.2132 26.0609 70.0966C26.1359 69.98 26.1818 69.8471 26.195 69.7091C26.2081 69.5711 26.1881 69.432 26.1365 69.3034C26.1032 69.2464 26.0533 69.201 25.9933 69.1734C25.9334 69.1457 25.8665 69.1371 25.8015 69.1487C25.7366 69.1603 25.6767 69.1916 25.6301 69.2383C25.5835 69.2849 25.5523 69.3448 25.5408 69.4098C25.4987 69.8141 25.2858 70.197 25.0094 69.6862Z" fill="#69B93F"/>
<path d="M25.3069 79.1957C25.6002 79.518 25.7962 79.1528 25.9876 78.8342C26.4074 78.3488 26.7647 77.8127 27.0512 77.2385C27.261 76.5723 26.8812 75.789 26.094 71.0056C26.0636 70.9099 25.999 70.8289 25.9125 70.7779C25.8261 70.7269 25.7239 70.7095 25.6254 70.7291C25.1913 70.8157 24.6063 70.7169 24.5618 71.0056C24.179 72.6901 23.924 74.4092 23.6261 76.1106C23.45 77.0509 23.1866 76.8679 25.3069 79.1957ZM24.6047 74.9842C24.8038 73.7729 24.9026 72.5592 25.0511 71.3249C25.242 71.3463 25.4346 71.3463 25.6254 71.3249C26.0512 71.3892 26.3061 75.8564 26.3705 76.3457C26.4976 77.2645 25.5619 78.4131 25.519 78.4728C25.2092 78.0729 24.9251 77.6537 24.6683 77.2178C24.2004 76.5792 24.4822 75.7293 24.6047 74.9835V74.9842Z" fill="#69B93F"/>
<path d="M26.9233 58.6883C26.6246 58.5263 26.2821 58.4638 25.9455 58.5096C25.6089 58.5555 25.2956 58.7074 25.0511 58.9433C24.7115 58.7313 24.3175 58.6225 23.9172 58.6301C23.5169 58.6377 23.1274 58.7614 22.7961 58.9861C21.1368 60.2411 22.1368 63.1133 22.2432 63.3469C22.5832 65.1976 23.5832 67.1127 25.7318 66.8355C27.7533 66.5805 28.3912 63.9855 28.2633 61.9433C28.3483 59.5819 27.5826 59.0505 26.9233 58.6883ZM25.3069 63.3469C24.9247 63.3317 24.5443 63.4071 24.1968 63.5668C23.8492 63.7264 23.5443 63.9659 23.3068 64.2657C23.1198 63.7484 22.9844 63.2139 22.9025 62.67C23.2762 61.7098 24.607 61.4165 25.094 60.5643C25.8168 61.1171 27.349 61.1769 27.3697 62.2443C27.4613 62.8831 27.4253 63.5337 27.264 64.1585C27.2426 64.1126 26.8168 63.4778 25.3069 63.3469Z" fill="#69B93F"/>
</svg>
