<svg width="151" height="123" viewBox="0 0 151 123" fill="none" xmlns="http://www.w3.org/2000/svg">
<path d="M12.5017 49.8242C27.318 49.6887 42.0761 49.8587 56.9123 49.5654C56.9945 49.5511 57.0787 49.5542 57.1596 49.5745C57.2405 49.5948 57.3163 49.6319 57.3819 49.6834C57.4476 49.7348 57.5017 49.7995 57.5408 49.8731C57.5799 49.9468 57.6031 50.0279 57.6088 50.1111C57.6146 50.1943 57.6028 50.2778 57.5743 50.3562C57.5457 50.4346 57.501 50.5061 57.4431 50.5661C57.3852 50.6261 57.3153 50.6733 57.2379 50.7045C57.1606 50.7358 57.0776 50.7505 56.9942 50.7477C42.328 51.0394 27.2429 51.3725 12.5836 50.9843C11.7368 50.9621 11.6342 49.8319 12.5017 49.8242ZM45.8027 27.3663C48.2737 38.3701 33.1266 44.5141 26.2345 37.5501C23.0699 34.354 22.5768 29.1526 24.2965 25.1304C28.6197 15.0239 43.6848 17.9298 45.8027 27.3663ZM44.4314 26.1274C43.9635 24.9241 43.2473 23.8329 42.3294 22.9249C41.4116 22.0169 40.3127 21.3126 39.1044 20.8578C32.6442 18.5952 26.3884 19.8915 24.5186 27.1136C23.5308 30.926 24.5952 35.5439 27.9436 37.887C35.6381 43.2698 48.4038 35.7943 44.4314 26.1274ZM13.0438 16.6817C13.0438 16.3141 12.4473 16.3233 12.4136 16.6771C11.6096 25.1388 12.0078 34.0041 12.0377 42.5141C12.0423 43.789 12.4879 43.8824 13.2858 43.9352C25.9681 44.7699 43.3824 44.302 56.0394 43.7407C56.4988 43.7201 56.5095 42.9437 56.0394 42.9345C41.8984 42.6703 27.0232 43.6427 13.1097 42.8081C13.3286 34.2736 13.089 25.2659 13.0438 16.6817ZM57.3051 43.0792C57.3533 43.4559 58.1007 43.5064 58.093 43.0845C57.9276 34.1978 58.0034 25.2437 57.7737 16.3853C57.7423 15.1679 57.7209 15.2705 56.4 15.2192C42.8517 14.6916 27.7422 14.952 14.2498 15.7291C14.1473 15.7339 14.051 15.7792 13.9819 15.855C13.9128 15.9308 13.8767 16.031 13.8815 16.1334C13.8863 16.2359 13.9315 16.3322 14.0073 16.4013C14.0832 16.4704 14.1833 16.5065 14.2858 16.5017C28.4367 16.4527 42.7399 15.8815 56.8748 16.3394C56.3595 23.38 56.4276 36.1772 57.3051 43.0792ZM39.4015 29.4604C37.7392 28.4857 35.403 26.9589 33.5401 25.9382C32.2966 25.2575 32.1993 26.1894 33.0898 26.805C34.3448 27.6733 36.6741 28.7866 38.2828 29.9099C36.4375 31.0477 34.6687 32.2468 32.7904 33.3801C32.5217 30.9053 32.3969 28.4689 32.0424 25.9865C31.9796 25.5416 31.3609 25.6718 31.3724 26.0937C31.4489 28.8425 31.8249 31.5424 31.9183 34.2545C31.9304 34.3275 31.959 34.3968 32.002 34.4571C32.0449 34.5174 32.1011 34.5671 32.1661 34.6024C32.2312 34.6377 32.3035 34.6577 32.3774 34.6608C32.4514 34.664 32.5251 34.6502 32.5929 34.6205C35.0164 33.3506 37.3324 31.8853 39.5179 30.2392C39.5751 30.1866 39.6185 30.1208 39.6443 30.0475C39.6702 29.9742 39.6777 29.8958 39.6662 29.8189C39.6547 29.7421 39.6246 29.6693 39.5785 29.6068C39.5323 29.5443 39.4716 29.494 39.4015 29.4604ZM85.3121 22.6151C87.3366 22.4849 87.2669 21.1763 85.1804 21.3218C78.8006 21.7675 72.2699 21.6457 65.8763 21.4818C63.0632 21.4099 62.7837 22.5783 65.6711 22.6878C71.9154 22.9244 79.1 23.014 85.3121 22.6151ZM91.5732 44.9375C91.684 42.8342 91.6709 40.7262 91.5342 38.6243C91.5051 38.3043 90.9216 38.2606 90.8672 38.5853C90.5939 40.2208 90.94 43.1963 90.8734 44.9728C90.8604 45.3548 91.551 45.3219 91.5732 44.9375ZM13.3126 0.879924C21.3968 0.856188 81.6337 0.467977 84.8205 0.596615C91.8305 0.88069 92.2478 9.09589 91.4055 9.22605C90.5097 9.36541 7.01009 8.82253 6.12953 8.75132C5.51544 8.70232 5.22754 0.903661 13.3126 0.879924ZM85.3948 6.87153C85.6209 6.83706 85.8366 6.75323 86.0267 6.62598C86.2167 6.49872 86.3764 6.33118 86.4944 6.13525C86.6123 5.93931 86.6857 5.7198 86.7093 5.49231C86.7328 5.26481 86.706 5.03492 86.6307 4.81897C86.5554 4.60302 86.4334 4.40631 86.2735 4.24281C86.1135 4.07932 85.9196 3.95305 85.7053 3.87299C85.4911 3.79292 85.2618 3.76103 85.0339 3.77957C84.8059 3.7981 84.5849 3.86662 84.3864 3.98024C84.0972 4.17614 83.8809 4.46211 83.771 4.79366C83.6612 5.12522 83.664 5.48377 83.7791 5.81356C83.8941 6.14335 84.1149 6.42589 84.4071 6.61722C84.6993 6.80855 85.0465 6.89796 85.3948 6.87153ZM78.4185 6.35774C78.6532 6.63534 78.9767 6.82322 79.3341 6.88951C79.6915 6.9558 80.0608 6.89642 80.3795 6.72145C80.672 6.52242 80.8926 6.2343 81.0083 5.8999C81.1241 5.56551 81.1288 5.2027 81.0219 4.86539C80.8971 4.53012 80.6631 4.24666 80.3574 4.06078C80.0518 3.8749 79.6924 3.79743 79.3373 3.84089C79.0672 3.8833 78.8134 3.99727 78.6022 4.17096C78.391 4.34465 78.2301 4.57172 78.1363 4.82858C78.0426 5.08544 78.0193 5.36273 78.0689 5.63164C78.1185 5.90055 78.2392 6.15126 78.4185 6.35774ZM72.649 6.45345C72.907 6.67055 73.2255 6.80302 73.5614 6.83289C73.8973 6.86275 74.2342 6.78855 74.5264 6.62038C74.7668 6.47919 74.9633 6.27408 75.0941 6.02788C75.2248 5.78168 75.2847 5.50404 75.2671 5.22582C75.2495 4.94761 75.1551 4.67974 74.9943 4.452C74.8335 4.22426 74.6127 4.04558 74.3565 3.93583C74.0148 3.83471 73.6504 3.84068 73.3123 3.95293C72.9741 4.06519 72.6785 4.27835 72.4652 4.56371C72.2685 4.84995 72.1791 5.1964 72.2127 5.54207C72.2464 5.88773 72.4008 6.21046 72.649 6.45345ZM90.8596 11.0852C90.9944 17.7996 90.4002 24.5171 90.7562 31.279C90.7769 31.6748 91.4454 31.6473 91.4377 31.2637C91.3297 24.6021 92.0319 17.7108 91.5549 11.0699C91.5265 10.6702 90.8519 10.6916 90.8596 11.0852ZM86.015 15.8624C78.4889 16.2138 71.113 15.7138 63.6198 15.7092C63.325 15.7092 63.2699 16.2452 63.557 16.367C65.861 17.3624 82.6367 17.2483 86.0472 16.9918C86.1891 16.9767 86.3201 16.9087 86.414 16.8012C86.508 16.6938 86.5579 16.5549 86.5538 16.4122C86.5498 16.2695 86.492 16.1337 86.3921 16.0317C86.2922 15.9298 86.1576 15.8693 86.015 15.8624ZM11.4458 60.5555C16.8126 60.5839 22.4397 61.077 26.7146 60.7646C27.1036 60.7362 27.1557 60.0793 26.7483 60.0678C21.6886 59.9223 16.844 59.5969 12.0561 59.4912C8.81561 59.4192 7.01162 58.1305 6.68084 54.7477C5.6303 43.9904 6.94501 12.8371 6.71912 10.1839C6.71364 10.0911 6.67509 10.0034 6.61046 9.93653C6.54584 9.8697 6.45942 9.82822 6.36685 9.81961C6.27428 9.811 6.18168 9.83583 6.10584 9.8896C6.03 9.94337 5.97593 10.0225 5.95342 10.1127C5.74056 11.1694 5.41284 24.0661 5.29798 34.0447C5.22601 40.3671 4.94576 49.1006 5.60886 55.1887C5.96108 58.4169 8.13261 60.5379 11.4458 60.5555ZM69.7033 59.5119C60.5195 60.0777 49.9559 59.7056 40.4819 59.9445C40.0745 59.9552 40.073 60.652 40.4865 60.6627C49.8686 60.9131 60.3487 60.4897 69.7102 60.4996C70.2707 60.4981 70.2715 59.4766 69.7033 59.5119ZM64.9736 27.965C63.8886 28.2223 64.031 28.9237 65.1267 28.9245C66.8603 28.9245 68.7332 28.7292 70.5295 28.7085C71.678 28.6955 72.1696 27.7897 70.2998 27.6442C68.518 27.5607 66.7324 27.6685 64.9736 27.9658V27.965ZM94.4063 74.1827C93.5913 71.7706 92.3521 69.5235 90.747 67.5471C90.5173 67.2408 90.9002 66.7715 91.221 67.0372C93.2357 68.879 94.6364 71.2949 95.234 73.9583C97.6257 73.3157 100.142 73.2957 102.544 73.9002C104.945 74.5048 107.152 75.7139 108.955 77.4124C109.429 65.1313 99.1399 56.786 88.8933 56.0279C87.3833 59.5364 80.7424 60.9108 79.5035 57.276C74.335 58.3028 66.8871 62.0234 64.2155 66.4545C66.7327 66.3432 69.2548 66.4457 71.7546 66.7608C72.5172 66.8498 73.2269 67.1955 73.7672 67.7411C74.3074 68.2866 74.6462 68.9996 74.7278 69.7631C74.8545 72.5714 75.1926 75.3662 75.7393 78.1237C77.0517 74.7263 80.1498 73.8726 82.9155 73.8098C85.3144 73.7539 91.1238 74.9652 94.4063 74.1827ZM92.4392 49.5539C96.9303 48.6139 101.541 48.3857 106.103 48.8778C110.561 49.3449 113.382 49.936 114.435 54.8281C116.005 62.1298 114.37 73.8733 111.854 80.9017C109.689 86.9507 105.723 86.3788 100.43 86.7808C100.023 86.8114 99.9148 87.512 100.362 87.5265C105.397 87.6912 109.65 87.4921 111.959 83.3918C115.519 77.0732 116.809 62.9476 115.766 55.7186C115.081 50.982 113.07 48.7025 108.239 48.0731C103.287 47.4276 96.9952 47.2875 92.2202 48.8304C92.1243 48.8597 92.0439 48.926 91.9968 49.0146C91.9497 49.1032 91.9397 49.2068 91.9691 49.3028C91.9984 49.3987 92.0647 49.4791 92.1533 49.5262C92.2419 49.5733 92.3456 49.5833 92.4415 49.5539H92.4392ZM115.174 50.8288C118.413 51.9996 121.916 53.2569 124.271 55.8993C129.571 61.848 126.737 71.623 125.419 78.5747C123.952 86.2961 122.552 94.0296 121.091 101.751C120.632 104.165 121.55 104.916 121.978 102.757C123.509 95.0534 124.949 87.3121 126.419 79.5954C127.816 72.27 130.684 62.5303 125.82 55.9353C123.341 52.5754 119.273 51.2729 115.425 50.1925C115.013 50.0769 114.754 50.6757 115.176 50.8288H115.174ZM96.4523 119.206C96.2708 119.959 97.3979 120.171 97.584 119.377C99.2563 112.275 101.527 103.833 102.336 96.7884C102.977 91.208 102.52 87.6131 96.2103 87.0135C91.1444 86.5327 86.953 88.5679 86.0311 93.8933C84.8259 100.854 85.5449 112.102 85.7953 119.532C85.7984 119.623 85.8363 119.709 85.9012 119.772C85.966 119.835 86.0528 119.871 86.1434 119.872C86.2341 119.873 86.3216 119.839 86.3878 119.777C86.454 119.715 86.4938 119.63 86.4989 119.54C86.7133 112.108 86.3749 104.461 86.8198 97.0993C87.126 92.0564 88.3328 88.3229 94.1705 88.0281C100.582 87.7049 101.864 90.1498 101.301 96.1231C100.584 103.703 97.6345 114.322 96.4546 119.204L96.4523 119.206ZM127.54 108.103C128.229 106.78 130.53 104.428 131.868 104.419C132.982 104.413 132.266 106.601 132.619 107.834C135.494 108.087 136.024 108.053 137.952 109.933C138.198 110.173 138.495 110.047 138.284 109.696C137.845 108.939 137.226 108.303 136.482 107.843C137.462 106.369 139.009 105.51 139.476 105.573C140.353 105.694 139.256 108.655 139.82 111.004C140.203 112.589 140.884 114.432 140.225 116.292C139.713 117.738 138.888 119.055 136.397 119.843C134.109 120.566 129.777 120.016 127.826 118.933C130.675 117.204 129.64 112.955 125.27 114.351C119.346 116.245 116.362 116.672 110.128 115.625C109.688 115.549 109.586 116.039 110.043 116.125C115.044 117.187 120.236 116.903 125.091 115.302C127.455 114.556 129.122 116.038 127.99 117.612C126.841 119.207 123.767 119.796 121.903 120.08C117.189 120.661 112.419 120.632 107.712 119.994C102.888 119.413 105.354 107.11 117.926 105.43C121.156 104.997 124.438 105.652 127.255 107.29C126.289 108.914 125.692 110.73 125.504 112.609C125.478 112.975 125.879 112.89 125.964 112.533C126.296 110.993 126.828 109.503 127.546 108.101L127.54 108.103ZM114.925 106.928C113.853 107.491 112.821 109.629 113.311 111.576C113.41 111.968 113.805 112.006 113.804 111.593C113.804 109.756 114.474 109.009 115.322 107.621C115.601 107.173 115.37 106.695 114.931 106.926L114.925 106.928ZM118.661 106.054C117.666 106.74 116.952 107.76 116.649 108.929C116.283 110.07 116.249 111.292 116.552 112.452C116.637 112.825 117.038 112.797 117.063 112.427C117.151 111.075 117.378 109.156 118.36 107.9C118.665 107.508 118.943 107.096 119.193 106.666C119.481 106.186 119.033 105.854 118.667 106.052L118.661 106.054ZM121.832 106.805C121.106 107.437 120.548 108.241 120.211 109.143C119.874 110.045 119.768 111.017 119.903 111.971C119.979 112.354 120.384 112.418 120.43 111.999C120.642 110.352 121.414 108.828 122.617 107.684C123.705 106.585 122.843 105.918 121.838 106.803L121.832 106.805ZM136.83 113.833C137.019 113.721 137.243 113.682 137.459 113.725C137.675 113.767 137.868 113.887 138.001 114.063C138.302 114.476 138.622 114.243 138.451 113.732C138.375 113.556 138.256 113.402 138.106 113.282C137.957 113.163 137.78 113.082 137.591 113.046C137.403 113.011 137.209 113.022 137.026 113.079C136.843 113.136 136.676 113.237 136.541 113.373C136.493 113.417 136.463 113.476 136.454 113.541C136.446 113.605 136.461 113.671 136.496 113.726C136.531 113.78 136.585 113.821 136.647 113.84C136.709 113.859 136.776 113.856 136.836 113.831L136.83 113.833ZM133.837 114.76C133.885 115.119 134.522 115.848 134.926 115.832C135.4 115.81 136.064 115.313 136.018 114.837C135.971 114.36 133.772 114.232 133.84 114.758L133.837 114.76ZM131.473 113.655C131.641 113.477 131.865 113.362 132.108 113.33C132.351 113.297 132.597 113.349 132.806 113.477C133.201 113.77 133.554 113.405 133.217 113.066C133.068 112.91 132.884 112.792 132.68 112.721C132.477 112.65 132.259 112.628 132.045 112.657C131.832 112.686 131.628 112.764 131.45 112.887C131.272 113.009 131.126 113.171 131.023 113.361C130.819 113.701 131.248 113.874 131.479 113.653L131.473 113.655ZM47.2247 77.2976C47.3862 75.9461 47.4681 75.2815 46.0271 75.2118C41.8877 75.0112 38.9451 76.0541 36.4045 78.0334C34.9695 79.13 33.7784 80.5132 32.9069 82.0951C32.0354 83.6769 31.5027 85.4229 31.3425 87.2218C31.3314 87.3088 31.3543 87.3967 31.4064 87.4672C31.4585 87.5378 31.5359 87.5855 31.6223 87.6005C31.7087 87.6155 31.7975 87.5966 31.8704 87.5477C31.9432 87.4989 31.9944 87.4238 32.0133 87.3382C32.5549 83.9845 34.3097 80.9467 36.9444 78.8022C39.6681 76.6761 43.1165 75.7019 46.5501 76.0885C46.3016 79.6751 44.8283 83.0674 42.377 85.6973C39.4673 88.7976 37.0531 89.4875 33.1924 90.3619C33.1149 90.3846 33.048 90.4342 33.0038 90.5017C32.9596 90.5693 32.9409 90.6504 32.9512 90.7305C32.9614 90.8106 32.9999 90.8845 33.0597 90.9387C33.1195 90.993 33.1967 91.0241 33.2774 91.0266C36.6373 90.9844 40.6971 88.6988 42.9781 86.3068C45.2996 83.8208 46.7845 80.6704 47.2247 77.2976ZM76.3098 119.559C75.1781 117.077 72.3656 113.893 69.3036 114.511C67.3894 114.894 65.2829 116.942 64.348 118.602C63.8564 119.474 64.0777 120.475 65.1811 120.614C67.7388 120.844 70.3086 120.911 72.8748 120.814C75.7686 120.849 78.6581 120.58 81.4958 120.012C81.9392 119.896 81.7194 119.292 81.3312 119.284C79.6635 119.252 77.9821 119.439 76.3098 119.559ZM53.9123 120.606C56.7959 120.769 60.727 120.759 63.459 120.083C63.8832 119.978 63.6941 119.377 63.3059 119.377C62.9177 119.377 62.5126 119.39 62.1167 119.404C61.4965 117.885 60.7385 116.341 59.2408 115.521C56.8304 114.204 54.2852 116.106 52.629 117.781C50.4911 119.946 51.704 120.481 53.9123 120.606ZM22.9305 86.5128C23.0265 86.5074 23.1166 86.4652 23.1822 86.395C23.2478 86.3247 23.2837 86.2319 23.2825 86.1358C23.2814 86.0398 23.2431 85.9479 23.1758 85.8793C23.1085 85.8107 23.0174 85.7707 22.9213 85.7677C19.063 85.8701 15.2401 85.0093 11.798 83.2631C6.71147 80.528 3.67087 76.4247 1.78725 71.0954C4.91284 70.7072 9.94578 70.469 14.3447 71.7202C21.0063 73.6138 23.736 78.1521 24.9918 84.5219C25.0684 84.9132 25.7376 84.8673 25.7016 84.4538C24.5959 71.6513 13.1043 69.0043 2.12646 70.1827C0.913587 70.3136 0.663203 70.3817 1.14559 71.6543C2.24111 74.7827 3.94426 77.6636 6.1571 80.1314C10.2276 84.3787 16.9864 87.2731 22.9305 86.5128ZM149.897 121.437C131.968 120.978 12.7896 121.465 4.98328 121.75C4.61115 121.763 4.60043 122.394 4.97792 122.406C14.4159 122.697 23.8823 122.514 33.3234 122.495C42.7645 122.475 139.296 122.543 149.891 122.215C150.332 122.202 150.34 121.448 149.897 121.437ZM35.8372 119.746C36.8784 114.614 37.654 109.431 38.1611 104.22C39.2445 104.137 39.3693 104.02 39.5906 102.884C39.7978 101.952 39.9451 101.008 40.0317 100.057C40.1159 98.7035 40.3119 98.1123 38.7644 98.0794C32.3892 97.9393 24.6288 97.8796 18.3287 98.3091C18.2425 98.3149 18.162 98.3538 18.1039 98.4177C18.0459 98.4816 18.0149 98.5655 18.0173 98.6518C18.0198 98.7381 18.0556 98.8201 18.1172 98.8805C18.1788 98.941 18.2615 98.9752 18.3478 98.9761C25.2146 99.4087 32.5347 98.5549 39.1748 99.1407C39.1651 100.53 39.0028 101.914 38.6909 103.269C31.8762 103.741 25.3991 103.674 18.5859 103.59C18.1351 102.174 17.7959 100.724 17.5714 99.2548C17.5055 98.8658 16.8493 98.8796 16.8593 99.2931C16.914 100.789 17.1917 102.269 17.6832 103.684C17.9305 104.425 18.4734 104.542 19.2644 104.537C25.39 104.495 31.2169 104.669 37.3686 104.276C36.733 110.262 35.7606 114.198 35.1097 118.765C34.8793 120.376 35.6588 120.696 35.8372 119.746ZM52.0317 88.8458C52.3916 88.8535 52.5371 88.2731 52.1527 88.195C49.8365 87.7233 47.2239 87.5602 45.2698 89.146C42.8295 91.1261 43.7499 95.1889 44.1833 97.9569C45.0003 103.169 47.7055 114.43 49.7637 119.828C49.9345 120.276 50.6649 119.982 50.5394 119.545C48.9015 113.819 46.4896 105.602 45.2055 97.8566C44.8908 95.9561 44.1978 92.7203 45.0524 90.9753C46.3089 88.4255 49.6894 88.793 52.0317 88.8458ZM19.2421 105.863C19.4451 108.794 20.8984 117.042 21.9742 119.589C22.0164 119.67 22.0856 119.734 22.1698 119.769C22.254 119.805 22.3479 119.81 22.4353 119.783C22.5226 119.756 22.5979 119.7 22.6481 119.624C22.6983 119.547 22.7202 119.456 22.71 119.365C21.599 114.851 20.8203 111.478 19.9236 105.746C19.8562 105.315 19.2146 105.44 19.2421 105.863ZM27.9711 77.7225C28.0181 77.7959 28.0917 77.8484 28.1764 77.8689C28.2611 77.8895 28.3505 77.8766 28.4259 77.8328C28.5013 77.7891 28.557 77.7179 28.5812 77.6342C28.6055 77.5505 28.5965 77.4606 28.5561 77.3833C26.7188 74.1066 26.1209 70.2785 26.8716 66.5977C27.4474 64.0008 28.7099 61.6062 30.5273 59.664C32.3447 57.7217 34.6502 56.3031 37.2032 55.5563C38.1177 58.8434 38.3543 62.2821 37.8984 65.6635C37.0072 71.4943 34.6932 74.5916 31.0255 78.8221C30.7537 79.136 31.1932 79.6207 31.5286 79.3581C33.8961 77.5326 36.0546 74.0954 37.2016 71.3488C39.2108 66.5395 39.6909 60.5027 37.9857 55.5149C37.6664 54.5792 37.5692 54.5103 36.648 54.7982C33.3791 55.8345 30.5313 57.8969 28.527 60.6796C26.7593 63.1476 25.7629 66.0843 25.6637 69.1184C25.5645 72.1526 26.3669 75.1481 27.9696 77.7263L27.9711 77.7225ZM28.1128 97.1407C28.1212 97.5695 28.854 97.5756 28.8693 97.1407C28.8831 96.7624 28.8979 96.3836 28.9137 96.0044C32.305 88.803 35.6702 84.8734 41.8326 79.914C42.1236 79.6796 41.756 79.1299 41.413 79.3014C36.7552 81.6391 31.1595 89.0472 29.0155 93.8742C29.5087 83.2815 30.3777 75.6658 33.05 65.0578C33.148 64.6704 32.4949 64.4897 32.367 64.8764C29.8578 72.4897 28.5684 82.7601 28.184 90.7815C25.2988 84.2539 19.4114 79.0296 12.9121 76.2807C12.5025 76.1077 12.2804 76.7401 12.677 76.9254C19.7215 80.1414 24.8915 85.914 28.112 92.8612C28.0791 94.2854 28.0845 95.7096 28.1113 97.1407H28.1128Z" fill="#69B93F"/>
<path d="M80.865 78.6826C80.2372 79.5011 79.7127 79.5938 79.3084 80.7607C79.0044 81.6708 79.0442 82.6606 79.4202 83.5433C79.4547 83.6221 79.4576 83.7112 79.428 83.792C79.3985 83.8729 79.3389 83.9392 79.2616 83.9771C79.1844 84.015 79.0954 84.0216 79.0134 83.9956C78.9314 83.9696 78.8626 83.9128 78.8214 83.8373C78.5303 83.3369 78.3464 82.7815 78.2814 82.2062C78.2164 81.631 78.2717 81.0485 78.4439 80.4958C78.7134 79.6306 79.5611 78.3266 80.5006 78.1298C80.5699 78.1175 80.6413 78.1258 80.706 78.1536C80.7707 78.1815 80.8258 78.2276 80.8645 78.2864C80.9033 78.3452 80.924 78.414 80.9241 78.4844C80.9242 78.5548 80.9036 78.6237 80.865 78.6826ZM83.0335 80.4698C83.0721 80.4221 83.0974 80.365 83.1066 80.3043C83.1158 80.2437 83.1087 80.1816 83.086 80.1246C83.0634 80.0676 83.0259 80.0177 82.9775 79.98C82.9291 79.9423 82.8715 79.9181 82.8107 79.91C81.8245 79.874 81.0006 81.2247 80.8528 82.0793C80.7601 82.6039 80.8226 83.1443 81.0326 83.6339C81.2427 84.1236 81.591 84.5413 82.035 84.8358C82.1059 84.8863 82.1935 84.9077 82.2797 84.8955C82.3659 84.8834 82.4442 84.8387 82.4984 84.7705C82.5526 84.7024 82.5786 84.6161 82.571 84.5293C82.5634 84.4426 82.5229 84.3621 82.4577 84.3044C82.1747 84.0386 81.9594 83.7091 81.8296 83.3432C81.6999 82.9773 81.6595 82.5857 81.7119 82.201C81.9141 81.041 82.7157 80.7814 83.0335 80.4698ZM107.796 77.2209C107.72 76.776 107.031 76.8266 107.031 77.2515C107.05 80.1711 106.065 83.2079 100.995 84.2125C95.4219 85.2402 89.6677 84.0742 84.9347 80.9583C84.8656 80.9097 84.7802 80.8903 84.6969 80.9042C84.6135 80.9181 84.539 80.9642 84.4894 81.0326C84.4399 81.101 84.4192 81.1862 84.4319 81.2697C84.4445 81.3532 84.4896 81.4284 84.5572 81.479C89.1469 85.0165 95.5068 86.2385 101.161 85.1803C105.389 84.3879 108.599 82.005 107.796 77.2209ZM86.3827 85.8542C85.7885 85.9101 77.4362 86.1543 76.8673 85.8695C76.2984 85.5846 74.0342 78.3212 73.4852 71.2959C73.3275 69.2722 73.0105 68.3395 70.5449 67.9766C68.548 67.6818 52.8121 67.8288 51.4132 67.9766C50.211 68.1029 49.2975 68.5754 49.3971 70.9812C49.6337 76.701 52.6528 87.4438 54.2807 88.319C56.051 89.2677 84.2135 89.0242 86.3115 88.603C88.042 88.2554 87.7265 85.7278 86.3827 85.8542ZM61.512 76.0371C59.2685 76.1183 59.8611 80.861 62.5556 80.7554C64.9645 80.6635 64.3497 75.9345 61.512 76.0371ZM65.8627 109.095C65.7593 108.712 65.1636 108.86 65.1904 109.242C65.2562 110.164 65.8834 113.354 66.1697 114.844C66.2272 115.144 66.7432 114.986 66.7938 114.71C66.9125 114.06 66.0978 109.968 65.8627 109.095ZM70.0557 109.018C69.8604 108.712 69.3313 108.926 69.463 109.286C70.1084 110.801 70.623 112.368 71.0013 113.97C71.0779 114.343 71.6789 114.249 71.6652 113.857C71.4812 112.147 70.9329 110.496 70.0572 109.016L70.0557 109.018ZM78.7502 113.802C78.225 112.292 77.9465 110.706 77.9255 109.107C77.9185 109.028 77.8837 108.955 77.8273 108.899C77.7709 108.844 77.6966 108.81 77.6178 108.805C77.5389 108.799 77.4607 108.822 77.3971 108.869C77.3335 108.916 77.2888 108.984 77.2708 109.061C77.0787 110.55 77.2199 112.064 77.6843 113.492C78.1437 114.965 79.1721 116.211 78.9294 117.78C78.9121 117.867 78.9268 117.958 78.9707 118.035C79.0147 118.112 79.085 118.17 79.1688 118.2C79.2525 118.229 79.3441 118.228 79.4267 118.195C79.5093 118.163 79.5774 118.101 79.6185 118.023C80.3865 116.663 79.2188 115.052 78.7502 113.8V113.802ZM58.8925 109.219C58.8524 109.151 58.7892 109.1 58.7143 109.074C58.6395 109.048 58.5578 109.049 58.4841 109.078C58.4103 109.107 58.3492 109.161 58.3118 109.231C58.2744 109.301 58.2631 109.382 58.28 109.459C58.5571 110.761 59.7279 113.264 58.9438 114.436C58.909 114.496 58.8923 114.564 58.8959 114.633C58.8994 114.701 58.923 114.767 58.9637 114.823C59.0044 114.878 59.0605 114.921 59.125 114.945C59.1895 114.969 59.2596 114.973 59.3267 114.958C60.9339 114.437 59.538 110.199 58.8925 109.217V109.219ZM65.9255 102.44C65.0273 98.9124 63.9882 92.9606 66.9247 90.1505C62.3389 90.0824 58.5166 89.9974 57.5694 89.9974C55.8305 89.9974 53.7064 90.4093 53.1743 92.8909C52.5227 95.9323 54.8182 102.833 57.0625 107.859C60.0409 108.034 63.0273 108.023 66.0043 107.827C65.8595 106.035 65.8322 104.234 65.9224 102.438L65.9255 102.44ZM68.6177 90.1742C63.7172 93.3595 67.2471 103.839 68.7165 108.015C71.894 108.193 75.0793 108.182 78.2555 107.982C77.8949 106.433 77.8313 102.229 78.5266 101.344C79.2219 100.458 81.3114 100.543 84.4301 100.585C84.4531 96.9813 84.2816 91.5586 86.4623 89.8511C84.5182 90.2906 75.9577 90.2684 68.6177 90.1719V90.1742ZM96.7954 74.1137C92.1453 75.92 89.7104 75.3005 85.0037 75.0815C81.7655 74.9284 77.3038 75.7829 76.4194 79.5073C76.3967 79.5918 76.4079 79.6819 76.4506 79.7583C76.4933 79.8347 76.5641 79.8914 76.6479 79.9165C76.7318 79.9415 76.8221 79.9328 76.8997 79.8923C76.9773 79.8518 77.036 79.7826 77.0633 79.6995C78.5365 75.8572 83.0358 75.776 86.4998 76.0877C89.9639 76.3993 94.0313 76.6834 97.1201 74.7262C97.2016 74.6837 97.2629 74.6105 97.2905 74.5228C97.3181 74.435 97.3096 74.3399 97.2671 74.2584C97.2246 74.1769 97.1514 74.1156 97.0636 74.088C96.9759 74.0604 96.8808 74.0688 96.7993 74.1114L96.7954 74.1137ZM95.578 56.7629C91.9616 53.7981 90.9309 47.2721 89.4975 44.1771C86.6476 38.0209 80.5304 36.1005 74.2042 37.5224C69.2731 38.6304 69.3413 43.9083 76.6032 43.3004C80.4768 42.9757 82.3229 41.9987 82.3367 41.9918C82.7716 43.6909 84.6675 46.2889 84.8911 45.8088C85.4378 44.6312 86.5932 45.1289 86.7816 46.2116C87.055 47.7828 86.1966 48.5745 85.3053 48.5401C84.9876 48.5278 86.571 54.0416 86.9654 55.0707C87.0687 55.3402 87.4133 55.2951 87.6614 55.3004C90.3646 55.3303 93.0425 55.825 95.578 56.7629ZM94.5657 35.6212C90.6086 32.5209 83.6384 29.0561 78.5947 28.7605C78.2646 28.7197 77.9295 28.7631 77.6208 28.8868C73.0266 30.1541 66.4967 33.3593 62.8428 36.3968C62.6176 36.5837 62.7945 36.9068 63.0265 36.9765C65.4844 37.6154 67.9078 38.3806 70.2869 39.269C70.7287 39.4543 70.914 38.7498 70.4929 38.5684C68.3593 37.6789 66.1494 36.9851 63.8902 36.4956C67.9898 33.7751 73.5113 30.429 78.3267 29.429C83.0274 29.7222 89.7594 32.9466 93.5274 35.7927C90.7756 36.3745 88.0644 37.1344 85.411 38.0676C85.3331 38.0974 85.2696 38.1559 85.2336 38.2311C85.1975 38.3063 85.1916 38.3925 85.2171 38.4719C85.2426 38.5513 85.2975 38.6179 85.3706 38.6581C85.4437 38.6982 85.5294 38.7089 85.6101 38.6878C88.728 37.857 91.2602 36.9757 94.4287 36.3486C94.5006 36.3252 94.565 36.2828 94.615 36.226C94.665 36.1691 94.6987 36.0999 94.7128 36.0255C94.7268 35.9511 94.7205 35.8743 94.6946 35.8032C94.6688 35.7321 94.6242 35.6692 94.5657 35.6212ZM62.4569 48.4712C63.0437 49.7574 63.3501 51.1538 63.3558 52.5676C63.316 52.9306 62.7976 52.9145 62.6858 52.6113C62.5104 52.1335 62.4446 51.5255 62.2869 51.0087C62.2294 51.9329 62.2509 52.8548 62.2003 53.7775C62.2036 53.8657 62.1722 53.9516 62.113 54.0171C62.0538 54.0825 61.9713 54.1222 61.8832 54.1277C61.7951 54.1332 61.7083 54.104 61.6414 54.0465C61.5745 53.9889 61.5327 53.9075 61.525 53.8196C61.4159 52.9098 61.3668 51.9938 61.378 51.0776C61.1152 51.7127 60.9134 52.3714 60.7754 53.0447C60.7582 53.1268 60.7091 53.1988 60.6389 53.2447C60.5687 53.2907 60.4831 53.3069 60.4009 53.2897C60.3188 53.2725 60.2468 53.2235 60.2009 53.1532C60.1549 53.083 60.1388 52.9974 60.1559 52.9153C60.3126 51.5874 60.6344 50.2844 61.1138 49.0362C61.3213 48.658 62.0595 47.8318 62.4569 48.4712ZM62.5388 37.7291C62.5648 37.6564 62.616 37.5953 62.683 37.5569C62.75 37.5185 62.8286 37.5053 62.9045 37.5196C62.9804 37.5339 63.0488 37.5748 63.0972 37.6349C63.1457 37.6951 63.1711 37.7706 63.169 37.8478C62.6851 40.8921 62.4569 43.9715 62.4867 47.0538C62.4867 47.5071 61.8129 47.4505 61.7976 47.0133C61.6989 43.9006 61.9475 40.7867 62.5388 37.7291ZM75.192 34.1579C75.1261 33.857 74.6062 33.7934 74.5672 34.125C74.5082 34.6242 74.4676 36.2552 74.4799 36.7345C74.4784 36.8268 74.5127 36.9161 74.5757 36.9836C74.6386 37.0511 74.7253 37.0916 74.8175 37.0966C74.9097 37.1015 75.0002 37.0706 75.07 37.0102C75.1398 36.9498 75.1836 36.8647 75.192 36.7728C75.2506 35.9022 75.2506 35.0286 75.192 34.1579ZM82.4401 33.6985C80.3797 32.743 78.0496 32.5401 75.8551 33.125C75.8132 33.1355 75.774 33.1545 75.7398 33.1807C75.7056 33.207 75.6771 33.24 75.656 33.2776C75.635 33.3153 75.622 33.3569 75.6176 33.3998C75.6133 33.4427 75.6177 33.4861 75.6308 33.5272C75.6438 33.5683 75.6651 33.6063 75.6934 33.6389C75.7216 33.6715 75.7562 33.6979 75.7951 33.7166C75.834 33.7353 75.8763 33.7459 75.9194 33.7476C75.9625 33.7494 76.0055 33.7423 76.0457 33.7268C78.1473 33.327 80.3209 33.5797 82.2747 34.4512C82.1666 35.3063 82.1545 36.1708 82.2387 37.0285C82.2415 37.1211 82.2809 37.2089 82.3483 37.2724C82.4157 37.3359 82.5056 37.3701 82.5982 37.3674C82.6908 37.3646 82.7785 37.3252 82.8421 37.2578C82.9056 37.1904 82.9398 37.1005 82.937 37.0079C82.803 34.1671 83.2402 34.138 82.4401 33.6985ZM81.0703 55.23C82.2455 54.7153 83.2869 53.9375 84.1139 52.9566C84.3589 52.6771 83.9171 52.2874 83.6438 52.5202C82.2824 53.6749 80.8582 55.0401 78.9202 54.8326C76.8566 54.6113 76.2571 52.5087 75.829 50.8019C75.7272 50.3946 75.0924 50.4957 75.179 50.9191C75.5924 52.9245 76.3589 55.1458 78.6591 55.5271C79.2407 55.6209 79.8355 55.5928 80.4056 55.4444C80.5105 56.1236 80.3903 56.7813 80.4439 57.3586C80.4575 57.4363 80.4986 57.5066 80.5597 57.5564C80.6209 57.6062 80.698 57.6323 80.7768 57.6299C80.8557 57.6275 80.931 57.5967 80.989 57.5432C81.047 57.4897 81.0837 57.4171 81.0925 57.3387C81.1718 56.6373 81.1644 55.9288 81.0703 55.2292V55.23ZM82.1591 50.1075C82.1382 50.0291 82.0899 49.9608 82.0229 49.9151C81.9558 49.8695 81.8746 49.8495 81.794 49.8588C81.7135 49.868 81.6389 49.906 81.5841 49.9657C81.5292 50.0255 81.4977 50.103 81.4952 50.184C81.617 51.3961 80.4401 51.6771 79.5235 51.9237C79.4444 51.9464 79.3772 51.9989 79.336 52.0702C79.2948 52.1414 79.2829 52.2259 79.3027 52.3058C79.3226 52.3857 79.3726 52.4547 79.4424 52.4984C79.5121 52.5421 79.5961 52.5571 79.6767 52.5401C80.8321 52.4321 82.5021 51.8594 82.1591 50.1067V50.1075ZM78.496 49.9045C78.2506 49.9741 77.992 49.9828 77.7425 49.9298C77.8467 49.5653 77.9546 49.2039 78.0396 48.8349C78.0639 48.7545 78.0554 48.6678 78.016 48.5937C77.9766 48.5196 77.9094 48.4641 77.8292 48.4393C77.749 48.4145 77.6623 48.4225 77.5879 48.4615C77.5136 48.5004 77.4577 48.5672 77.4324 48.6473C77.3025 48.9997 77.187 49.3573 77.0863 49.7192C77.0432 49.8122 77.0234 49.9142 77.0285 50.0165C77.0337 50.1189 77.0637 50.2184 77.1159 50.3065C77.1682 50.3947 77.2411 50.4688 77.3284 50.5224C77.4157 50.576 77.5147 50.6076 77.6169 50.6143C77.9913 50.6861 78.3776 50.6648 78.7418 50.5523C78.7886 50.5396 78.8323 50.5171 78.87 50.4865C78.9077 50.4558 78.9385 50.4176 78.9606 50.3744C78.9826 50.3311 78.9954 50.2837 78.9981 50.2352C79.0007 50.1867 78.9932 50.1381 78.976 50.0927C78.9587 50.0473 78.9322 50.006 78.8981 49.9714C78.864 49.9368 78.823 49.9098 78.7778 49.892C78.7326 49.8742 78.6842 49.8661 78.6356 49.8681C78.5871 49.8701 78.5395 49.8823 78.496 49.9038V49.9045ZM75.7272 48.4114C75.7096 48.1335 75.594 47.8218 75.2731 47.7989C74.4661 47.7437 74.7777 49.2284 75.4087 49.1534C75.7479 49.1143 75.744 48.6633 75.7272 48.4107V48.4114ZM80.3176 46.8915C80.297 46.8173 80.2599 46.7487 80.2091 46.6909C80.1583 46.633 80.0951 46.5874 80.0242 46.5575C79.9533 46.5275 79.8765 46.5139 79.7996 46.5178C79.7228 46.5217 79.6477 46.5429 79.5802 46.5799C79.4557 46.6824 79.3714 46.8256 79.3423 46.9842C79.3132 47.1428 79.341 47.3066 79.4209 47.4466C79.7624 48.2391 80.7655 48.0485 80.3176 46.8915ZM83.5182 45.2453C82.9267 45.0866 82.3041 45.0853 81.7119 45.2414C80.4692 42.7047 77.692 43.1074 77.9102 46.1289C77.7387 46.1036 77.5637 46.114 77.3964 46.1594C77.2291 46.2049 77.0729 46.2844 76.9378 46.393C76.8103 46.0057 76.5865 45.6571 76.2875 45.3798C75.9884 45.1026 75.6238 44.9059 75.228 44.808C73.4033 44.511 73.0656 46.9375 73.3903 48.2537C73.6437 49.2774 74.4301 50.3601 75.6162 50.2131C77.398 49.9926 77.0519 47.2813 77.1039 47.2116C77.1914 47.0649 77.3255 46.9516 77.4848 46.8899C77.6441 46.8281 77.8194 46.8214 77.983 46.8708C78.2127 48.1304 79.2081 49.6151 80.6774 49.2667C82.0886 48.9321 82.2854 47.0347 81.9539 45.877C82.4543 45.8231 82.9589 45.8195 83.46 45.8662C83.5286 45.8521 83.5907 45.8163 83.6373 45.7641C83.6839 45.7118 83.7124 45.646 83.7186 45.5763C83.7248 45.5065 83.7084 45.4367 83.6717 45.3771C83.635 45.3174 83.5801 45.2712 83.5151 45.2453H83.5182ZM80.6759 48.4972C81.6966 48.0186 81.365 46.1051 80.986 45.4053C80.6874 44.8509 79.9508 43.9949 79.2333 44.3371C78.6093 44.6342 78.437 45.5378 78.6208 46.4198C78.9094 47.8532 79.5289 49.0332 80.6729 48.4972H80.6759ZM76.378 47.1036C76.2456 46.2713 75.8198 45.5186 74.9898 45.4956C73.9339 45.4681 73.8512 47.269 74.0097 48.014C74.1522 48.6787 74.679 49.5768 75.4783 49.5179C76.4477 49.4474 76.4692 47.7001 76.375 47.1036H76.378Z" fill="#EC9A29"/>
</svg>
