<?xml version="1.0" encoding="iso-8859-1"?>
<!-- Uploaded to: SVG Repo, www.svgrepo.com, Generator: SVG Repo Mixer Tools -->
<svg height="800px" width="800px" version="1.1" id="Layer_1" xmlns="http://www.w3.org/2000/svg" xmlns:xlink="http://www.w3.org/1999/xlink" 
	 viewBox="0 0 512 512" xml:space="preserve">
<path style="fill:#74DBC9;" d="M470.313,11.758H196.676c-18.891,0-34.205,15.314-34.205,34.205v171.023
	c0,18.891,15.314,34.205,34.205,34.205h136.818l102.614,85.511V251.19h34.205c18.891,0,34.205-15.314,34.205-34.205V45.962
	C504.518,27.072,489.204,11.758,470.313,11.758z"/>
<g>
	<path style="fill:#6AC8B7;" d="M196.676,216.985V45.962c0-18.891,15.314-34.205,34.205-34.205h-34.205
		c-18.891,0-34.205,15.314-34.205,34.205v171.023c0,18.891,15.314,34.205,34.205,34.205h34.205
		C211.99,251.19,196.676,235.876,196.676,216.985z"/>
	<polygon style="fill:#6AC8B7;" points="367.699,251.19 333.495,251.19 436.109,336.701 436.109,308.197 	"/>
</g>
<path style="fill:#C3C4C6;" d="M316.392,71.616H42.756c-18.891,0-34.205,15.314-34.205,34.205v171.023
	c0,18.891,15.314,34.205,34.205,34.205h25.653v85.511l102.614-85.511h145.37c18.891,0,34.205-15.314,34.205-34.205V105.82
	C350.597,86.93,335.283,71.616,316.392,71.616z"/>
<path style="fill:#AFB0B4;" d="M102.614,368.055v-57.007H76.96c-18.891,0-34.205-15.314-34.205-34.205V105.82
	c0-18.891,15.314-34.205,34.205-34.205H42.756c-18.891,0-34.205,15.314-34.205,34.205v171.023c0,18.891,15.314,34.205,34.205,34.205
	h25.653v85.511L102.614,368.055z"/>
<g>
	<circle style="fill:#FFFFFF;" cx="102.614" cy="191.332" r="17.102"/>
	<circle style="fill:#FFFFFF;" cx="179.574" cy="191.332" r="17.102"/>
	<circle style="fill:#FFFFFF;" cx="256.534" cy="191.332" r="17.102"/>
</g>
<g>
	<path style="fill:#F07B52;" d="M183.85,473.52h-47.031v-72.682c0-7.084-5.743-12.827-12.827-12.827s-12.827,5.743-12.827,12.827
		v85.511c0,7.084,5.743,12.824,12.827,12.824h59.858c7.084,0,12.827-5.743,12.827-12.827
		C196.676,479.263,190.933,473.52,183.85,473.52z"/>
	<path style="fill:#F07B52;" d="M230.881,388.012c-7.084,0-12.827,5.743-12.827,12.827v85.511c0,7.084,5.743,12.827,12.827,12.827
		s12.827-5.743,12.827-12.827v-85.511C243.708,393.755,237.965,388.012,230.881,388.012z"/>
	<path style="fill:#F07B52;" d="M355.361,388.929c-6.58-2.631-14.042,0.569-16.674,7.146l-22.295,55.739l-22.295-55.739
		c-2.632-6.578-10.094-9.775-16.674-7.146c-6.577,2.631-9.776,10.096-7.146,16.673l34.205,85.511
		c1.948,4.87,6.663,8.063,11.91,8.063s9.961-3.193,11.91-8.063l34.205-85.511C365.138,399.024,361.938,391.56,355.361,388.929z"/>
	<path style="fill:#F07B52;" d="M448.935,473.52h-38.48v-17.102h21.378c7.084,0,12.827-5.743,12.827-12.827
		c0-7.084-5.743-12.827-12.827-12.827h-21.378v-17.102h38.48c7.084,0,12.827-5.743,12.827-12.827
		c0-7.084-5.743-12.827-12.827-12.827h-51.307c-7.084,0-12.827,5.746-12.827,12.83v85.511c0,7.084,5.743,12.824,12.827,12.824
		h51.307c7.084,0,12.827-5.743,12.827-12.827C461.762,479.263,456.019,473.52,448.935,473.52z"/>
</g>
<path d="M503.983,96.735c4.428,0,8.017-3.589,8.017-8.017V45.962c0-23.281-18.406-41.687-41.687-41.687H196.676
	c-23.28,0-42.756,18.406-42.756,41.687v18.171H42.756C19.475,64.134,0,82.54,0,105.82v171.023c0,23.28,19.475,42.756,42.756,42.756
	h17.102v76.96c0,6.64,8.288,10.7,13.416,6.426l100.651-83.387h142.467c21.445,0,39.194-16.342,41.862-37.074l72.454,60.467
	c5.129,4.273,12.882,0.35,12.882-6.292v-76.96h26.722c23.28,0,41.687-19.475,41.687-42.756v-94.063c0-4.427-3.588-8.017-8.017-8.017
	s-8.017,3.589-8.017,8.017v94.063c0,14.44-11.213,26.722-25.653,26.722h-34.205c-4.428,0-8.551,3.055-8.551,7.482v68.395
	l-68.941-57.452c-0.174-0.144,0.532-0.276-0.537-0.403v-44.745h43.825c4.428,0,8.017-3.589,8.017-8.017s-3.588-8.017-8.017-8.017
	h-43.825v-52.376h9.62c4.428,0,8.017-3.589,8.017-8.017c0-4.427-3.588-8.017-8.017-8.017h-9.62V105.82
	c0-23.281-18.406-41.687-41.687-41.687H169.954V45.962c0-14.44,12.283-25.653,26.722-25.653h273.637
	c14.441,0,25.653,11.214,25.653,25.653v42.756C495.967,93.146,499.555,96.735,503.983,96.735z M342.046,105.82v171.023
	c0,14.44-11.213,26.722-25.653,26.722h-145.37c-1.875,0-3.959,0.39-5.399,1.591l-89.733,74.287v-68.395
	c0-4.427-3.055-7.482-7.482-7.482H42.756c-14.44,0-26.722-12.283-26.722-26.722V105.82c0-14.44,12.283-25.653,26.722-25.653h273.637
	C330.833,80.167,342.046,91.381,342.046,105.82z"/>
<path d="M436.109,64.134h-76.96c-4.428,0-8.017,3.589-8.017,8.017s3.588,8.017,8.017,8.017h76.96c4.428,0,8.017-3.589,8.017-8.017
	S440.537,64.134,436.109,64.134z"/>
<path d="M436.109,132.543h-42.756c-4.428,0-8.017,3.589-8.017,8.017c0,4.427,3.588,8.017,8.017,8.017h42.756
	c4.428,0,8.017-3.589,8.017-8.017C444.125,136.132,440.537,132.543,436.109,132.543z"/>
<path d="M102.614,216.451c13.851,0,25.119-11.268,25.119-25.119c0-13.851-11.268-25.119-25.119-25.119s-25.119,11.268-25.119,25.119
	C77.495,205.183,88.763,216.451,102.614,216.451z M102.614,182.246c5.01,0,9.086,4.076,9.086,9.086c0,5.01-4.076,9.086-9.086,9.086
	c-5.01,0-9.086-4.076-9.086-9.086C93.528,186.322,97.604,182.246,102.614,182.246z"/>
<path d="M179.574,216.451c13.851,0,25.119-11.268,25.119-25.119c0-13.851-11.268-25.119-25.119-25.119
	c-13.851,0-25.119,11.268-25.119,25.119C154.455,205.183,165.723,216.451,179.574,216.451z M179.574,182.246
	c5.01,0,9.086,4.076,9.086,9.086c0,5.01-4.076,9.086-9.086,9.086s-9.086-4.076-9.086-9.086
	C170.489,186.322,174.564,182.246,179.574,182.246z"/>
<path d="M256.534,216.451c13.851,0,25.119-11.268,25.119-25.119c0-13.851-11.268-25.119-25.119-25.119s-25.119,11.268-25.119,25.119
	C231.415,205.183,242.684,216.451,256.534,216.451z M256.534,182.246c5.01,0,9.086,4.076,9.086,9.086
	c0,5.01-4.076,9.086-9.086,9.086c-5.01,0-9.086-4.076-9.086-9.086C247.449,186.322,251.525,182.246,256.534,182.246z"/>
<path d="M183.85,466.038h-39.549v-65.199c0-11.493-9.351-20.843-20.843-20.843s-20.843,9.35-20.843,20.843v85.511
	c0,11.493,9.885,21.375,21.378,21.375h59.858c11.493,0,20.843-9.351,20.843-20.843S195.342,466.038,183.85,466.038z M183.85,491.691
	h-59.858c-2.652,0-5.344-2.689-5.344-5.341v-85.511c0-2.652,2.158-4.81,4.81-4.81c2.652,0,4.81,2.158,4.81,4.81v72.685
	c0,4.427,4.124,8.548,8.551,8.548h47.031c2.652,0,4.81,2.158,4.81,4.81S186.502,491.691,183.85,491.691z"/>
<path d="M230.347,379.995c-11.493,0-20.843,9.351-20.843,20.843v85.511c0,11.493,9.351,20.843,20.843,20.843
	c11.493,0,20.843-9.351,20.843-20.843v-85.511C251.19,389.344,241.839,379.995,230.347,379.995z M235.157,486.35
	c0,2.652-2.158,4.81-4.81,4.81s-4.81-2.158-4.81-4.81v-85.511c0-2.652,2.158-4.81,4.81-4.81s4.81,2.158,4.81,4.81V486.35z"/>
<path d="M358.338,381.486C358.338,381.485,358.338,381.485,358.338,381.486c-10.667-4.266-22.825,0.942-27.094,11.611l-14.851,37.13
	l-14.852-37.13c-4.268-10.667-16.425-15.873-27.094-11.611c-10.538,4.215-15.838,16.53-11.611,27.093l34.205,85.511
	c3.184,7.96,10.78,13.102,19.352,13.102s16.169-5.144,19.352-13.102l34.204-85.511C374.176,398.016,368.876,385.701,358.338,381.486
	z M355.063,402.624l-34.205,85.511c-1.579,3.946-7.352,3.947-8.931,0l-34.206-85.511c-1.029-2.574,0.399-5.546,3.029-6.376
	c2.361-0.744,4.985,0.51,5.902,2.805l22.295,55.739c2.632,6.575,12.255,6.575,14.888,0l22.294-55.737
	c0.872-2.179,3.277-3.43,5.561-2.896C354.514,396.816,356.145,399.924,355.063,402.624z"/>
<path d="M448.935,422.213c11.493,0,20.843-9.351,20.843-20.843c0-11.493-9.351-20.843-20.843-20.843h-51.307
	c-11.493,0-21.378,8.818-21.378,20.312v85.511c0,11.493,9.885,21.375,21.378,21.375h51.307c11.493,0,20.843-9.351,20.843-20.843
	s-9.351-20.843-20.843-20.843h-30.998v-1.069h13.896c11.493,0,20.843-9.351,20.843-20.843s-9.351-20.843-20.843-20.843h-13.896
	v-1.069H448.935z M410.455,439.315h21.378c2.652,0,4.81,2.158,4.81,4.81s-2.158,4.81-4.81,4.81h-21.378
	c-4.428,0-8.551,3.058-8.551,7.485v17.102c0,4.427,4.123,8.548,8.551,8.548h38.48c2.652,0,4.81,2.158,4.81,4.81
	s-2.158,4.81-4.81,4.81h-51.307c-2.652,0-5.344-2.689-5.344-5.341v-85.511c0-2.652,2.693-4.279,5.344-4.279h51.307
	c2.652,0,4.81,2.158,4.81,4.81s-2.158,4.81-4.81,4.81h-38.48c-4.428,0-8.551,3.058-8.551,7.485v17.102
	C401.904,435.195,406.027,439.315,410.455,439.315z"/>
</svg>