<?xml version="1.0" encoding="utf-8"?><!-- Uploaded to: SVG Repo, www.svgrepo.com, Generator: SVG Repo Mixer Tools -->
<svg width="800px" height="800px" viewBox="0 0 48 48" xmlns="http://www.w3.org/2000/svg"><title>70 Basic icons by Xicons.co</title><path d="M43.12,12.57L34.58,4a3,3,0,0,0-4.24,0L6.84,27.52a2,2,0,0,0,0,2.82l10,10a2,2,0,0,0,2.82,0L43.12,16.82A3,3,0,0,0,43.12,12.57Z" fill="#f9d74a"/><rect x="29.58" y="6.55" width="4" height="18.05" transform="translate(-1.77 26.89) rotate(-45)" fill="#c8c8c8"/><path d="M19.67,37.51l-10-10a2,2,0,0,0-3.37,1.06L4.11,40.73A2,2,0,0,0,6.42,43l12.18-2.15A2,2,0,0,0,19.67,37.51Z" fill="#edcabb"/><path d="M8.24,41.94l-3-3a0.5,0.5,0,0,0-.84.27L4,41.13a1.72,1.72,0,0,0,1.7,2l0.3,0,2-.34A0.5,0.5,0,0,0,8.24,41.94Z" fill="#4d4d4d"/><path d="M26.35,8l4-4a3,3,0,0,1,4.24,0l8.54,8.54a3,3,0,0,1,0,4.24l-4,4" fill="#ec5044"/></svg>