<?xml version="1.0" encoding="iso-8859-1"?>
<!-- Uploaded to: SVG Repo, www.svgrepo.com, Generator: SVG Repo Mixer Tools -->
<svg height="800px" width="800px" version="1.1" id="Layer_1" xmlns="http://www.w3.org/2000/svg" xmlns:xlink="http://www.w3.org/1999/xlink" 
	 viewBox="0 0 506.027 506.027" xml:space="preserve">
<g transform="translate(1)">
	<path style="fill:#ECF4F7;" d="M353.987,87.331c-6.827,7.68-10.24,17.067-10.24,28.16c0,23.893,18.773,42.667,42.667,42.667
		c23.893,0,42.667-18.773,42.667-42.667s-18.773-42.667-42.667-42.667C373.613,72.824,362.52,78.797,353.987,87.331L353.987,87.331z
		 M245.613,51.49l21.333-21.333l0,0c17.067-17.067,34.133-25.6,59.733-25.6h136.533c18.773,0,34.133,15.36,34.133,34.133v136.533
		c0,17.067-3.413,29.867-11.093,41.813c-4.267,5.973-8.533,11.947-14.507,17.92l-230.4,230.4l-23.04,23.04
		c-13.653,13.653-34.987,13.653-48.64,0L12.653,331.384C-1,317.731-1,296.397,12.653,283.597L245.613,51.49z"/>
	<path style="fill:#50DD8E;" d="M353.987,87.467c7.68-8.533,19.627-14.507,32.427-14.507c23.893,0,42.667,18.773,42.667,42.667
		s-18.773,42.667-42.667,42.667c-23.893,0-42.667-18.773-42.667-42.667C343.747,104.534,348.013,95.147,353.987,87.467z
		 M487.107,217.174L336.067,482.56c-9.387,16.213-30.72,22.187-46.933,12.8L242.2,466.347l0,0l230.4-230.4
		C477.72,229.12,482.84,223.147,487.107,217.174L487.107,217.174z"/>
</g>
<path style="fill:#51565F;" d="M307.2,503.894c-6.827,0-12.8-1.707-18.773-5.12l-19.627-12.8c-1.707-1.707-2.56-4.267-0.853-5.973
	c1.707-1.707,4.267-2.56,5.973-0.853l18.773,11.947c14.507,8.533,32.427,3.413,40.96-11.093l98.133-166.4
	c0.853-1.707,3.413-2.56,5.973-1.707c1.707,0.853,2.56,3.413,1.707,5.973l-98.133,166.4C332.8,497.067,320,503.894,307.2,503.894z
	 M195.413,503.04c-10.24,0-19.627-3.413-27.307-11.093L11.093,334.934C3.413,328.107,0,317.867,0,307.627
	C0,297.387,4.267,288,11.093,280.32L238.08,53.333c-29.013-6.827-55.467-11.093-77.653-13.653
	c-37.547-3.413-40.96,3.413-40.96,3.413c-0.853,1.707,7.68,13.653,56.32,33.28c2.56,0.853,3.413,3.413,2.56,5.12
	c-0.853,2.56-3.413,3.413-5.12,2.56c-43.52-17.067-64-31.573-61.44-42.667c1.707-5.973,8.533-13.653,50.347-9.387
	c28.16,2.56,64,9.387,101.547,19.627C313.173,65.28,406.187,96,400.213,119.04c-1.707,5.973-8.533,9.387-20.48,10.24
	c-2.56,0-4.267-1.707-4.267-4.267c0-2.56,1.707-4.267,4.267-4.267c10.24-0.853,12.8-3.413,12.8-4.267
	c0.853-3.413-11.093-12.8-34.987-23.893c-5.12,6.827-7.68,14.507-7.68,23.04c0,21.333,17.067,38.4,38.4,38.4s38.4-17.067,38.4-38.4
	s-17.067-38.4-38.4-38.4c-2.56,0-4.267-1.707-4.267-4.267s1.707-4.267,4.267-4.267c25.6,0,46.933,21.333,46.933,46.933
	s-21.333,46.933-46.933,46.933s-46.933-21.333-46.933-46.933c0-9.387,2.56-18.773,8.533-26.453
	c-21.333-9.387-50.347-19.627-87.893-29.867c-4.267-0.853-8.533-2.56-12.8-3.413l-230.4,230.4c-5.973,5.973-8.533,12.8-8.533,21.333
	c0,7.68,3.413,15.36,8.533,21.333l157.013,157.013c11.947,11.947,30.72,11.947,42.667,0l253.44-253.44
	c17.067-17.067,24.747-34.133,24.747-56.32V39.68c0-16.213-13.653-29.867-29.867-29.867H330.24c-23.04,0-39.253,6.827-56.32,24.747
	c-1.707,1.707-4.267,1.707-5.973,0c-1.707-1.707-1.707-4.267,0-5.973C286.72,9.813,305.493,2.133,331.093,2.133h136.533
	c21.333,0,38.4,17.067,38.4,38.4v136.533c0,25.6-7.68,43.52-26.453,63.147l-253.44,253.44
	C215.04,499.627,204.8,503.04,195.413,503.04z M183.467,350.294c-9.387,0-17.067-3.413-23.893-8.533l-6.827,6.827
	c-1.707,1.707-4.267,1.707-5.973,0c-1.707-1.707-1.707-4.267,0-5.973l6.827-6.827c-5.12-6.827-8.533-14.507-8.533-23.893
	c0-7.68,2.56-15.36,6.827-21.333c1.707-1.707,4.267-2.56,5.973-0.853c1.707,1.707,2.56,4.267,0.853,5.973
	c-3.413,5.12-5.12,11.093-5.12,17.067c0,16.213,13.653,29.867,29.867,29.867s29.867-13.653,29.867-29.867
	c0-5.12-3.413-15.36-7.68-23.04c-4.267-7.68-9.387-16.213-9.387-28.16c0-21.333,17.067-38.4,38.4-38.4
	c9.387,0,17.067,3.413,23.893,8.533l6.827-6.827c1.707-1.707,4.267-1.707,5.973,0s1.707,4.267,0,5.973l-6.827,6.827
	c5.12,6.827,8.533,14.507,8.533,23.893c0,10.24-4.267,19.627-11.093,27.307c-1.707,1.707-4.267,1.707-5.973,0
	c-1.707-1.707-1.707-4.267,0-5.973c5.973-5.973,8.533-12.8,8.533-21.333c0-7.68-3.413-15.36-7.68-20.48c0,0-0.853,0-0.853-0.853
	l-0.853-0.853c-5.12-5.12-12.8-7.68-20.48-7.68c-16.213,0-29.867,13.653-29.867,29.867c0,7.68,2.56,14.507,7.68,23.04
	c5.12,8.533,9.387,20.48,9.387,28.16C221.867,333.227,204.8,350.294,183.467,350.294z"/>
</svg>