<?xml version="1.0" encoding="iso-8859-1"?>
<!-- Uploaded to: SVG Repo, www.svgrepo.com, Generator: SVG Repo Mixer Tools -->
<svg height="800px" width="800px" version="1.1" id="Layer_1" xmlns="http://www.w3.org/2000/svg" xmlns:xlink="http://www.w3.org/1999/xlink" 
	 viewBox="0 0 489.947 489.947" xml:space="preserve">
<g>
	<path style="fill:#FBB03B;" d="M390.427,84.078V451.67c0,4.228-3.427,7.656-7.655,7.656H130.143v15.311h275.595V84.167
		l-15.226-0.085C390.483,84.082,390.455,84.078,390.427,84.078z"/>
	<path style="fill:#FCC062;" d="M375.116,444.014V61.244h-15.311v359.804c0,4.228-3.427,7.655-7.655,7.655H107.176v15.311
		L375.116,444.014L375.116,444.014z"/>
	<path style="fill:#FDD089;" d="M344.494,413.392V38.277H127.233V93.7c0,5.268,4.285,9.554,9.553,9.554s9.553-4.286,9.553-9.554
		V59.282c0-4.228,3.427-7.655,7.655-7.655s7.656,3.427,7.656,7.655V93.7c0,13.71-11.154,24.865-24.864,24.865
		c-13.711,0-24.865-11.155-24.865-24.865V38.277h-27.71v375.115H344.494z M237.319,244.973h-45.933
		c-4.228,0-7.655-3.428-7.655-7.656c0-4.228,3.427-7.655,7.655-7.655h45.933c4.228,0,7.655,3.427,7.655,7.655
		C244.974,241.546,241.547,244.973,237.319,244.973z M160.764,168.419h107.177c4.228,0,7.656,3.427,7.656,7.656
		c0,4.228-3.428,7.655-7.656,7.655H160.764c-4.228,0-7.656-3.428-7.656-7.655C153.109,171.846,156.536,168.419,160.764,168.419z
		 M160.764,199.041h107.177c4.228,0,7.656,3.427,7.656,7.656c0,4.228-3.428,7.655-7.656,7.655H160.764
		c-4.228,0-7.656-3.427-7.656-7.655C153.109,202.468,156.536,199.041,160.764,199.041z"/>
	<path d="M413.436,68.899l-22.839-0.128c-0.015,0-0.029,0-0.044,0c-0.043,0-0.084,0.006-0.126,0.006v-15.19
		c0-4.228-3.427-7.656-7.655-7.656h-22.967V30.622c0-4.228-3.427-7.656-7.655-7.656H161.571C160.597,10.14,149.858,0,136.786,0
		c-13.071,0-23.811,10.14-24.785,22.966H76.555c-4.228,0-7.655,3.428-7.655,7.656v390.426c0,4.228,3.427,7.655,7.655,7.655h15.31
		v22.966c0,4.228,3.427,7.656,7.655,7.656h15.311v22.966c0,4.228,3.427,7.656,7.655,7.656h290.906c4.228,0,7.655-3.427,7.655-7.656
		V76.554C421.049,72.343,417.648,68.922,413.436,68.899z M405.738,474.636H130.143v-15.311h252.629c4.228,0,7.655-3.428,7.655-7.656
		V84.078c0.028,0.001,0.056,0.005,0.085,0.005l15.226,0.085V474.636z M84.211,38.277h27.711V93.7
		c0,13.71,11.154,24.865,24.865,24.865c13.71,0,24.864-11.155,24.864-24.865V59.282c0-4.228-3.427-7.655-7.656-7.655
		c-4.228,0-7.655,3.427-7.655,7.655V93.7c0,5.268-4.285,9.554-9.553,9.554s-9.553-4.286-9.553-9.554V38.277h217.261v375.115H84.211
		V38.277z M107.176,428.703h244.973c4.228,0,7.655-3.427,7.655-7.655V61.244h15.311v382.771h-267.94L107.176,428.703
		L107.176,428.703z M136.786,15.311c4.618,0,8.48,3.294,9.363,7.655h-18.726C128.306,18.605,132.168,15.311,136.786,15.311z"/>
	<path style="fill:#FFFFFF;" d="M160.764,183.73h107.177c4.228,0,7.656-3.428,7.656-7.655c0-4.228-3.428-7.656-7.656-7.656H160.764
		c-4.228,0-7.656,3.427-7.656,7.656C153.109,180.302,156.536,183.73,160.764,183.73z"/>
	<path style="fill:#FFFFFF;" d="M160.764,214.352h107.177c4.228,0,7.656-3.427,7.656-7.655s-3.428-7.656-7.656-7.656H160.764
		c-4.228,0-7.656,3.427-7.656,7.656C153.109,210.924,156.536,214.352,160.764,214.352z"/>
	<path style="fill:#FFFFFF;" d="M237.319,229.663h-45.933c-4.228,0-7.655,3.427-7.655,7.655s3.427,7.656,7.655,7.656h45.933
		c4.228,0,7.655-3.428,7.655-7.656C244.974,233.09,241.547,229.663,237.319,229.663z"/>
</g>
</svg>