<svg width="77" height="52" viewBox="0 0 77 52" fill="none" xmlns="http://www.w3.org/2000/svg">
<path d="M40.6313 36.2213C47.2118 35.8875 53.2405 35.7363 54.2125 36.2812C54.7132 36.5627 55.4921 40.2625 55.85 42.737C57.8713 42.4957 60.4113 42.2737 62.9489 42.1008C62.572 40.197 62.3396 39.0042 61.4846 37.1647C61.3551 36.8861 61.7098 36.7734 61.8542 37.028C62.7109 38.5963 63.2862 40.3026 63.5541 42.0694C66.9897 41.8438 70.3794 41.7075 72.504 41.7075C72.2627 39.6283 70.9264 34.8371 68.5307 32.3803C66.6841 30.4866 63.1017 28.8012 59.9311 28.4022C59.8817 28.8416 59.7122 29.2589 59.4412 29.6083C59.1702 29.9577 58.8082 30.2257 58.3949 30.3828C56.701 31.0484 53.6092 31.2233 50.8513 29.7084C47.9417 30.5385 42.6095 33.705 40.6313 36.2213Z" fill="#69B93F"/>
<path d="M76.1004 51.0198C58.7503 51.3459 41.4786 51.2816 24.1378 51.3013C23.7871 51.3013 23.7079 51.8494 24.0706 51.8559C41.3725 52.1756 58.8806 51.7991 76.1797 51.5872C76.5492 51.584 76.468 51.0129 76.1004 51.0198Z" fill="#69B93F"/>
<path d="M33.3809 16.739C35.1621 16.7724 43.8426 16.6107 44.7655 16.5709C45.0438 16.5588 45.0366 16.0786 44.7655 16.0786C43.5265 16.0786 35.3748 16.2359 33.3809 16.3404C33.3327 16.347 33.2885 16.3707 33.2565 16.4074C33.2244 16.444 33.2068 16.491 33.2068 16.5397C33.2068 16.5884 33.2244 16.6354 33.2565 16.672C33.2885 16.7087 33.3327 16.7325 33.3809 16.739Z" fill="#69B93F"/>
<path d="M26.2713 14.5155C26.1418 14.583 23.9022 17.275 24.9341 16.9549C25.0805 16.9095 26.5427 15.0568 26.6147 14.7246C26.6233 14.6815 26.6185 14.6369 26.6009 14.5967C26.5833 14.5564 26.5537 14.5226 26.5162 14.4998C26.4787 14.4769 26.4351 14.4662 26.3913 14.469C26.3474 14.4718 26.3056 14.488 26.2713 14.5155Z" fill="#69B93F"/>
<path d="M21.3913 8.39995C22.1115 8.43374 36.7777 8.39714 37.6519 8.31108C37.7761 8.29462 37.8897 8.23265 37.9708 8.1372C38.0519 8.04174 38.0946 7.91958 38.0908 7.79439C38.0869 7.66921 38.0367 7.54991 37.9499 7.45962C37.8631 7.36933 37.7459 7.31448 37.621 7.30569C33.5395 7.35637 25.0549 7.37728 21.4142 7.4569C20.8681 7.46937 20.8222 8.37422 21.3913 8.39995Z" fill="#69B93F"/>
<path d="M41.9207 23.8764C40.9768 23.8764 33.8004 23.796 33.2921 23.9412C33.1192 23.991 33.0508 24.2709 33.2583 24.33C33.8004 24.4857 40.9394 24.4068 41.9251 24.4068C42.9108 24.4068 43.8675 24.4422 44.8327 24.4068C45.1279 24.396 45.1061 23.9013 44.8134 23.8885C43.853 23.8458 42.883 23.8764 41.9207 23.8764Z" fill="#69B93F"/>
<path d="M33.179 27.6337C33.1181 27.6518 33.0668 27.6932 33.0362 27.7489C33.0056 27.8047 32.9983 27.8702 33.0158 27.9313C33.0986 28.2128 32.7266 28.1163 44.9573 28.3202C45.0248 28.3133 45.0873 28.2816 45.1328 28.2313C45.1783 28.181 45.2034 28.1156 45.2034 28.0477C45.2034 27.9799 45.1783 27.9145 45.1328 27.8641C45.0873 27.8138 45.0248 27.7821 44.9573 27.7753C33.2241 27.5859 33.9524 27.5738 33.179 27.6337Z" fill="#69B93F"/>
<path d="M44.696 20.6616C44.7614 20.6572 44.8228 20.6286 44.8684 20.5814C44.9139 20.5342 44.9403 20.4718 44.9423 20.4063C44.9444 20.3407 44.922 20.2767 44.8795 20.2268C44.837 20.1768 44.7775 20.1445 44.7124 20.136C42.9671 20.0877 34.8452 20.0202 33.3717 20.3137C33.1304 20.3616 33.1843 20.7131 33.4147 20.7336C34.661 20.8458 36.5664 20.4271 44.696 20.6616Z" fill="#69B93F"/>
<path d="M55.4227 13.5169C55.4444 10.0528 55.6052 5.73123 55.3145 2.37003C55.3065 2.31956 55.2801 2.27384 55.2404 2.24169C55.2006 2.20954 55.1504 2.19324 55.0994 2.19594C55.0484 2.19864 55.0001 2.22014 54.964 2.2563C54.9279 2.29246 54.9065 2.34072 54.9039 2.39175C54.8094 4.00438 54.8982 11.4973 54.9039 13.5555C54.9047 13.8937 55.4206 13.8555 55.4227 13.5169Z" fill="#69B93F"/>
<path d="M25.074 29.5661C25.5724 30.112 26.1022 30.6283 26.6609 31.1124C26.9022 31.3396 27.2738 30.9772 27.0309 30.7504C26.5102 30.2266 25.9628 29.7299 25.3909 29.2625C25.2168 29.1511 24.9397 29.3791 25.074 29.5661Z" fill="#69B93F"/>
<path d="M2.78541 2.37006C2.78541 2.06764 2.30926 2.01255 2.30524 2.32221C2.14679 15.1332 2.35832 30.0342 2.9704 42.7789C2.98729 43.1319 3.53341 43.0455 3.51532 42.6948C2.86865 29.2134 2.76691 15.8627 2.78541 2.37006Z" fill="#69B93F"/>
<path d="M8.835 30.9563C8.69988 31.1574 9.01316 31.4132 9.1712 31.2254C9.3751 30.9841 10.5574 29.6139 10.4983 29.3192C10.3354 28.5382 9.06584 30.6149 8.835 30.9563Z" fill="#69B93F"/>
<path d="M17.6821 24.4575C17.4758 24.4193 16.1672 25.5807 15.903 25.8329C13.4325 24.2174 13.6783 24.6152 13.7088 25.5916C13.7181 26.2595 13.7646 26.9263 13.848 27.5891C13.8781 27.7986 14.1966 27.762 14.2099 27.5581C14.2602 26.8113 14.1641 26.0669 14.152 25.3205C16.3272 26.6476 15.6548 26.6074 17.6861 24.9433C17.9274 25.2099 19.0764 26.3279 19.4242 26.2857C19.7057 26.2507 20.6536 24.9771 20.8792 24.7056C20.8792 25.2819 20.8977 26.9267 21.0686 27.3924C21.1571 27.6337 21.3904 27.5485 21.4024 27.3084C21.4322 26.7968 21.3702 25.5843 21.3715 24.994C21.3715 24.3216 21.3694 24.1495 21.0879 23.7473C20.4767 22.8738 18.9284 20.734 17.9837 19.5726C17.1517 18.5491 17.1151 18.527 16.5311 19.431C15.6315 20.8261 14.1214 23.533 13.8906 24.0477C13.7929 24.2645 14.1271 24.3666 14.2433 24.2062C14.6302 23.6717 15.506 22.1005 15.9094 21.4092C16.8163 21.4454 17.7244 21.4301 18.6296 21.3633C19.3734 22.2484 20.0844 23.1605 20.761 24.098L19.376 25.7786C19.1874 25.629 17.8908 24.4961 17.6821 24.4575Z" fill="#69B93F"/>
<path d="M24.6108 42.4624C22.45 42.3417 4.85462 42.4362 4.16814 42.5428C4.11737 42.5592 4.07347 42.5919 4.04329 42.6359C4.01312 42.6799 3.99837 42.7327 4.00136 42.7859C4.00434 42.8392 4.0249 42.89 4.0598 42.9303C4.09471 42.9706 4.142 42.9983 4.19428 43.0089C10.8471 43.0278 17.9077 42.9751 24.5722 42.9823C24.8963 42.9823 24.9518 42.4825 24.6108 42.4624Z" fill="#69B93F"/>
<path d="M9.68292 17.5622C9.921 17.828 10.2862 17.495 10.0883 17.2694C9.60812 16.7245 8.57941 15.4871 8.10527 15.0705C7.91747 14.9052 7.66291 15.1638 7.79562 15.3608C8.13664 15.8695 9.21281 17.0378 9.68292 17.5622Z" fill="#69B93F"/>
<path d="M17.4239 15.1963C17.4541 14.1526 17.3923 13.1082 17.2394 12.0752C17.2182 12.0381 17.1867 12.0079 17.1487 11.9883C17.1107 11.9686 17.0678 11.9605 17.0252 11.9647C16.9827 11.969 16.9423 11.9855 16.9089 12.0122C16.8755 12.039 16.8506 12.0748 16.8372 12.1154C16.8046 13.158 16.8552 14.2016 16.9884 15.2361C17.0005 15.288 17.031 15.3338 17.0742 15.365C17.1174 15.3961 17.1704 15.4106 17.2235 15.4058C17.2766 15.4009 17.3261 15.3771 17.3629 15.3386C17.3998 15.3001 17.4214 15.2496 17.4239 15.1963Z" fill="#69B93F"/>
<path d="M17.7757 30.7665C17.7757 31.1003 17.6869 33.3162 17.8067 33.6069C17.8279 33.6436 17.8583 33.674 17.895 33.6952C17.9317 33.7164 17.9733 33.7275 18.0156 33.7275C18.058 33.7275 18.0995 33.7164 18.1362 33.6952C18.1729 33.674 18.2033 33.6436 18.2245 33.6069C18.3496 33.2876 18.2076 31.2061 18.1912 30.7665C18.1694 30.5313 17.7757 30.5264 17.7757 30.7665Z" fill="#69B93F"/>
<path d="M7.71392 23.4972C12.5981 14.3116 23.7313 15.2767 27.8256 22.7528C22.9885 30.1351 13.5122 31.2527 7.69181 24.1547C7.51003 23.9335 7.28523 24.2162 7.45051 24.4479C12.5675 31.566 23.5009 30.637 28.0154 23.4425C28.1625 23.2596 28.2484 23.0351 28.2609 22.8008C28.2733 22.5665 28.2118 22.3341 28.085 22.1367C23.1204 13.6343 10.6866 15.1637 7.37772 23.2796C7.2792 23.5209 7.59609 23.7191 7.71392 23.4972Z" fill="#69B93F"/>
<path d="M52.2319 14.1676C50.9739 14.4089 49.8644 17.1568 51.2522 18.4433C52.102 19.2311 56.0153 19.2645 58.3876 19.1636C58.4047 19.4539 58.467 19.7398 58.5722 20.0109C58.6667 20.2522 58.9498 20.3286 58.8795 19.8935C58.841 19.6457 58.8234 19.3951 58.8268 19.1443C59.1956 19.1283 59.5639 19.1015 59.9311 19.0639C59.8672 19.5997 59.7751 20.1318 59.6552 20.658C59.5889 20.9463 59.9126 21.0002 60.0224 20.7251C60.359 19.8551 60.4953 18.9204 60.4209 17.9905C60.2778 15.9407 54.5298 13.7261 52.2319 14.1676ZM52.628 15.2502C52.0493 15.3825 51.9126 16.2616 51.8599 16.7318C51.7694 17.5361 51.2567 16.9731 51.3797 16.2657C51.4738 15.7324 51.9295 14.8638 52.5942 14.9502C52.6327 14.9482 52.6706 14.9609 52.7 14.9858C52.7295 15.0107 52.7483 15.046 52.7526 15.0843C52.7569 15.1226 52.7464 15.1612 52.7232 15.192C52.7001 15.2229 52.666 15.2437 52.628 15.2502Z" fill="#191919"/>
<path d="M56.935 22.4431C57.2556 21.9002 57.476 21.3041 57.5857 20.6833C58.1259 20.7811 58.641 20.9863 59.1006 21.2865C59.3741 21.4044 59.4779 21.0452 59.3419 20.9338C58.8483 20.5316 58.2451 20.2873 57.6107 20.2329C57.3179 19.6783 55.0924 19.5492 54.7489 20.1344C54.6649 20.0872 54.5718 20.0583 54.4758 20.0497C54.3798 20.041 54.2831 20.0527 54.192 20.0841C54.017 19.6039 52.0432 19.4837 51.5514 20.0382C50.9848 19.9759 50.7495 20.4991 51.4983 20.4943C51.5261 21.014 51.6222 21.5279 51.7843 22.0225C51.9781 22.419 53.372 22.413 53.6494 22.2123C53.9796 21.9738 54.1296 20.9326 54.2233 20.5317C54.3593 20.489 54.5062 20.4976 54.6363 20.5558C54.6334 21.0933 54.6946 21.6293 54.8185 22.1524C55.0316 22.5762 56.6258 22.8083 56.935 22.4431ZM53.497 21.7514C53.4315 21.9095 53.3724 21.9473 52.8439 21.9263C51.9512 21.8914 52.1382 22.0848 51.8647 20.2868C52.4936 20.0732 53.1754 20.0732 53.8043 20.2868C53.7956 20.79 53.6914 21.2871 53.497 21.7514ZM55.1776 21.9336C55.078 21.4393 55.0424 20.9342 55.0719 20.4307C55.7615 20.1845 56.5187 20.2077 57.192 20.4955C57.1543 20.891 57.0529 21.2777 56.8916 21.6408C56.6632 22.1407 56.6254 22.2063 55.9051 22.1475C55.5593 22.1194 55.2263 22.0426 55.1776 21.934V21.9336Z" fill="#191919"/>
<path d="M55.5188 21.6123C55.594 21.8834 56.122 21.9151 55.999 21.1321C55.9286 20.6865 55.3004 20.8265 55.5188 21.6123Z" fill="#191919"/>
<path d="M60.0799 21.2882C58.7021 21.4036 58.022 23.9275 57.2901 24.1692C56.7786 24.3385 55.6312 23.6025 54.4718 23.5233C53.3124 23.4441 52.6521 23.9339 52.4357 23.8306C52.2194 23.7272 52.3686 22.8224 52.3686 22.6112C52.3686 22.4001 52.2535 22.2847 52.0492 22.7504C51.845 23.2161 49.8527 27.6864 50.7193 28.8893C51.958 30.6081 57.0126 30.972 58.5818 29.7897C60.5492 28.3073 58.875 23.5466 59.3596 22.3064C59.4507 22.1291 59.596 21.9855 59.7744 21.8966C59.9528 21.8076 60.1549 21.7779 60.3513 21.8118C61.0141 22.0989 60.8319 24.0638 59.7726 23.7562C59.5064 23.6794 59.4461 24.014 59.6922 24.143C60.4116 24.5215 61.1178 23.9315 61.2119 22.9426C61.2823 22.1938 61.0281 21.2089 60.0799 21.2882ZM54.5941 25.7521C53.5955 25.7521 53.3936 25.3559 53.3096 24.7065C54.1739 24.8922 55.0694 24.8767 55.9268 24.661C55.8355 25.2546 55.7088 25.7537 54.5941 25.7537V25.7521Z" fill="#191919"/>
<path d="M60.0799 21.2882C58.7021 21.4036 58.022 23.9275 57.2901 24.1692C56.7786 24.3385 55.6312 23.6025 54.4718 23.5233C53.3124 23.4441 52.6521 23.9339 52.4357 23.8306C52.2194 23.7272 52.3686 22.8224 52.3686 22.6112C52.3686 22.4001 52.2535 22.2847 52.0492 22.7504C51.845 23.2161 49.8527 27.6864 50.7193 28.8893C51.958 30.6081 57.0126 30.972 58.5818 29.7897C60.5492 28.3073 58.875 23.5466 59.3596 22.3064C59.4507 22.1291 59.596 21.9855 59.7744 21.8966C59.9528 21.8076 60.1549 21.7779 60.3513 21.8118C61.0141 22.0989 60.8319 24.0638 59.7726 23.7562C59.5064 23.6794 59.4461 24.014 59.6922 24.143C60.4116 24.5215 61.1178 23.9315 61.2119 22.9426C61.2823 22.1938 61.0281 21.2089 60.0799 21.2882ZM54.5941 25.7521C53.5955 25.7521 53.3936 25.3559 53.3096 24.7065C54.1739 24.8922 55.0694 24.8767 55.9268 24.661C55.8355 25.2546 55.7088 25.7537 54.5941 25.7537V25.7521Z" fill="#191919"/>
<path d="M54.1163 21.5331C53.9314 21.9593 53.7929 22.4043 53.7033 22.8602C53.6039 23.4011 54.3234 23.4027 54.7288 23.3404C54.9701 23.3034 55.0143 23.0283 54.7501 23.009C54.5558 22.9945 54.1742 22.9849 54.138 22.9177C54.1712 22.469 54.2575 22.0258 54.395 21.5974C54.4509 21.4205 54.1927 21.3513 54.1163 21.5331Z" fill="#191919"/>
<path d="M52.9743 21.6308C53.1979 21.5455 53.2156 20.9435 53.0245 20.8313C52.5424 20.545 52.4752 21.819 52.9743 21.6308Z" fill="#191919"/>
<path d="M56.9085 0.449341C38.3097 0.463818 18.5656 0.420788 0.249909 0.576824C-0.0621623 0.579237 -0.069401 1.38113 0.230606 1.38314C18.7719 1.49936 38.3001 1.35459 56.8892 1.34011C57.223 1.33971 57.2302 0.449341 56.9085 0.449341Z" fill="#191919"/>
<path d="M35.7191 43.2602C32.5421 43.0712 27.6209 42.4495 24.6563 41.1767C24.275 41.0126 22.3917 41.3202 20.2535 40.3321C20.0299 40.2292 19.941 40.5441 20.1501 40.6732C21.2428 41.3464 22.623 41.5257 23.8833 41.5663C24.2221 41.5576 24.5577 41.6326 24.8606 41.7847C28.3537 43.0375 32.0324 43.6948 35.7432 43.7291C36.0481 43.7336 36.0384 43.2795 35.7191 43.2602Z" fill="#191919"/>
<path d="M71.8394 42.3482C71.7774 42.0095 71.321 42.129 71.3781 42.4656C71.5746 43.6739 71.4967 44.9109 71.1501 46.085C70.3293 48.9455 67.914 48.4866 65.4962 48.3752C62.9586 48.2586 59.4639 48.0153 57.2714 47.9144C57.2229 47.9079 57.1739 47.9207 57.1348 47.9499C57.0956 47.979 57.0694 48.0223 57.0617 48.0706C57.054 48.1188 57.0654 48.1681 57.0935 48.2081C57.1216 48.248 57.1642 48.2754 57.2122 48.2843C59.3215 48.6193 63.8273 48.8176 65.5827 48.9008C67.9835 49.0151 70.6619 49.3352 71.5559 46.5555C71.9957 45.1979 72.0931 43.7525 71.8394 42.3482Z" fill="#191919"/>
<path d="M56.1017 43.7814C59.2087 43.2873 62.3386 42.95 65.4795 42.7708C65.5303 42.7662 65.5773 42.7422 65.6108 42.7037C65.6442 42.6653 65.6615 42.6154 65.659 42.5645C65.6565 42.5136 65.6345 42.4656 65.5974 42.4306C65.5604 42.3956 65.5112 42.3763 65.4602 42.3767C62.2979 42.5065 59.1462 42.8272 56.0225 43.337C55.9636 43.3477 55.9113 43.3813 55.8772 43.4305C55.843 43.4798 55.8299 43.5405 55.8405 43.5994C55.8512 43.6584 55.8848 43.7106 55.934 43.7448C55.9832 43.7789 56.044 43.7921 56.1029 43.7814H56.1017Z" fill="#191919"/>
<path d="M23.0238 40.3028C23.0572 40.3025 23.0903 40.2955 23.121 40.2822C23.1517 40.2689 23.1794 40.2496 23.2024 40.2253C23.2255 40.2011 23.2434 40.1724 23.2551 40.1411C23.2668 40.1098 23.2721 40.0764 23.2707 40.043C23.2692 40.0096 23.261 39.9768 23.2466 39.9466C23.2322 39.9164 23.2118 39.8894 23.1868 39.8673C23.1617 39.8451 23.1324 39.8283 23.1007 39.8177C23.0689 39.8071 23.0354 39.803 23.0021 39.8057C21.5093 39.8536 20.756 39.4297 19.7708 38.73C19.6147 38.6194 19.449 38.8144 19.5697 38.9712C20.271 39.8982 21.9074 40.3462 23.0238 40.3028Z" fill="#191919"/>
<path d="M25.5072 37.7572C25.689 38.0724 26.0702 38.1151 26.4096 38.1919C28.4144 38.6475 33.0017 38.4955 35.1295 38.4706C35.432 38.467 35.3708 38.0761 35.06 38.0789C33.5064 38.0946 28.8177 38.1388 26.4913 37.7093C26.0618 37.6289 26.0839 37.6924 25.8647 37.3474C25.4505 36.6935 24.8328 35.8936 24.0836 35.8803C23.86 35.8763 23.8423 36.0918 24.0329 36.1875C24.6948 36.5196 25.2172 37.0758 25.5072 37.7572Z" fill="#191919"/>
<path d="M24.1801 37.8464C23.1417 37.5416 21.6743 37.0526 20.8671 36.0098C20.6259 35.6969 20.4208 35.9402 20.5406 36.1923C21.0433 37.2508 22.8835 38.2031 23.94 38.2433C24.5243 38.2679 24.3619 37.8995 24.1801 37.8464Z" fill="#191919"/>
<path d="M19.9748 37.0256C19.9416 36.9853 19.8943 36.9592 19.8424 36.9526C19.7906 36.9461 19.7383 36.9597 19.6961 36.9906C19.654 37.0215 19.6253 37.0674 19.616 37.1187C19.6066 37.1701 19.6173 37.2232 19.6458 37.2669C20.0292 37.8169 20.527 38.2774 21.1051 38.6167C21.6832 38.9561 22.3279 39.1664 22.995 39.233C23.0475 39.2349 23.0992 39.2195 23.1422 39.1892C23.1852 39.159 23.2172 39.1155 23.2332 39.0654C23.2492 39.0154 23.2484 38.9614 23.231 38.9118C23.2135 38.8622 23.1804 38.8197 23.1365 38.7907C22.7838 38.6387 21.2846 38.5409 19.9748 37.0256Z" fill="#191919"/>
<path d="M66.2719 49.3295C65.5516 49.2358 57.1969 49.4208 56.81 49.2624C56.4231 49.1039 54.422 37.7073 53.8992 36.9585C53.3764 36.2097 36.9086 36.6846 36.1598 37.1169C35.411 37.5492 37.8839 50.5669 38.5245 50.8303C39.0959 51.0648 65.4133 50.7391 66.2731 50.6936C67.1329 50.6482 66.9921 49.4232 66.2719 49.3295ZM45.524 45.5843C43.2771 45.7713 42.573 42.0855 44.8182 41.7192C45.8839 41.545 46.8229 42.4901 47.022 43.6539C47.0634 43.8807 47.0565 44.1138 47.0017 44.3377C46.947 44.5617 46.8456 44.7716 46.7043 44.9538C46.5629 45.1359 46.3847 45.2862 46.1813 45.3949C45.978 45.5035 45.754 45.568 45.524 45.5843Z" fill="#191919"/>
</svg>
