<?xml version="1.0" encoding="iso-8859-1"?>
<!-- Uploaded to: SVG Repo, www.svgrepo.com, Generator: SVG Repo Mixer Tools -->
<!DOCTYPE svg PUBLIC "-//W3C//DTD SVG 1.1//EN" "http://www.w3.org/Graphics/SVG/1.1/DTD/svg11.dtd">
<svg fill="#000000" version="1.1" id="Capa_1" xmlns="http://www.w3.org/2000/svg" xmlns:xlink="http://www.w3.org/1999/xlink" 
	 width="800px" height="800px" viewBox="0 0 536.012 536.012"
	 xml:space="preserve">
<g>
	<g>
		<circle cx="262.888" cy="144.755" r="33.995"/>
		<path d="M526.439,453.519H89.05c-5.288,0-9.562,4.283-9.562,9.562c0,5.277,4.274,9.562,9.562,9.562h437.389
			c5.288,0,9.562-4.285,9.562-9.562C536.002,457.802,531.728,453.519,526.439,453.519z"/>
		<path d="M536.002,195.312c0-5.278-4.274-9.562-9.562-9.562H330.303c-2.678-3.203-6.646-5.278-11.179-5.278
			c-3.576,0-6.856,1.272-9.361,3.433l-36.089,36.012l-43.576-43.538c-3.318-3.185-7.774-5.231-12.795-5.231l-68.305,0.039
			c-4.389,0-8.291,1.999-10.939,5.106l-47.153,54.334c-2.926,2.591-4.752,6.378-4.752,10.633c0,7.774,6.302,14.104,14.152,14.104
			c4.379,0,8.329-1.96,10.93-5.135l43.739-50.547l25.207,0.125L83.82,311.534l-65.149-0.172c-1.482-0.039-3.012,0.086-4.6,0.42
			c-9.763,2.172-15.845,11.771-13.607,21.555c1.932,8.586,9.62,14.363,18.092,14.238L94.3,347.44
			c16.027,0.555,22.099-6.885,22.099-6.885l37.36-41.664l43.404,42.209l-17.595,78.346c-0.431,1.445-0.603,2.984-0.603,4.6
			c0,10.031,8.167,18.189,18.197,18.189c8.75,0,16.123-6.246,17.806-14.525l21.362-95.254h290.117c5.288,0,9.562-4.283,9.562-9.562
			c0-5.277-4.274-9.562-9.562-9.562H235.433c-1.224-2.312-2.467-3.518-2.467-3.518l-38.26-38.213l41.731-48.252l26.708,26.823
			c0,0,10.614,11.179,23.801-1.988l43.021-43.309h196.472C531.728,204.874,536.002,200.6,536.002,195.312z"/>
		<path d="M526.439,63.368H89.05c-5.288,0-9.562,4.284-9.562,9.562c0,5.279,4.274,9.562,9.562,9.562h437.389
			c5.288,0,9.562-4.284,9.562-9.562C536.002,67.652,531.728,63.368,526.439,63.368z"/>
		<path d="M442.672,407.942c-2.85,7.822,1.186,15.387,14.248,15.387c11.943,0,22.807-6.703,26.44-16.676
			c2.534-6.963-0.268-11.781-5.518-14.105l0.096-0.248c7.19-3.014,11.465-7.908,13.187-12.633
			c2.505-6.885-0.277-14.105-12.393-14.105c-10.567,0-20.904,6.197-24.223,15.311c-1.778,4.906-0.812,9.553,4.007,12.383
			l-0.096,0.25C450.934,396.335,445.177,401.058,442.672,407.942z M464.713,380.433c1.464-4.035,5.509-7.564,10.835-7.564
			c5.68,0,6.521,4.035,5.115,7.908c-1.529,4.207-5.756,7.314-10.03,8.424C465.832,387.737,463.05,384.983,464.713,380.433z
			 M465.718,397.022c5.651,1.723,8.645,4.82,6.588,10.49c-1.759,4.82-6.731,8.338-12.316,8.338c-5.929,0-7.984-4.293-6.062-9.111
			C455.591,402.187,459.951,398.476,465.718,397.022z"/>
		<polygon points="451.995,288.938 463.088,288.938 504.589,239.854 507.065,233.064 469.504,233.064 466.311,241.824 
			492.693,241.824 492.636,242.005 		"/>
		<path d="M504.531,118.152c2.161-0.258,3.901-0.354,5.422-0.258l3.032-8.338c-1.263-0.086-2.975-0.086-5.423,0.258
			c-8.214,0.602-16.007,3.356-22.863,8.252c-7.832,5.508-14.88,14.181-18.781,24.929c-5.039,13.837-1.319,24.155,12.26,24.155
			c11.857,0,23.064-9.285,26.938-19.947c4.131-11.351-0.842-18.226-10.48-18.226c-5.585,0-10.605,2.238-14.517,5.413h-0.258
			C484.067,126.653,492.263,119.519,504.531,118.152z M488.485,136.722c6.197,0,8.052,4.552,5.681,11.083
			c-2.448,6.713-7.688,11.427-13.101,11.427c-6.962,0-8.205-6.005-5.689-13.407c0.535-1.454,1.166-2.496,1.902-3.356
			C480.138,139.123,484.536,136.722,488.485,136.722z"/>
	</g>
</g>
</svg>